<svg xmlns="http://www.w3.org/2000/svg" xmlns:xlink="http://www.w3.org/1999/xlink" contentStyleType="text/css" height="1171px" preserveAspectRatio="none" style="width:1018px;height:1171px;background:#FFFFFF;" version="1.1" viewBox="0 0 1018 1171" width="1018px" zoomAndPan="magnify"><defs/><g><g id="elem_note"><path d="M119.5,18.44 L119.5,43.5728 L351.5,43.5728 L351.5,28.44 L341.5,18.44 L119.5,18.44 " fill="#FEFFDD" style="stroke:#181818;stroke-width:0.5;"/><path d="M341.5,18.44 L341.5,28.44 L351.5,28.44 L341.5,18.44 " fill="#FEFFDD" style="stroke:#181818;stroke-width:1.0;"/><text fill="#000000" font-family="sans-serif" font-size="13" lengthAdjust="spacing" textLength="211" x="125.5" y="35.5069">Tous les attributs sont NOT NULL</text></g><!--class Organisation--><g id="elem_Organisation"><rect codeLine="3" fill="#F1F1F1" height="96.8906" id="Organisation" rx="2.5" ry="2.5" style="stroke:#181818;stroke-width:0.5;" width="155" x="212" y="132"/><ellipse cx="243.2" cy="148" fill="#ADD1B2" rx="11" ry="11" style="stroke:#181818;stroke-width:1.0;"/><path d="M246.1688,153.6406 Q245.5906,153.9375 244.95,154.0781 Q244.3094,154.2344 243.6063,154.2344 Q241.1063,154.2344 239.7781,152.5938 Q238.4656,150.9375 238.4656,147.8125 Q238.4656,144.6875 239.7781,143.0313 Q241.1063,141.375 243.6063,141.375 Q244.3094,141.375 244.95,141.5313 Q245.6063,141.6875 246.1688,141.9844 L246.1688,144.7031 Q245.5438,144.125 244.95,143.8594 Q244.3563,143.5781 243.7313,143.5781 Q242.3875,143.5781 241.7,144.6563 Q241.0125,145.7188 241.0125,147.8125 Q241.0125,149.9063 241.7,150.9844 Q242.3875,152.0469 243.7313,152.0469 Q244.3563,152.0469 244.95,151.7813 Q245.5438,151.5 246.1688,150.9219 L246.1688,153.6406 Z " fill="#000000"/><text fill="#000000" font-family="sans-serif" font-size="14" lengthAdjust="spacing" textLength="87" x="260.8" y="152.8467">Organisation</text><line style="stroke:#181818;stroke-width:0.5;" x1="213" x2="366" y1="164" y2="164"/><text fill="#000000" font-family="sans-serif" font-size="14" lengthAdjust="spacing" textLength="143" x="218" y="180.9951">&lt;primary&gt; Siren : int</text><text fill="#000000" font-family="sans-serif" font-size="14" lengthAdjust="spacing" textLength="62" x="218" y="197.292">nom : str</text><text fill="#000000" font-family="sans-serif" font-size="14" lengthAdjust="spacing" textLength="61" x="218" y="213.5889">logo : str</text><line style="stroke:#181818;stroke-width:0.5;" x1="213" x2="366" y1="220.8906" y2="220.8906"/></g><!--class Type_Organisation--><g id="elem_Type_Organisation"><rect codeLine="9" fill="#F1F1F1" height="64.2969" id="Type_Organisation" rx="2.5" ry="2.5" style="stroke:#181818;stroke-width:0.5;" width="160" x="77.5" y="305.9"/><ellipse cx="92.5" cy="321.9" fill="#ADD1B2" rx="11" ry="11" style="stroke:#181818;stroke-width:1.0;"/><path d="M95.4688,327.5406 Q94.8906,327.8375 94.25,327.9781 Q93.6094,328.1344 92.9063,328.1344 Q90.4063,328.1344 89.0781,326.4938 Q87.7656,324.8375 87.7656,321.7125 Q87.7656,318.5875 89.0781,316.9313 Q90.4063,315.275 92.9063,315.275 Q93.6094,315.275 94.25,315.4313 Q94.9063,315.5875 95.4688,315.8844 L95.4688,318.6031 Q94.8438,318.025 94.25,317.7594 Q93.6563,317.4781 93.0313,317.4781 Q91.6875,317.4781 91,318.5563 Q90.3125,319.6188 90.3125,321.7125 Q90.3125,323.8063 91,324.8844 Q91.6875,325.9469 93.0313,325.9469 Q93.6563,325.9469 94.25,325.6813 Q94.8438,325.4 95.4688,324.8219 L95.4688,327.5406 Z " fill="#000000"/><text fill="#000000" font-family="sans-serif" font-size="14" lengthAdjust="spacing" textLength="128" x="106.5" y="326.7467">Type_Organisation</text><line style="stroke:#181818;stroke-width:0.5;" x1="78.5" x2="236.5" y1="337.9" y2="337.9"/><text fill="#000000" font-family="sans-serif" font-size="14" lengthAdjust="spacing" textLength="148" x="83.5" y="354.8951">&lt;primary&gt; name : str</text><line style="stroke:#181818;stroke-width:0.5;" x1="78.5" x2="236.5" y1="362.1969" y2="362.1969"/></g><!--class Offre_emploi--><g id="elem_Offre_emploi"><rect codeLine="13" fill="#F1F1F1" height="113.1875" id="Offre_emploi" rx="2.5" ry="2.5" style="stroke:#181818;stroke-width:0.5;" width="171" x="421" y="479.79"/><ellipse cx="459.85" cy="495.79" fill="#ADD1B2" rx="11" ry="11" style="stroke:#181818;stroke-width:1.0;"/><path d="M462.8188,501.4306 Q462.2406,501.7275 461.6,501.8681 Q460.9594,502.0244 460.2563,502.0244 Q457.7563,502.0244 456.4281,500.3838 Q455.1156,498.7275 455.1156,495.6025 Q455.1156,492.4775 456.4281,490.8213 Q457.7563,489.165 460.2563,489.165 Q460.9594,489.165 461.6,489.3213 Q462.2563,489.4775 462.8188,489.7744 L462.8188,492.4931 Q462.1938,491.915 461.6,491.6494 Q461.0063,491.3681 460.3813,491.3681 Q459.0375,491.3681 458.35,492.4463 Q457.6625,493.5088 457.6625,495.6025 Q457.6625,497.6963 458.35,498.7744 Q459.0375,499.8369 460.3813,499.8369 Q461.0063,499.8369 461.6,499.5713 Q462.1938,499.29 462.8188,498.7119 L462.8188,501.4306 Z " fill="#000000"/><text fill="#000000" font-family="sans-serif" font-size="14" lengthAdjust="spacing" textLength="86" x="479.15" y="500.6367">Offre_emploi</text><line style="stroke:#181818;stroke-width:0.5;" x1="422" x2="591" y1="511.79" y2="511.79"/><text fill="#000000" font-family="sans-serif" font-size="14" lengthAdjust="spacing" textLength="139" x="427" y="528.7851">&lt;primary&gt; num : int</text><text fill="#000000" font-family="sans-serif" font-size="14" lengthAdjust="spacing" textLength="159" x="427" y="545.082">date_validite : datetime</text><text fill="#000000" font-family="sans-serif" font-size="14" lengthAdjust="spacing" textLength="105" x="427" y="561.3789">indications : str</text><text fill="#000000" font-family="sans-serif" font-size="14" lengthAdjust="spacing" textLength="153" x="427" y="577.6757">date_depot : datetime</text><line style="stroke:#181818;stroke-width:0.5;" x1="422" x2="591" y1="584.9775" y2="584.9775"/></g><!--class etat_offre--><g id="elem_etat_offre"><rect codeLine="20" fill="#F1F1F1" height="64.2969" id="etat_offre" rx="2.5" ry="2.5" style="stroke:#181818;stroke-width:0.5;" width="148" x="527.5" y="702.57"/><ellipse cx="565.45" cy="718.57" fill="#ADD1B2" rx="11" ry="11" style="stroke:#181818;stroke-width:1.0;"/><path d="M568.4188,724.2106 Q567.8406,724.5075 567.2,724.6481 Q566.5594,724.8044 565.8563,724.8044 Q563.3563,724.8044 562.0281,723.1638 Q560.7156,721.5075 560.7156,718.3825 Q560.7156,715.2575 562.0281,713.6013 Q563.3563,711.945 565.8563,711.945 Q566.5594,711.945 567.2,712.1013 Q567.8563,712.2575 568.4188,712.5544 L568.4188,715.2731 Q567.7938,714.695 567.2,714.4294 Q566.6063,714.1481 565.9813,714.1481 Q564.6375,714.1481 563.95,715.2263 Q563.2625,716.2888 563.2625,718.3825 Q563.2625,720.4763 563.95,721.5544 Q564.6375,722.6169 565.9813,722.6169 Q566.6063,722.6169 567.2,722.3513 Q567.7938,722.07 568.4188,721.4919 L568.4188,724.2106 Z " fill="#000000"/><text fill="#000000" font-family="sans-serif" font-size="14" lengthAdjust="spacing" textLength="65" x="584.55" y="723.4167">etat_offre</text><line style="stroke:#181818;stroke-width:0.5;" x1="528.5" x2="674.5" y1="734.57" y2="734.57"/><text fill="#000000" font-family="sans-serif" font-size="14" lengthAdjust="spacing" textLength="136" x="533.5" y="751.5651">&lt;primary&gt; etat : str</text><line style="stroke:#181818;stroke-width:0.5;" x1="528.5" x2="674.5" y1="758.8669" y2="758.8669"/></g><!--class Etat_demande--><g id="elem_Etat_demande"><rect codeLine="24" fill="#F1F1F1" height="64.2969" id="Etat_demande" rx="2.5" ry="2.5" style="stroke:#181818;stroke-width:0.5;" width="187" x="343" y="305.9"/><ellipse cx="382.75" cy="321.9" fill="#ADD1B2" rx="11" ry="11" style="stroke:#181818;stroke-width:1.0;"/><path d="M385.7188,327.5406 Q385.1406,327.8375 384.5,327.9781 Q383.8594,328.1344 383.1563,328.1344 Q380.6563,328.1344 379.3281,326.4938 Q378.0156,324.8375 378.0156,321.7125 Q378.0156,318.5875 379.3281,316.9313 Q380.6563,315.275 383.1563,315.275 Q383.8594,315.275 384.5,315.4313 Q385.1563,315.5875 385.7188,315.8844 L385.7188,318.6031 Q385.0938,318.025 384.5,317.7594 Q383.9063,317.4781 383.2813,317.4781 Q381.9375,317.4781 381.25,318.5563 Q380.5625,319.6188 380.5625,321.7125 Q380.5625,323.8063 381.25,324.8844 Q381.9375,325.9469 383.2813,325.9469 Q383.9063,325.9469 384.5,325.6813 Q385.0938,325.4 385.7188,324.8219 L385.7188,327.5406 Z " fill="#000000"/><text fill="#000000" font-family="sans-serif" font-size="14" lengthAdjust="spacing" textLength="100" x="402.25" y="326.7467">Etat_demande</text><line style="stroke:#181818;stroke-width:0.5;" x1="344" x2="529" y1="337.9" y2="337.9"/><text fill="#000000" font-family="sans-serif" font-size="14" lengthAdjust="spacing" textLength="175" x="349" y="354.8951">&lt;primary&gt; demande : str</text><line style="stroke:#181818;stroke-width:0.5;" x1="344" x2="529" y1="362.1969" y2="362.1969"/></g><!--class fiche_poste--><g id="elem_fiche_poste"><rect codeLine="28" fill="#F1F1F1" height="162.0781" id="fiche_poste" rx="2.5" ry="2.5" style="stroke:#181818;stroke-width:0.5;" width="222" x="179.5" y="827.86"/><ellipse cx="246.25" cy="843.86" fill="#ADD1B2" rx="11" ry="11" style="stroke:#181818;stroke-width:1.0;"/><path d="M249.2188,849.5006 Q248.6406,849.7975 248,849.9381 Q247.3594,850.0944 246.6563,850.0944 Q244.1563,850.0944 242.8281,848.4538 Q241.5156,846.7975 241.5156,843.6725 Q241.5156,840.5475 242.8281,838.8913 Q244.1563,837.235 246.6563,837.235 Q247.3594,837.235 248,837.3913 Q248.6563,837.5475 249.2188,837.8444 L249.2188,840.5631 Q248.5938,839.985 248,839.7194 Q247.4063,839.4381 246.7813,839.4381 Q245.4375,839.4381 244.75,840.5163 Q244.0625,841.5788 244.0625,843.6725 Q244.0625,845.7663 244.75,846.8444 Q245.4375,847.9069 246.7813,847.9069 Q247.4063,847.9069 248,847.6413 Q248.5938,847.36 249.2188,846.7819 L249.2188,849.5006 Z " fill="#000000"/><text fill="#000000" font-family="sans-serif" font-size="14" lengthAdjust="spacing" textLength="80" x="266.75" y="848.7067">fiche_poste</text><line style="stroke:#181818;stroke-width:0.5;" x1="180.5" x2="400.5" y1="859.86" y2="859.86"/><text fill="#000000" font-family="sans-serif" font-size="14" lengthAdjust="spacing" textLength="77" x="185.5" y="876.8551">intitule : str</text><text fill="#000000" font-family="sans-serif" font-size="14" lengthAdjust="spacing" textLength="210" x="185.5" y="893.152">responsable_hierarchique : str</text><text fill="#000000" font-family="sans-serif" font-size="14" lengthAdjust="spacing" textLength="136" x="185.5" y="909.4489">rythme_travail : float</text><text fill="#000000" font-family="sans-serif" font-size="14" lengthAdjust="spacing" textLength="108" x="185.5" y="925.7457">teletravail : bool</text><text fill="#000000" font-family="sans-serif" font-size="14" lengthAdjust="spacing" textLength="118" x="185.5" y="942.0426">salaire_min : float</text><text fill="#000000" font-family="sans-serif" font-size="14" lengthAdjust="spacing" textLength="121" x="185.5" y="958.3395">salaire_max : float</text><text fill="#000000" font-family="sans-serif" font-size="14" lengthAdjust="spacing" textLength="116" x="185.5" y="974.6364">description : text</text><line style="stroke:#181818;stroke-width:0.5;" x1="180.5" x2="400.5" y1="981.9381" y2="981.9381"/></g><!--class statut_poste--><g id="elem_statut_poste"><rect codeLine="38" fill="#F1F1F1" height="64.2969" id="statut_poste" rx="2.5" ry="2.5" style="stroke:#181818;stroke-width:0.5;" width="161" x="378" y="1075.39"/><ellipse cx="411.9" cy="1091.39" fill="#ADD1B2" rx="11" ry="11" style="stroke:#181818;stroke-width:1.0;"/><path d="M414.8688,1097.0306 Q414.2906,1097.3275 413.65,1097.4681 Q413.0094,1097.6244 412.3063,1097.6244 Q409.8063,1097.6244 408.4781,1095.9838 Q407.1656,1094.3275 407.1656,1091.2025 Q407.1656,1088.0775 408.4781,1086.4213 Q409.8063,1084.765 412.3063,1084.765 Q413.0094,1084.765 413.65,1084.9213 Q414.3063,1085.0775 414.8688,1085.3744 L414.8688,1088.0931 Q414.2438,1087.515 413.65,1087.2494 Q413.0563,1086.9681 412.4313,1086.9681 Q411.0875,1086.9681 410.4,1088.0463 Q409.7125,1089.1088 409.7125,1091.2025 Q409.7125,1093.2963 410.4,1094.3744 Q411.0875,1095.4369 412.4313,1095.4369 Q413.0563,1095.4369 413.65,1095.1713 Q414.2438,1094.89 414.8688,1094.3119 L414.8688,1097.0306 Z " fill="#000000"/><text fill="#000000" font-family="sans-serif" font-size="14" lengthAdjust="spacing" textLength="87" x="430.1" y="1096.2367">statut_poste</text><line style="stroke:#181818;stroke-width:0.5;" x1="379" x2="538" y1="1107.39" y2="1107.39"/><text fill="#000000" font-family="sans-serif" font-size="14" lengthAdjust="spacing" textLength="149" x="384" y="1124.3851">&lt;primary&gt; statut : str</text><line style="stroke:#181818;stroke-width:0.5;" x1="379" x2="538" y1="1131.6869" y2="1131.6869"/></g><!--class type_metier--><g id="elem_type_metier"><rect codeLine="42" fill="#F1F1F1" height="64.2969" id="type_metier" rx="2.5" ry="2.5" style="stroke:#181818;stroke-width:0.5;" width="151" x="192" y="1075.39"/><ellipse cx="224.1" cy="1091.39" fill="#ADD1B2" rx="11" ry="11" style="stroke:#181818;stroke-width:1.0;"/><path d="M227.0688,1097.0306 Q226.4906,1097.3275 225.85,1097.4681 Q225.2094,1097.6244 224.5063,1097.6244 Q222.0063,1097.6244 220.6781,1095.9838 Q219.3656,1094.3275 219.3656,1091.2025 Q219.3656,1088.0775 220.6781,1086.4213 Q222.0063,1084.765 224.5063,1084.765 Q225.2094,1084.765 225.85,1084.9213 Q226.5063,1085.0775 227.0688,1085.3744 L227.0688,1088.0931 Q226.4438,1087.515 225.85,1087.2494 Q225.2563,1086.9681 224.6313,1086.9681 Q223.2875,1086.9681 222.6,1088.0463 Q221.9125,1089.1088 221.9125,1091.2025 Q221.9125,1093.2963 222.6,1094.3744 Q223.2875,1095.4369 224.6313,1095.4369 Q225.2563,1095.4369 225.85,1095.1713 Q226.4438,1094.89 227.0688,1094.3119 L227.0688,1097.0306 Z " fill="#000000"/><text fill="#000000" font-family="sans-serif" font-size="14" lengthAdjust="spacing" textLength="81" x="241.9" y="1096.2367">type_metier</text><line style="stroke:#181818;stroke-width:0.5;" x1="193" x2="342" y1="1107.39" y2="1107.39"/><text fill="#000000" font-family="sans-serif" font-size="14" lengthAdjust="spacing" textLength="139" x="198" y="1124.3851">&lt;primary&gt; type : str</text><line style="stroke:#181818;stroke-width:0.5;" x1="193" x2="342" y1="1131.6869" y2="1131.6869"/></g><!--class adresse--><g id="elem_adresse"><rect codeLine="46" fill="#F1F1F1" height="113.1875" id="adresse" rx="2.5" ry="2.5" style="stroke:#181818;stroke-width:0.5;" width="127" x="7" y="1050.94"/><ellipse cx="39.55" cy="1066.94" fill="#ADD1B2" rx="11" ry="11" style="stroke:#181818;stroke-width:1.0;"/><path d="M42.5188,1072.5806 Q41.9406,1072.8775 41.3,1073.0181 Q40.6594,1073.1744 39.9563,1073.1744 Q37.4563,1073.1744 36.1281,1071.5338 Q34.8156,1069.8775 34.8156,1066.7525 Q34.8156,1063.6275 36.1281,1061.9713 Q37.4563,1060.315 39.9563,1060.315 Q40.6594,1060.315 41.3,1060.4713 Q41.9563,1060.6275 42.5188,1060.9244 L42.5188,1063.6431 Q41.8938,1063.065 41.3,1062.7994 Q40.7063,1062.5181 40.0813,1062.5181 Q38.7375,1062.5181 38.05,1063.5963 Q37.3625,1064.6588 37.3625,1066.7525 Q37.3625,1068.8463 38.05,1069.9244 Q38.7375,1070.9869 40.0813,1070.9869 Q40.7063,1070.9869 41.3,1070.7213 Q41.8938,1070.44 42.5188,1069.8619 L42.5188,1072.5806 Z " fill="#000000"/><text fill="#000000" font-family="sans-serif" font-size="14" lengthAdjust="spacing" textLength="56" x="57.45" y="1071.7867">adresse</text><line style="stroke:#181818;stroke-width:0.5;" x1="8" x2="133" y1="1082.94" y2="1082.94"/><text fill="#000000" font-family="sans-serif" font-size="14" lengthAdjust="spacing" textLength="61" x="13" y="1099.9351">num : int</text><text fill="#000000" font-family="sans-serif" font-size="14" lengthAdjust="spacing" textLength="54" x="13" y="1116.232">rue : str</text><text fill="#000000" font-family="sans-serif" font-size="14" lengthAdjust="spacing" textLength="56" x="13" y="1132.5289">ville : str</text><text fill="#000000" font-family="sans-serif" font-size="14" lengthAdjust="spacing" textLength="115" x="13" y="1148.8257">code_postal : str</text><line style="stroke:#181818;stroke-width:0.5;" x1="8" x2="133" y1="1156.1275" y2="1156.1275"/></g><!--class Utilisateur--><g id="elem_Utilisateur"><rect codeLine="54" fill="#F1F1F1" height="178.375" id="Utilisateur" rx="2.5" ry="2.5" style="stroke:#181818;stroke-width:0.5;" width="180" x="831.5" y="447.19"/><ellipse cx="883.25" cy="463.19" fill="#ADD1B2" rx="11" ry="11" style="stroke:#181818;stroke-width:1.0;"/><path d="M886.2188,468.8306 Q885.6406,469.1275 885,469.2681 Q884.3594,469.4244 883.6563,469.4244 Q881.1563,469.4244 879.8281,467.7838 Q878.5156,466.1275 878.5156,463.0025 Q878.5156,459.8775 879.8281,458.2213 Q881.1563,456.565 883.6563,456.565 Q884.3594,456.565 885,456.7213 Q885.6563,456.8775 886.2188,457.1744 L886.2188,459.8931 Q885.5938,459.315 885,459.0494 Q884.4063,458.7681 883.7813,458.7681 Q882.4375,458.7681 881.75,459.8463 Q881.0625,460.9088 881.0625,463.0025 Q881.0625,465.0963 881.75,466.1744 Q882.4375,467.2369 883.7813,467.2369 Q884.4063,467.2369 885,466.9713 Q885.5938,466.69 886.2188,466.1119 L886.2188,468.8306 Z " fill="#000000"/><text fill="#000000" font-family="sans-serif" font-size="14" lengthAdjust="spacing" textLength="68" x="903.75" y="468.0367">Utilisateur</text><line style="stroke:#181818;stroke-width:0.5;" x1="832.5" x2="1010.5" y1="479.19" y2="479.19"/><text fill="#000000" font-family="sans-serif" font-size="14" lengthAdjust="spacing" textLength="124" x="837.5" y="496.1851">email : str UNIQUE</text><text fill="#000000" font-family="sans-serif" font-size="14" lengthAdjust="spacing" textLength="62" x="837.5" y="512.482">nom : str</text><text fill="#000000" font-family="sans-serif" font-size="14" lengthAdjust="spacing" textLength="85" x="837.5" y="528.7789">prenom : str</text><text fill="#000000" font-family="sans-serif" font-size="14" lengthAdjust="spacing" textLength="143" x="837.5" y="545.0757">num_tel : str UNIQUE</text><text fill="#000000" font-family="sans-serif" font-size="14" lengthAdjust="spacing" textLength="168" x="837.5" y="561.3726">date_creation : datetime</text><text fill="#000000" font-family="sans-serif" font-size="14" lengthAdjust="spacing" textLength="138" x="837.5" y="577.6695">last_login : datetime</text><text fill="#000000" font-family="sans-serif" font-size="14" lengthAdjust="spacing" textLength="83" x="837.5" y="593.9664">statut : bool</text><line style="stroke:#181818;stroke-width:0.5;" x1="832.5" x2="1010.5" y1="601.2681" y2="601.2681"/><text fill="#000000" font-family="sans-serif" font-size="14" lengthAdjust="spacing" textLength="146" x="837.5" y="618.2632">password : str (hash)</text></g><!--class Administrateur--><g id="elem_Administrateur"><rect codeLine="65" fill="#F1F1F1" height="48" id="Administrateur" rx="2.5" ry="2.5" style="stroke:#181818;stroke-width:0.5;" width="132" x="875.5" y="314.04"/><ellipse cx="890.5" cy="330.04" fill="#ADD1B2" rx="11" ry="11" style="stroke:#181818;stroke-width:1.0;"/><path d="M893.4688,335.6806 Q892.8906,335.9775 892.25,336.1181 Q891.6094,336.2744 890.9063,336.2744 Q888.4063,336.2744 887.0781,334.6338 Q885.7656,332.9775 885.7656,329.8525 Q885.7656,326.7275 887.0781,325.0713 Q888.4063,323.415 890.9063,323.415 Q891.6094,323.415 892.25,323.5713 Q892.9063,323.7275 893.4688,324.0244 L893.4688,326.7431 Q892.8438,326.165 892.25,325.8994 Q891.6563,325.6181 891.0313,325.6181 Q889.6875,325.6181 889,326.6963 Q888.3125,327.7588 888.3125,329.8525 Q888.3125,331.9463 889,333.0244 Q889.6875,334.0869 891.0313,334.0869 Q891.6563,334.0869 892.25,333.8213 Q892.8438,333.54 893.4688,332.9619 L893.4688,335.6806 Z " fill="#000000"/><text fill="#000000" font-family="sans-serif" font-size="14" lengthAdjust="spacing" textLength="100" x="904.5" y="334.8867">Administrateur</text><line style="stroke:#181818;stroke-width:0.5;" x1="876.5" x2="1006.5" y1="346.04" y2="346.04"/><line style="stroke:#181818;stroke-width:0.5;" x1="876.5" x2="1006.5" y1="354.04" y2="354.04"/></g><!--class Recruteur--><g id="elem_Recruteur"><rect codeLine="69" fill="#F1F1F1" height="48" id="Recruteur" rx="2.5" ry="2.5" style="stroke:#181818;stroke-width:0.5;" width="101" x="387" y="7"/><ellipse cx="402" cy="23" fill="#ADD1B2" rx="11" ry="11" style="stroke:#181818;stroke-width:1.0;"/><path d="M404.9688,28.6406 Q404.3906,28.9375 403.75,29.0781 Q403.1094,29.2344 402.4063,29.2344 Q399.9063,29.2344 398.5781,27.5938 Q397.2656,25.9375 397.2656,22.8125 Q397.2656,19.6875 398.5781,18.0313 Q399.9063,16.375 402.4063,16.375 Q403.1094,16.375 403.75,16.5313 Q404.4063,16.6875 404.9688,16.9844 L404.9688,19.7031 Q404.3438,19.125 403.75,18.8594 Q403.1563,18.5781 402.5313,18.5781 Q401.1875,18.5781 400.5,19.6563 Q399.8125,20.7188 399.8125,22.8125 Q399.8125,24.9063 400.5,25.9844 Q401.1875,27.0469 402.5313,27.0469 Q403.1563,27.0469 403.75,26.7813 Q404.3438,26.5 404.9688,25.9219 L404.9688,28.6406 Z " fill="#000000"/><text fill="#000000" font-family="sans-serif" font-size="14" lengthAdjust="spacing" textLength="69" x="416" y="27.8467">Recruteur</text><line style="stroke:#181818;stroke-width:0.5;" x1="388" x2="487" y1="39" y2="39"/><line style="stroke:#181818;stroke-width:0.5;" x1="388" x2="487" y1="47" y2="47"/></g><!--class Candidat--><g id="elem_Candidat"><rect codeLine="73" fill="#F1F1F1" height="48" id="Candidat" rx="2.5" ry="2.5" style="stroke:#181818;stroke-width:0.5;" width="93" x="621" y="156.45"/><ellipse cx="636" cy="172.45" fill="#ADD1B2" rx="11" ry="11" style="stroke:#181818;stroke-width:1.0;"/><path d="M638.9688,178.0906 Q638.3906,178.3875 637.75,178.5281 Q637.1094,178.6844 636.4063,178.6844 Q633.9063,178.6844 632.5781,177.0438 Q631.2656,175.3875 631.2656,172.2625 Q631.2656,169.1375 632.5781,167.4813 Q633.9063,165.825 636.4063,165.825 Q637.1094,165.825 637.75,165.9813 Q638.4063,166.1375 638.9688,166.4344 L638.9688,169.1531 Q638.3438,168.575 637.75,168.3094 Q637.1563,168.0281 636.5313,168.0281 Q635.1875,168.0281 634.5,169.1063 Q633.8125,170.1688 633.8125,172.2625 Q633.8125,174.3563 634.5,175.4344 Q635.1875,176.4969 636.5313,176.4969 Q637.1563,176.4969 637.75,176.2313 Q638.3438,175.95 638.9688,175.3719 L638.9688,178.0906 Z " fill="#000000"/><text fill="#000000" font-family="sans-serif" font-size="14" lengthAdjust="spacing" textLength="61" x="650" y="177.2967">Candidat</text><line style="stroke:#181818;stroke-width:0.5;" x1="622" x2="713" y1="188.45" y2="188.45"/><line style="stroke:#181818;stroke-width:0.5;" x1="622" x2="713" y1="196.45" y2="196.45"/></g><!--class Candidature--><g id="elem_Candidature"><rect codeLine="77" fill="#F1F1F1" height="64.2969" id="Candidature" rx="2.5" ry="2.5" style="stroke:#181818;stroke-width:0.5;" width="206" x="564.5" y="305.9"/><ellipse cx="621.25" cy="321.9" fill="#ADD1B2" rx="11" ry="11" style="stroke:#181818;stroke-width:1.0;"/><path d="M624.2188,327.5406 Q623.6406,327.8375 623,327.9781 Q622.3594,328.1344 621.6563,328.1344 Q619.1563,328.1344 617.8281,326.4938 Q616.5156,324.8375 616.5156,321.7125 Q616.5156,318.5875 617.8281,316.9313 Q619.1563,315.275 621.6563,315.275 Q622.3594,315.275 623,315.4313 Q623.6563,315.5875 624.2188,315.8844 L624.2188,318.6031 Q623.5938,318.025 623,317.7594 Q622.4063,317.4781 621.7813,317.4781 Q620.4375,317.4781 619.75,318.5563 Q619.0625,319.6188 619.0625,321.7125 Q619.0625,323.8063 619.75,324.8844 Q620.4375,325.9469 621.7813,325.9469 Q622.4063,325.9469 623,325.6813 Q623.5938,325.4 624.2188,324.8219 L624.2188,327.5406 Z " fill="#000000"/><text fill="#000000" font-family="sans-serif" font-size="14" lengthAdjust="spacing" textLength="84" x="641.75" y="326.7467">Candidature</text><line style="stroke:#181818;stroke-width:0.5;" x1="565.5" x2="769.5" y1="337.9" y2="337.9"/><text fill="#000000" font-family="sans-serif" font-size="14" lengthAdjust="spacing" textLength="194" x="570.5" y="354.8951">date_candidature : datetime</text><line style="stroke:#181818;stroke-width:0.5;" x1="565.5" x2="769.5" y1="362.1969" y2="362.1969"/></g><!--class Piece_dossier--><g id="elem_Piece_dossier"><rect codeLine="81" fill="#F1F1F1" height="80.5938" id="Piece_dossier" rx="2.5" ry="2.5" style="stroke:#181818;stroke-width:0.5;" width="128" x="627.5" y="496.08"/><ellipse cx="642.5" cy="512.08" fill="#ADD1B2" rx="11" ry="11" style="stroke:#181818;stroke-width:1.0;"/><path d="M645.4688,517.7206 Q644.8906,518.0175 644.25,518.1581 Q643.6094,518.3144 642.9063,518.3144 Q640.4063,518.3144 639.0781,516.6738 Q637.7656,515.0175 637.7656,511.8925 Q637.7656,508.7675 639.0781,507.1113 Q640.4063,505.455 642.9063,505.455 Q643.6094,505.455 644.25,505.6113 Q644.9063,505.7675 645.4688,506.0644 L645.4688,508.7831 Q644.8438,508.205 644.25,507.9394 Q643.6563,507.6581 643.0313,507.6581 Q641.6875,507.6581 641,508.7363 Q640.3125,509.7988 640.3125,511.8925 Q640.3125,513.9863 641,515.0644 Q641.6875,516.1269 643.0313,516.1269 Q643.6563,516.1269 644.25,515.8613 Q644.8438,515.58 645.4688,515.0019 L645.4688,517.7206 Z " fill="#000000"/><text fill="#000000" font-family="sans-serif" font-size="14" lengthAdjust="spacing" textLength="96" x="656.5" y="516.9267">Piece_dossier</text><line style="stroke:#181818;stroke-width:0.5;" x1="628.5" x2="754.5" y1="528.08" y2="528.08"/><text fill="#000000" font-family="sans-serif" font-size="14" lengthAdjust="spacing" textLength="61" x="633.5" y="545.0751">type : str</text><text fill="#000000" font-family="sans-serif" font-size="14" lengthAdjust="spacing" textLength="72" x="633.5" y="561.372">fichier : str</text><line style="stroke:#181818;stroke-width:0.5;" x1="628.5" x2="754.5" y1="568.6738" y2="568.6738"/></g><!--class Role--><g id="elem_Role"><rect codeLine="86" fill="#F1F1F1" height="64.2969" id="Role" rx="2.5" ry="2.5" style="stroke:#181818;stroke-width:0.5;" width="147" x="848" y="702.57"/><ellipse cx="901.75" cy="718.57" fill="#ADD1B2" rx="11" ry="11" style="stroke:#181818;stroke-width:1.0;"/><path d="M904.7188,724.2106 Q904.1406,724.5075 903.5,724.6481 Q902.8594,724.8044 902.1563,724.8044 Q899.6563,724.8044 898.3281,723.1638 Q897.0156,721.5075 897.0156,718.3825 Q897.0156,715.2575 898.3281,713.6013 Q899.6563,711.945 902.1563,711.945 Q902.8594,711.945 903.5,712.1013 Q904.1563,712.2575 904.7188,712.5544 L904.7188,715.2731 Q904.0938,714.695 903.5,714.4294 Q902.9063,714.1481 902.2813,714.1481 Q900.9375,714.1481 900.25,715.2263 Q899.5625,716.2888 899.5625,718.3825 Q899.5625,720.4763 900.25,721.5544 Q900.9375,722.6169 902.2813,722.6169 Q902.9063,722.6169 903.5,722.3513 Q904.0938,722.07 904.7188,721.4919 L904.7188,724.2106 Z " fill="#000000"/><text fill="#000000" font-family="sans-serif" font-size="14" lengthAdjust="spacing" textLength="31" x="922.25" y="723.4167">Role</text><line style="stroke:#181818;stroke-width:0.5;" x1="849" x2="994" y1="734.57" y2="734.57"/><text fill="#000000" font-family="sans-serif" font-size="14" lengthAdjust="spacing" textLength="135" x="854" y="751.5651">&lt;primary&gt; role : str</text><line style="stroke:#181818;stroke-width:0.5;" x1="849" x2="994" y1="758.8669" y2="758.8669"/></g><!--link Organisation to Type_Organisation--><g id="link_Organisation_Type_Organisation"><path codeLine="90" d="M249.18,228.98 C228.1,253.82 202.88,283.55 184.24,305.53 " fill="none" id="Organisation-Type_Organisation" style="stroke:#181818;stroke-width:1.0;"/><text fill="#000000" font-family="sans-serif" font-size="13" lengthAdjust="spacing" textLength="7" x="236.0178" y="248.9361">*</text><text fill="#000000" font-family="sans-serif" font-size="13" lengthAdjust="spacing" textLength="8" x="180.7169" y="294.7313">1</text></g><!--link Organisation to fiche_poste--><g id="link_Organisation_fiche_poste"><path codeLine="91" d="M289.96,229.12 C290.23,259.91 290.5,300.85 290.5,337.04 C290.5,337.04 290.5,337.04 290.5,735.72 C290.5,765.76 290.5,798.75 290.5,827.75 " fill="none" id="Organisation-fiche_poste" style="stroke:#181818;stroke-width:1.0;"/><polygon fill="#000000" points="295.5045,541.4464,298.4353,532.3987,292.5574,532.404,295.5045,541.4464" style="stroke:#000000;stroke-width:1.0;"/><text fill="#000000" font-family="sans-serif" font-size="13" lengthAdjust="spacing" textLength="59" x="304.5" y="540.9469">Poss&#233;der</text><text fill="#000000" font-family="sans-serif" font-size="13" lengthAdjust="spacing" textLength="8" x="281.4622" y="249.0958">1</text><text fill="#000000" font-family="sans-serif" font-size="13" lengthAdjust="spacing" textLength="7" x="283.1883" y="816.9275">*</text></g><!--link Organisation to Etat_demande--><g id="link_Organisation_Etat_demande"><path codeLine="92" d="M334.4,228.98 C357.88,253.82 385.96,283.55 406.72,305.53 " fill="none" id="Organisation-Etat_demande" style="stroke:#181818;stroke-width:1.0;"/><text fill="#000000" font-family="sans-serif" font-size="13" lengthAdjust="spacing" textLength="7" x="333.2219" y="248.9361">*</text><text fill="#000000" font-family="sans-serif" font-size="13" lengthAdjust="spacing" textLength="8" x="392.0696" y="294.7313">1</text></g><!--link Offre_emploi to etat_offre--><g id="link_Offre_emploi_etat_offre"><path codeLine="93" d="M533.6,593.38 C550.65,628.63 572.04,672.83 586.21,702.11 " fill="none" id="Offre_emploi-etat_offre" style="stroke:#181818;stroke-width:1.0;"/><text fill="#000000" font-family="sans-serif" font-size="13" lengthAdjust="spacing" textLength="7" x="529.3288" y="612.912">*</text><text fill="#000000" font-family="sans-serif" font-size="13" lengthAdjust="spacing" textLength="8" x="574.5328" y="691.5439">1</text></g><!--link fiche_poste to statut_poste--><g id="link_fiche_poste_statut_poste"><path codeLine="94" d="M359.07,990.17 C384.66,1020.11 412.22,1052.37 431.82,1075.31 " fill="none" id="fiche_poste-statut_poste" style="stroke:#181818;stroke-width:1.0;"/><text fill="#000000" font-family="sans-serif" font-size="13" lengthAdjust="spacing" textLength="7" x="357.662" y="1009.8714">*</text><text fill="#000000" font-family="sans-serif" font-size="13" lengthAdjust="spacing" textLength="8" x="417.4923" y="1064.1966">1</text></g><!--link fiche_poste to type_metier--><g id="link_fiche_poste_type_metier"><path codeLine="95" d="M281.11,990.17 C277.61,1020.11 273.84,1052.37 271.15,1075.31 " fill="none" id="fiche_poste-type_metier" style="stroke:#181818;stroke-width:1.0;"/><text fill="#000000" font-family="sans-serif" font-size="13" lengthAdjust="spacing" textLength="7" x="273.0023" y="1009.8714">*</text><text fill="#000000" font-family="sans-serif" font-size="13" lengthAdjust="spacing" textLength="8" x="263.0778" y="1064.1966">1</text></g><!--link fiche_poste to adresse--><g id="link_fiche_poste_adresse"><path codeLine="96" d="M200.7,990.17 C178.01,1010.45 154.13,1031.79 133.1,1050.58 " fill="none" id="fiche_poste-adresse" style="stroke:#181818;stroke-width:1.0;"/><text fill="#000000" font-family="sans-serif" font-size="13" lengthAdjust="spacing" textLength="7" x="185.682" y="1009.8714">*</text><text fill="#000000" font-family="sans-serif" font-size="13" lengthAdjust="spacing" textLength="8" x="132.2419" y="1039.7997">1</text></g><!--link Offre_emploi to fiche_poste--><g id="link_Offre_emploi_fiche_poste"><path codeLine="97" d="M466.53,593.26 C444.61,624.77 417.5,665.2 395.5,702.57 C371.73,742.93 347.76,789.29 328.73,827.74 " fill="none" id="Offre_emploi-fiche_poste" style="stroke:#181818;stroke-width:1.0;"/><polygon fill="#000000" points="397.9667,739.0971,405.0833,732.788,400.0157,729.8099,397.9667,739.0971" style="stroke:#000000;stroke-width:1.0;"/><text fill="#000000" font-family="sans-serif" font-size="13" lengthAdjust="spacing" textLength="99" x="409.5" y="739.2869">Correspondre &#224;</text><text fill="#000000" font-family="sans-serif" font-size="13" lengthAdjust="spacing" textLength="7" x="454.2321" y="613.1808">*</text><text fill="#000000" font-family="sans-serif" font-size="13" lengthAdjust="spacing" textLength="8" x="323.7786" y="816.9166">1</text></g><!--link Administrateur to Utilisateur--><g id="link_Administrateur_Utilisateur"><path codeLine="98" d="M939.13,362.34 C936.99,383.36 934.2977,409.7009 931.1377,440.7409 " fill="none" id="Administrateur-to-Utilisateur" style="stroke:#181818;stroke-width:1.0;"/><polygon fill="#181818" points="930.53,446.71,935.421,438.1614,931.0364,441.7357,927.4621,437.3512,930.53,446.71" style="stroke:#181818;stroke-width:1.0;"/></g><!--link Recruteur to Candidat--><g id="link_Recruteur_Candidat"><path codeLine="99" d="M473.94,55.37 C516.88,82.9 582.7685,125.1323 625.7985,152.7123 " fill="none" id="Recruteur-to-Candidat" style="stroke:#181818;stroke-width:1.0;"/><polygon fill="#181818" points="630.85,155.95,625.4313,147.7258,626.6405,153.2519,621.1143,154.4611,630.85,155.95" style="stroke:#181818;stroke-width:1.0;"/></g><!--link Candidat to Utilisateur--><g id="link_Candidat_Utilisateur"><path codeLine="100" d="M693.24,204.67 C718.89,228.57 758.52,267.6 787.5,305.9 C820.77,349.86 849.3011,397.5158 873.3311,441.4558 " fill="none" id="Candidat-to-Utilisateur" style="stroke:#181818;stroke-width:1.0;"/><polygon fill="#181818" points="876.21,446.72,875.4011,436.9044,873.8109,442.3332,868.3822,440.743,876.21,446.72" style="stroke:#181818;stroke-width:1.0;"/></g><!--link Candidature to Piece_dossier--><g id="link_Candidature_Piece_dossier"><path codeLine="101" d="M671.36,370.59 C675.52,404.63 682.15,458.89 686.66,495.78 " fill="none" id="Candidature-Piece_dossier" style="stroke:#181818;stroke-width:1.0;"/><text fill="#000000" font-family="sans-serif" font-size="13" lengthAdjust="spacing" textLength="8" x="663.3333" y="390.3025">1</text><text fill="#000000" font-family="sans-serif" font-size="13" lengthAdjust="spacing" textLength="7" x="678.2787" y="484.8918">*</text></g><!--link Candidature to Offre_emploi--><g id="link_Candidature_Offre_emploi"><path codeLine="102" d="M620.75,370.68 C609.48,379.49 597.97,389.58 588.5,400.19 C567.39,423.85 548.64,453.67 534.41,479.29 " fill="none" id="Candidature-Offre_emploi" style="stroke:#181818;stroke-width:1.0;"/><polygon fill="#000000" points="590.3886,412.6704,598.3178,407.4188,593.7166,403.7611,590.3886,412.6704" style="stroke:#000000;stroke-width:1.0;"/><text fill="#000000" font-family="sans-serif" font-size="13" lengthAdjust="spacing" textLength="63" x="602.5" y="413.2569">Porter sur</text><text fill="#000000" font-family="sans-serif" font-size="13" lengthAdjust="spacing" textLength="7" x="604.4852" y="390.1584">*</text><text fill="#000000" font-family="sans-serif" font-size="13" lengthAdjust="spacing" textLength="8" x="529.1746" y="468.8959">1</text></g><!--link Candidat to Candidature--><g id="link_Candidat_Candidature"><path codeLine="103" d="M667.5,204.74 C667.5,231.53 667.5,275.65 667.5,305.5 " fill="none" id="Candidat-Candidature" style="stroke:#181818;stroke-width:1.0;"/><polygon fill="#000000" points="672.5,272.4664,675.4389,263.4213,669.5611,263.4213,672.5,272.4664" style="stroke:#000000;stroke-width:1.0;"/><text fill="#000000" font-family="sans-serif" font-size="13" lengthAdjust="spacing" textLength="50" x="681.5" y="271.9669">Modifier</text><text fill="#000000" font-family="sans-serif" font-size="13" lengthAdjust="spacing" textLength="8" x="658.525" y="224.5719">1</text><text fill="#000000" font-family="sans-serif" font-size="13" lengthAdjust="spacing" textLength="7" x="659.8328" y="294.9453">*</text></g><!--link Recruteur to Organisation--><g id="link_Recruteur_Organisation"><path codeLine="104" d="M386.69,49.89 C352.26,62.46 312.03,78.2 306.5,85 C295.89,98.07 291.01,115.52 288.98,131.87 " fill="none" id="Recruteur-Organisation" style="stroke:#181818;stroke-width:1.0;"/><polygon fill="#000000" points="307.6696,96.7802,316.4878,93.2179,312.7099,88.715,307.6696,96.7802" style="stroke:#000000;stroke-width:1.0;"/><text fill="#000000" font-family="sans-serif" font-size="13" lengthAdjust="spacing" textLength="90" x="320.5" y="98.0669">Travailler pour</text><text fill="#000000" font-family="sans-serif" font-size="13" lengthAdjust="spacing" textLength="7" x="372.0527" y="48.568">*</text><text fill="#000000" font-family="sans-serif" font-size="13" lengthAdjust="spacing" textLength="8" x="280.3444" y="121.0606">1</text></g><!--link Organisation to adresse--><g id="link_Organisation_adresse"><path codeLine="105" d="M211.78,193.31 C133.59,210.18 24.5,249.41 24.5,337.04 C24.5,337.04 24.5,337.04 24.5,909.9 C24.5,958.29 37.87,1011.64 50.19,1050.56 " fill="none" id="Organisation-adresse" style="stroke:#181818;stroke-width:1.0;"/><polygon fill="#000000" points="28.5738,669.0499,33.1374,660.7057,27.3612,659.6169,28.5738,669.0499" style="stroke:#000000;stroke-width:1.0;"/><text fill="#000000" font-family="sans-serif" font-size="13" lengthAdjust="spacing" textLength="57" x="38.5" y="668.6369">Se situer</text><text fill="#000000" font-family="sans-serif" font-size="13" lengthAdjust="spacing" textLength="7" x="197.0387" y="190.8945">*</text><text fill="#000000" font-family="sans-serif" font-size="13" lengthAdjust="spacing" textLength="8" x="39.2272" y="1039.7772">1</text></g><!--link Recruteur to Etat_demande--><g id="link_Recruteur_Etat_demande"><path codeLine="106" d="M437.42,55.43 C437.25,109.7 436.8,244.07 436.6,305.49 " fill="none" id="Recruteur-Etat_demande" style="stroke:#181818;stroke-width:1.0;"/><text fill="#000000" font-family="sans-serif" font-size="13" lengthAdjust="spacing" textLength="7" x="429.5921" y="74.8961">*</text><text fill="#000000" font-family="sans-serif" font-size="13" lengthAdjust="spacing" textLength="8" x="427.8566" y="294.9334">1</text></g><!--link Utilisateur to Role--><g id="link_Utilisateur_Role"><path codeLine="107" d="M921.5,625.78 C921.5,653.06 921.5,681.35 921.5,702.13 " fill="none" id="Utilisateur-Role" style="stroke:#181818;stroke-width:1.0;"/><text fill="#000000" font-family="sans-serif" font-size="13" lengthAdjust="spacing" textLength="7" x="914.2211" y="645.5741">*</text><text fill="#000000" font-family="sans-serif" font-size="13" lengthAdjust="spacing" textLength="8" x="912.7375" y="691.5677">1</text></g><!--SRC=[VLJ1Jjn03BtdAwoSsaeSkA8AgK8SAb6Wi7kEXeoNjJJ9f3CE1LNzbrxx7VnOFKasSQOijyJpR3_xlPdMCqAvyNq4Xn4CSw27dYD4tp9StspWUdjrLOA9q0gqA6fdOeIRy6XQYeR9jxyAWCzTeCQ4btEufu0jd06rBF7MD_8TESYtyuz- -lbzgBDvwR0wNgmr3UOfDxjTm0gRpdc23DutSsTh6AiduyWIfnhfdwb1EQBMKZrqYpEv0MwnywonSrDamvLFdTSTKpmdU9cm5XlJMim87g9PnexgFLQTZpmco0J4lSEPNS3O2LlpuB3Q4mOJwZtzw1NWXVSDLXpCao4duPtp9gs1qU4IVV3UIJ0QPqIcgg5MGUUeULPHYx4ErALjIPJncG4Mvb5cxNcalXvrFCadvQHt8yl5i8QdWnnihCmTXxfQsQ3cVYAdrbHxEwxHk2cs5DiokUGnx8VE8WHD8DXUV_s-lSpSsecDrQyGg6INUSPWcpgWcVQZN2PTkHBFKnQV5pE9qGcxdpxOgVI7lOdxZmllBrPK8ZcPgIzdTrY7_l_mXNYCfEFRqNxqyCXyYRrf-rl2Mgw5Zt4IJCa4Wsqbdijsvrtk- -2TKbVVToW_bN1o0kLf-VzZa25F4_9aoD0tvWpAMs7u-jSAb_FoQ7bzBulLAw90oqKlT0-5q9O_Xb4sFmQPpFqMaH6GZNZXm_WAI1wy_ac3hgqXYUVQvSNiZk7a87zn-4YDrWdA8TEo1q8h4wn1opYhCGP50eiSiHyacNkgiXShxvNVlAKTZGekp7K7BQiaRCPNpKbAv_jtbPzsdRBk4QAyhU_qMTb4hKTZaiN_0G00]--></g></svg>