<svg xmlns="http://www.w3.org/2000/svg" xmlns:xlink="http://www.w3.org/1999/xlink" contentStyleType="text/css" height="1171px" preserveAspectRatio="none" style="width:1203px;height:1171px;background:#FFFFFF;" version="1.1" viewBox="0 0 1203 1171" width="1203px" zoomAndPan="magnify"><defs/><g><g id="elem_note"><path d="M235,18.44 L235,43.5728 L467,43.5728 L467,28.44 L457,18.44 L235,18.44 " fill="#FEFFDD" style="stroke:#181818;stroke-width:0.5;"/><path d="M457,18.44 L457,28.44 L467,28.44 L457,18.44 " fill="#FEFFDD" style="stroke:#181818;stroke-width:1.0;"/><text fill="#000000" font-family="sans-serif" font-size="13" lengthAdjust="spacing" textLength="211" x="241" y="35.5069">Tous les attributs sont NOT NULL</text></g><!--class Organisation--><g id="elem_Organisation"><rect codeLine="3" fill="#F1F1F1" height="96.8906" id="Organisation" rx="2.5" ry="2.5" style="stroke:#181818;stroke-width:0.5;" width="155" x="223.5" y="132"/><ellipse cx="254.7" cy="148" fill="#ADD1B2" rx="11" ry="11" style="stroke:#181818;stroke-width:1.0;"/><path d="M257.6688,153.6406 Q257.0906,153.9375 256.45,154.0781 Q255.8094,154.2344 255.1063,154.2344 Q252.6063,154.2344 251.2781,152.5938 Q249.9656,150.9375 249.9656,147.8125 Q249.9656,144.6875 251.2781,143.0313 Q252.6063,141.375 255.1063,141.375 Q255.8094,141.375 256.45,141.5313 Q257.1063,141.6875 257.6688,141.9844 L257.6688,144.7031 Q257.0438,144.125 256.45,143.8594 Q255.8563,143.5781 255.2313,143.5781 Q253.8875,143.5781 253.2,144.6563 Q252.5125,145.7188 252.5125,147.8125 Q252.5125,149.9063 253.2,150.9844 Q253.8875,152.0469 255.2313,152.0469 Q255.8563,152.0469 256.45,151.7813 Q257.0438,151.5 257.6688,150.9219 L257.6688,153.6406 Z " fill="#000000"/><text fill="#000000" font-family="sans-serif" font-size="14" lengthAdjust="spacing" textLength="87" x="272.3" y="152.8467">Organisation</text><line style="stroke:#181818;stroke-width:0.5;" x1="224.5" x2="377.5" y1="164" y2="164"/><text fill="#000000" font-family="sans-serif" font-size="14" lengthAdjust="spacing" textLength="143" x="229.5" y="180.9951">&lt;primary&gt; Siren : int</text><text fill="#000000" font-family="sans-serif" font-size="14" lengthAdjust="spacing" textLength="62" x="229.5" y="197.292">nom : str</text><text fill="#000000" font-family="sans-serif" font-size="14" lengthAdjust="spacing" textLength="61" x="229.5" y="213.5889">logo : str</text><line style="stroke:#181818;stroke-width:0.5;" x1="224.5" x2="377.5" y1="220.8906" y2="220.8906"/></g><!--class Type_Organisation--><g id="elem_Type_Organisation"><rect codeLine="9" fill="#F1F1F1" height="64.2969" id="Type_Organisation" rx="2.5" ry="2.5" style="stroke:#181818;stroke-width:0.5;" width="160" x="7" y="305.9"/><ellipse cx="22" cy="321.9" fill="#ADD1B2" rx="11" ry="11" style="stroke:#181818;stroke-width:1.0;"/><path d="M24.9688,327.5406 Q24.3906,327.8375 23.75,327.9781 Q23.1094,328.1344 22.4063,328.1344 Q19.9063,328.1344 18.5781,326.4938 Q17.2656,324.8375 17.2656,321.7125 Q17.2656,318.5875 18.5781,316.9313 Q19.9063,315.275 22.4063,315.275 Q23.1094,315.275 23.75,315.4313 Q24.4063,315.5875 24.9688,315.8844 L24.9688,318.6031 Q24.3438,318.025 23.75,317.7594 Q23.1563,317.4781 22.5313,317.4781 Q21.1875,317.4781 20.5,318.5563 Q19.8125,319.6188 19.8125,321.7125 Q19.8125,323.8063 20.5,324.8844 Q21.1875,325.9469 22.5313,325.9469 Q23.1563,325.9469 23.75,325.6813 Q24.3438,325.4 24.9688,324.8219 L24.9688,327.5406 Z " fill="#000000"/><text fill="#000000" font-family="sans-serif" font-size="14" lengthAdjust="spacing" textLength="128" x="36" y="326.7467">Type_Organisation</text><line style="stroke:#181818;stroke-width:0.5;" x1="8" x2="166" y1="337.9" y2="337.9"/><text fill="#000000" font-family="sans-serif" font-size="14" lengthAdjust="spacing" textLength="148" x="13" y="354.8951">&lt;primary&gt; name : str</text><line style="stroke:#181818;stroke-width:0.5;" x1="8" x2="166" y1="362.1969" y2="362.1969"/></g><!--class Offre_emploi--><g id="elem_Offre_emploi"><rect codeLine="13" fill="#F1F1F1" height="113.1875" id="Offre_emploi" rx="2.5" ry="2.5" style="stroke:#181818;stroke-width:0.5;" width="171" x="809.5" y="479.79"/><ellipse cx="848.35" cy="495.79" fill="#ADD1B2" rx="11" ry="11" style="stroke:#181818;stroke-width:1.0;"/><path d="M851.3188,501.4306 Q850.7406,501.7275 850.1,501.8681 Q849.4594,502.0244 848.7563,502.0244 Q846.2563,502.0244 844.9281,500.3838 Q843.6156,498.7275 843.6156,495.6025 Q843.6156,492.4775 844.9281,490.8213 Q846.2563,489.165 848.7563,489.165 Q849.4594,489.165 850.1,489.3213 Q850.7563,489.4775 851.3188,489.7744 L851.3188,492.4931 Q850.6938,491.915 850.1,491.6494 Q849.5063,491.3681 848.8813,491.3681 Q847.5375,491.3681 846.85,492.4463 Q846.1625,493.5088 846.1625,495.6025 Q846.1625,497.6963 846.85,498.7744 Q847.5375,499.8369 848.8813,499.8369 Q849.5063,499.8369 850.1,499.5713 Q850.6938,499.29 851.3188,498.7119 L851.3188,501.4306 Z " fill="#000000"/><text fill="#000000" font-family="sans-serif" font-size="14" lengthAdjust="spacing" textLength="86" x="867.65" y="500.6367">Offre_emploi</text><line style="stroke:#181818;stroke-width:0.5;" x1="810.5" x2="979.5" y1="511.79" y2="511.79"/><text fill="#000000" font-family="sans-serif" font-size="14" lengthAdjust="spacing" textLength="139" x="815.5" y="528.7851">&lt;primary&gt; num : int</text><text fill="#000000" font-family="sans-serif" font-size="14" lengthAdjust="spacing" textLength="159" x="815.5" y="545.082">date_validite : datetime</text><text fill="#000000" font-family="sans-serif" font-size="14" lengthAdjust="spacing" textLength="105" x="815.5" y="561.3789">indications : str</text><text fill="#000000" font-family="sans-serif" font-size="14" lengthAdjust="spacing" textLength="153" x="815.5" y="577.6757">date_depot : datetime</text><line style="stroke:#181818;stroke-width:0.5;" x1="810.5" x2="979.5" y1="584.9775" y2="584.9775"/></g><!--class etat_offre--><g id="elem_etat_offre"><rect codeLine="20" fill="#F1F1F1" height="64.2969" id="etat_offre" rx="2.5" ry="2.5" style="stroke:#181818;stroke-width:0.5;" width="148" x="830" y="702.57"/><ellipse cx="867.95" cy="718.57" fill="#ADD1B2" rx="11" ry="11" style="stroke:#181818;stroke-width:1.0;"/><path d="M870.9188,724.2106 Q870.3406,724.5075 869.7,724.6481 Q869.0594,724.8044 868.3563,724.8044 Q865.8563,724.8044 864.5281,723.1638 Q863.2156,721.5075 863.2156,718.3825 Q863.2156,715.2575 864.5281,713.6013 Q865.8563,711.945 868.3563,711.945 Q869.0594,711.945 869.7,712.1013 Q870.3563,712.2575 870.9188,712.5544 L870.9188,715.2731 Q870.2938,714.695 869.7,714.4294 Q869.1063,714.1481 868.4813,714.1481 Q867.1375,714.1481 866.45,715.2263 Q865.7625,716.2888 865.7625,718.3825 Q865.7625,720.4763 866.45,721.5544 Q867.1375,722.6169 868.4813,722.6169 Q869.1063,722.6169 869.7,722.3513 Q870.2938,722.07 870.9188,721.4919 L870.9188,724.2106 Z " fill="#000000"/><text fill="#000000" font-family="sans-serif" font-size="14" lengthAdjust="spacing" textLength="65" x="887.05" y="723.4167">etat_offre</text><line style="stroke:#181818;stroke-width:0.5;" x1="831" x2="977" y1="734.57" y2="734.57"/><text fill="#000000" font-family="sans-serif" font-size="14" lengthAdjust="spacing" textLength="136" x="836" y="751.5651">&lt;primary&gt; etat : str</text><line style="stroke:#181818;stroke-width:0.5;" x1="831" x2="977" y1="758.8669" y2="758.8669"/></g><!--class Etat_demande--><g id="elem_Etat_demande"><rect codeLine="24" fill="#F1F1F1" height="64.2969" id="Etat_demande" rx="2.5" ry="2.5" style="stroke:#181818;stroke-width:0.5;" width="187" x="353.5" y="305.9"/><ellipse cx="393.25" cy="321.9" fill="#ADD1B2" rx="11" ry="11" style="stroke:#181818;stroke-width:1.0;"/><path d="M396.2188,327.5406 Q395.6406,327.8375 395,327.9781 Q394.3594,328.1344 393.6563,328.1344 Q391.1563,328.1344 389.8281,326.4938 Q388.5156,324.8375 388.5156,321.7125 Q388.5156,318.5875 389.8281,316.9313 Q391.1563,315.275 393.6563,315.275 Q394.3594,315.275 395,315.4313 Q395.6563,315.5875 396.2188,315.8844 L396.2188,318.6031 Q395.5938,318.025 395,317.7594 Q394.4063,317.4781 393.7813,317.4781 Q392.4375,317.4781 391.75,318.5563 Q391.0625,319.6188 391.0625,321.7125 Q391.0625,323.8063 391.75,324.8844 Q392.4375,325.9469 393.7813,325.9469 Q394.4063,325.9469 395,325.6813 Q395.5938,325.4 396.2188,324.8219 L396.2188,327.5406 Z " fill="#000000"/><text fill="#000000" font-family="sans-serif" font-size="14" lengthAdjust="spacing" textLength="100" x="412.75" y="326.7467">Etat_demande</text><line style="stroke:#181818;stroke-width:0.5;" x1="354.5" x2="539.5" y1="337.9" y2="337.9"/><text fill="#000000" font-family="sans-serif" font-size="14" lengthAdjust="spacing" textLength="175" x="359.5" y="354.8951">&lt;primary&gt; demande : str</text><line style="stroke:#181818;stroke-width:0.5;" x1="354.5" x2="539.5" y1="362.1969" y2="362.1969"/></g><!--class fiche_poste--><g id="elem_fiche_poste"><rect codeLine="28" fill="#F1F1F1" height="162.0781" id="fiche_poste" rx="2.5" ry="2.5" style="stroke:#181818;stroke-width:0.5;" width="222" x="481" y="827.86"/><ellipse cx="547.75" cy="843.86" fill="#ADD1B2" rx="11" ry="11" style="stroke:#181818;stroke-width:1.0;"/><path d="M550.7188,849.5006 Q550.1406,849.7975 549.5,849.9381 Q548.8594,850.0944 548.1563,850.0944 Q545.6563,850.0944 544.3281,848.4538 Q543.0156,846.7975 543.0156,843.6725 Q543.0156,840.5475 544.3281,838.8913 Q545.6563,837.235 548.1563,837.235 Q548.8594,837.235 549.5,837.3913 Q550.1563,837.5475 550.7188,837.8444 L550.7188,840.5631 Q550.0938,839.985 549.5,839.7194 Q548.9063,839.4381 548.2813,839.4381 Q546.9375,839.4381 546.25,840.5163 Q545.5625,841.5788 545.5625,843.6725 Q545.5625,845.7663 546.25,846.8444 Q546.9375,847.9069 548.2813,847.9069 Q548.9063,847.9069 549.5,847.6413 Q550.0938,847.36 550.7188,846.7819 L550.7188,849.5006 Z " fill="#000000"/><text fill="#000000" font-family="sans-serif" font-size="14" lengthAdjust="spacing" textLength="80" x="568.25" y="848.7067">fiche_poste</text><line style="stroke:#181818;stroke-width:0.5;" x1="482" x2="702" y1="859.86" y2="859.86"/><text fill="#000000" font-family="sans-serif" font-size="14" lengthAdjust="spacing" textLength="77" x="487" y="876.8551">intitule : str</text><text fill="#000000" font-family="sans-serif" font-size="14" lengthAdjust="spacing" textLength="210" x="487" y="893.152">responsable_hierarchique : str</text><text fill="#000000" font-family="sans-serif" font-size="14" lengthAdjust="spacing" textLength="136" x="487" y="909.4489">rythme_travail : float</text><text fill="#000000" font-family="sans-serif" font-size="14" lengthAdjust="spacing" textLength="108" x="487" y="925.7457">teletravail : bool</text><text fill="#000000" font-family="sans-serif" font-size="14" lengthAdjust="spacing" textLength="118" x="487" y="942.0426">salaire_min : float</text><text fill="#000000" font-family="sans-serif" font-size="14" lengthAdjust="spacing" textLength="121" x="487" y="958.3395">salaire_max : float</text><text fill="#000000" font-family="sans-serif" font-size="14" lengthAdjust="spacing" textLength="116" x="487" y="974.6364">description : text</text><line style="stroke:#181818;stroke-width:0.5;" x1="482" x2="702" y1="981.9381" y2="981.9381"/></g><!--class statut_poste--><g id="elem_statut_poste"><rect codeLine="38" fill="#F1F1F1" height="64.2969" id="statut_poste" rx="2.5" ry="2.5" style="stroke:#181818;stroke-width:0.5;" width="161" x="330.5" y="1075.39"/><ellipse cx="364.4" cy="1091.39" fill="#ADD1B2" rx="11" ry="11" style="stroke:#181818;stroke-width:1.0;"/><path d="M367.3688,1097.0306 Q366.7906,1097.3275 366.15,1097.4681 Q365.5094,1097.6244 364.8063,1097.6244 Q362.3063,1097.6244 360.9781,1095.9838 Q359.6656,1094.3275 359.6656,1091.2025 Q359.6656,1088.0775 360.9781,1086.4213 Q362.3063,1084.765 364.8063,1084.765 Q365.5094,1084.765 366.15,1084.9213 Q366.8063,1085.0775 367.3688,1085.3744 L367.3688,1088.0931 Q366.7438,1087.515 366.15,1087.2494 Q365.5563,1086.9681 364.9313,1086.9681 Q363.5875,1086.9681 362.9,1088.0463 Q362.2125,1089.1088 362.2125,1091.2025 Q362.2125,1093.2963 362.9,1094.3744 Q363.5875,1095.4369 364.9313,1095.4369 Q365.5563,1095.4369 366.15,1095.1713 Q366.7438,1094.89 367.3688,1094.3119 L367.3688,1097.0306 Z " fill="#000000"/><text fill="#000000" font-family="sans-serif" font-size="14" lengthAdjust="spacing" textLength="87" x="382.6" y="1096.2367">statut_poste</text><line style="stroke:#181818;stroke-width:0.5;" x1="331.5" x2="490.5" y1="1107.39" y2="1107.39"/><text fill="#000000" font-family="sans-serif" font-size="14" lengthAdjust="spacing" textLength="149" x="336.5" y="1124.3851">&lt;primary&gt; statut : str</text><line style="stroke:#181818;stroke-width:0.5;" x1="331.5" x2="490.5" y1="1131.6869" y2="1131.6869"/></g><!--class type_metier--><g id="elem_type_metier"><rect codeLine="42" fill="#F1F1F1" height="64.2969" id="type_metier" rx="2.5" ry="2.5" style="stroke:#181818;stroke-width:0.5;" width="151" x="526.5" y="1075.39"/><ellipse cx="558.6" cy="1091.39" fill="#ADD1B2" rx="11" ry="11" style="stroke:#181818;stroke-width:1.0;"/><path d="M561.5688,1097.0306 Q560.9906,1097.3275 560.35,1097.4681 Q559.7094,1097.6244 559.0063,1097.6244 Q556.5063,1097.6244 555.1781,1095.9838 Q553.8656,1094.3275 553.8656,1091.2025 Q553.8656,1088.0775 555.1781,1086.4213 Q556.5063,1084.765 559.0063,1084.765 Q559.7094,1084.765 560.35,1084.9213 Q561.0063,1085.0775 561.5688,1085.3744 L561.5688,1088.0931 Q560.9438,1087.515 560.35,1087.2494 Q559.7563,1086.9681 559.1313,1086.9681 Q557.7875,1086.9681 557.1,1088.0463 Q556.4125,1089.1088 556.4125,1091.2025 Q556.4125,1093.2963 557.1,1094.3744 Q557.7875,1095.4369 559.1313,1095.4369 Q559.7563,1095.4369 560.35,1095.1713 Q560.9438,1094.89 561.5688,1094.3119 L561.5688,1097.0306 Z " fill="#000000"/><text fill="#000000" font-family="sans-serif" font-size="14" lengthAdjust="spacing" textLength="81" x="576.4" y="1096.2367">type_metier</text><line style="stroke:#181818;stroke-width:0.5;" x1="527.5" x2="676.5" y1="1107.39" y2="1107.39"/><text fill="#000000" font-family="sans-serif" font-size="14" lengthAdjust="spacing" textLength="139" x="532.5" y="1124.3851">&lt;primary&gt; type : str</text><line style="stroke:#181818;stroke-width:0.5;" x1="527.5" x2="676.5" y1="1131.6869" y2="1131.6869"/></g><!--class adresse--><g id="elem_adresse"><rect codeLine="46" fill="#F1F1F1" height="113.1875" id="adresse" rx="2.5" ry="2.5" style="stroke:#181818;stroke-width:0.5;" width="127" x="164.5" y="1050.94"/><ellipse cx="197.05" cy="1066.94" fill="#ADD1B2" rx="11" ry="11" style="stroke:#181818;stroke-width:1.0;"/><path d="M200.0188,1072.5806 Q199.4406,1072.8775 198.8,1073.0181 Q198.1594,1073.1744 197.4563,1073.1744 Q194.9563,1073.1744 193.6281,1071.5338 Q192.3156,1069.8775 192.3156,1066.7525 Q192.3156,1063.6275 193.6281,1061.9713 Q194.9563,1060.315 197.4563,1060.315 Q198.1594,1060.315 198.8,1060.4713 Q199.4563,1060.6275 200.0188,1060.9244 L200.0188,1063.6431 Q199.3938,1063.065 198.8,1062.7994 Q198.2063,1062.5181 197.5813,1062.5181 Q196.2375,1062.5181 195.55,1063.5963 Q194.8625,1064.6588 194.8625,1066.7525 Q194.8625,1068.8463 195.55,1069.9244 Q196.2375,1070.9869 197.5813,1070.9869 Q198.2063,1070.9869 198.8,1070.7213 Q199.3938,1070.44 200.0188,1069.8619 L200.0188,1072.5806 Z " fill="#000000"/><text fill="#000000" font-family="sans-serif" font-size="14" lengthAdjust="spacing" textLength="56" x="214.95" y="1071.7867">adresse</text><line style="stroke:#181818;stroke-width:0.5;" x1="165.5" x2="290.5" y1="1082.94" y2="1082.94"/><text fill="#000000" font-family="sans-serif" font-size="14" lengthAdjust="spacing" textLength="61" x="170.5" y="1099.9351">num : int</text><text fill="#000000" font-family="sans-serif" font-size="14" lengthAdjust="spacing" textLength="54" x="170.5" y="1116.232">rue : str</text><text fill="#000000" font-family="sans-serif" font-size="14" lengthAdjust="spacing" textLength="56" x="170.5" y="1132.5289">ville : str</text><text fill="#000000" font-family="sans-serif" font-size="14" lengthAdjust="spacing" textLength="115" x="170.5" y="1148.8257">code_postal : str</text><line style="stroke:#181818;stroke-width:0.5;" x1="165.5" x2="290.5" y1="1156.1275" y2="1156.1275"/></g><!--class Utilisateur--><g id="elem_Utilisateur"><rect codeLine="54" fill="#F1F1F1" height="178.375" id="Utilisateur" rx="2.5" ry="2.5" style="stroke:#181818;stroke-width:0.5;" width="180" x="1016" y="447.19"/><ellipse cx="1067.75" cy="463.19" fill="#ADD1B2" rx="11" ry="11" style="stroke:#181818;stroke-width:1.0;"/><path d="M1070.7188,468.8306 Q1070.1406,469.1275 1069.5,469.2681 Q1068.8594,469.4244 1068.1563,469.4244 Q1065.6563,469.4244 1064.3281,467.7838 Q1063.0156,466.1275 1063.0156,463.0025 Q1063.0156,459.8775 1064.3281,458.2213 Q1065.6563,456.565 1068.1563,456.565 Q1068.8594,456.565 1069.5,456.7213 Q1070.1563,456.8775 1070.7188,457.1744 L1070.7188,459.8931 Q1070.0938,459.315 1069.5,459.0494 Q1068.9063,458.7681 1068.2813,458.7681 Q1066.9375,458.7681 1066.25,459.8463 Q1065.5625,460.9088 1065.5625,463.0025 Q1065.5625,465.0963 1066.25,466.1744 Q1066.9375,467.2369 1068.2813,467.2369 Q1068.9063,467.2369 1069.5,466.9713 Q1070.0938,466.69 1070.7188,466.1119 L1070.7188,468.8306 Z " fill="#000000"/><text fill="#000000" font-family="sans-serif" font-size="14" lengthAdjust="spacing" textLength="68" x="1088.25" y="468.0367">Utilisateur</text><line style="stroke:#181818;stroke-width:0.5;" x1="1017" x2="1195" y1="479.19" y2="479.19"/><text fill="#000000" font-family="sans-serif" font-size="14" lengthAdjust="spacing" textLength="124" x="1022" y="496.1851">email : str UNIQUE</text><text fill="#000000" font-family="sans-serif" font-size="14" lengthAdjust="spacing" textLength="62" x="1022" y="512.482">nom : str</text><text fill="#000000" font-family="sans-serif" font-size="14" lengthAdjust="spacing" textLength="85" x="1022" y="528.7789">prenom : str</text><text fill="#000000" font-family="sans-serif" font-size="14" lengthAdjust="spacing" textLength="143" x="1022" y="545.0757">num_tel : str UNIQUE</text><text fill="#000000" font-family="sans-serif" font-size="14" lengthAdjust="spacing" textLength="168" x="1022" y="561.3726">date_creation : datetime</text><text fill="#000000" font-family="sans-serif" font-size="14" lengthAdjust="spacing" textLength="138" x="1022" y="577.6695">last_login : datetime</text><text fill="#000000" font-family="sans-serif" font-size="14" lengthAdjust="spacing" textLength="83" x="1022" y="593.9664">statut : bool</text><line style="stroke:#181818;stroke-width:0.5;" x1="1017" x2="1195" y1="601.2681" y2="601.2681"/><text fill="#000000" font-family="sans-serif" font-size="14" lengthAdjust="spacing" textLength="146" x="1022" y="618.2632">password : str (hash)</text></g><!--class Administrateur--><g id="elem_Administrateur"><rect codeLine="65" fill="#F1F1F1" height="48" id="Administrateur" rx="2.5" ry="2.5" style="stroke:#181818;stroke-width:0.5;" width="132" x="904" y="314.04"/><ellipse cx="919" cy="330.04" fill="#ADD1B2" rx="11" ry="11" style="stroke:#181818;stroke-width:1.0;"/><path d="M921.9688,335.6806 Q921.3906,335.9775 920.75,336.1181 Q920.1094,336.2744 919.4063,336.2744 Q916.9063,336.2744 915.5781,334.6338 Q914.2656,332.9775 914.2656,329.8525 Q914.2656,326.7275 915.5781,325.0713 Q916.9063,323.415 919.4063,323.415 Q920.1094,323.415 920.75,323.5713 Q921.4063,323.7275 921.9688,324.0244 L921.9688,326.7431 Q921.3438,326.165 920.75,325.8994 Q920.1563,325.6181 919.5313,325.6181 Q918.1875,325.6181 917.5,326.6963 Q916.8125,327.7588 916.8125,329.8525 Q916.8125,331.9463 917.5,333.0244 Q918.1875,334.0869 919.5313,334.0869 Q920.1563,334.0869 920.75,333.8213 Q921.3438,333.54 921.9688,332.9619 L921.9688,335.6806 Z " fill="#000000"/><text fill="#000000" font-family="sans-serif" font-size="14" lengthAdjust="spacing" textLength="100" x="933" y="334.8867">Administrateur</text><line style="stroke:#181818;stroke-width:0.5;" x1="905" x2="1035" y1="346.04" y2="346.04"/><line style="stroke:#181818;stroke-width:0.5;" x1="905" x2="1035" y1="354.04" y2="354.04"/></g><!--class Recruteur--><g id="elem_Recruteur"><rect codeLine="69" fill="#F1F1F1" height="48" id="Recruteur" rx="2.5" ry="2.5" style="stroke:#181818;stroke-width:0.5;" width="101" x="502.5" y="7"/><ellipse cx="517.5" cy="23" fill="#ADD1B2" rx="11" ry="11" style="stroke:#181818;stroke-width:1.0;"/><path d="M520.4688,28.6406 Q519.8906,28.9375 519.25,29.0781 Q518.6094,29.2344 517.9063,29.2344 Q515.4063,29.2344 514.0781,27.5938 Q512.7656,25.9375 512.7656,22.8125 Q512.7656,19.6875 514.0781,18.0313 Q515.4063,16.375 517.9063,16.375 Q518.6094,16.375 519.25,16.5313 Q519.9063,16.6875 520.4688,16.9844 L520.4688,19.7031 Q519.8438,19.125 519.25,18.8594 Q518.6563,18.5781 518.0313,18.5781 Q516.6875,18.5781 516,19.6563 Q515.3125,20.7188 515.3125,22.8125 Q515.3125,24.9063 516,25.9844 Q516.6875,27.0469 518.0313,27.0469 Q518.6563,27.0469 519.25,26.7813 Q519.8438,26.5 520.4688,25.9219 L520.4688,28.6406 Z " fill="#000000"/><text fill="#000000" font-family="sans-serif" font-size="14" lengthAdjust="spacing" textLength="69" x="531.5" y="27.8467">Recruteur</text><line style="stroke:#181818;stroke-width:0.5;" x1="503.5" x2="602.5" y1="39" y2="39"/><line style="stroke:#181818;stroke-width:0.5;" x1="503.5" x2="602.5" y1="47" y2="47"/></g><!--class Candidat--><g id="elem_Candidat"><rect codeLine="73" fill="#F1F1F1" height="48" id="Candidat" rx="2.5" ry="2.5" style="stroke:#181818;stroke-width:0.5;" width="93" x="711.5" y="156.45"/><ellipse cx="726.5" cy="172.45" fill="#ADD1B2" rx="11" ry="11" style="stroke:#181818;stroke-width:1.0;"/><path d="M729.4688,178.0906 Q728.8906,178.3875 728.25,178.5281 Q727.6094,178.6844 726.9063,178.6844 Q724.4063,178.6844 723.0781,177.0438 Q721.7656,175.3875 721.7656,172.2625 Q721.7656,169.1375 723.0781,167.4813 Q724.4063,165.825 726.9063,165.825 Q727.6094,165.825 728.25,165.9813 Q728.9063,166.1375 729.4688,166.4344 L729.4688,169.1531 Q728.8438,168.575 728.25,168.3094 Q727.6563,168.0281 727.0313,168.0281 Q725.6875,168.0281 725,169.1063 Q724.3125,170.1688 724.3125,172.2625 Q724.3125,174.3563 725,175.4344 Q725.6875,176.4969 727.0313,176.4969 Q727.6563,176.4969 728.25,176.2313 Q728.8438,175.95 729.4688,175.3719 L729.4688,178.0906 Z " fill="#000000"/><text fill="#000000" font-family="sans-serif" font-size="14" lengthAdjust="spacing" textLength="61" x="740.5" y="177.2967">Candidat</text><line style="stroke:#181818;stroke-width:0.5;" x1="712.5" x2="803.5" y1="188.45" y2="188.45"/><line style="stroke:#181818;stroke-width:0.5;" x1="712.5" x2="803.5" y1="196.45" y2="196.45"/></g><!--class Candidature--><g id="elem_Candidature"><rect codeLine="77" fill="#F1F1F1" height="64.2969" id="Candidature" rx="2.5" ry="2.5" style="stroke:#181818;stroke-width:0.5;" width="206" x="655" y="305.9"/><ellipse cx="711.75" cy="321.9" fill="#ADD1B2" rx="11" ry="11" style="stroke:#181818;stroke-width:1.0;"/><path d="M714.7188,327.5406 Q714.1406,327.8375 713.5,327.9781 Q712.8594,328.1344 712.1563,328.1344 Q709.6563,328.1344 708.3281,326.4938 Q707.0156,324.8375 707.0156,321.7125 Q707.0156,318.5875 708.3281,316.9313 Q709.6563,315.275 712.1563,315.275 Q712.8594,315.275 713.5,315.4313 Q714.1563,315.5875 714.7188,315.8844 L714.7188,318.6031 Q714.0938,318.025 713.5,317.7594 Q712.9063,317.4781 712.2813,317.4781 Q710.9375,317.4781 710.25,318.5563 Q709.5625,319.6188 709.5625,321.7125 Q709.5625,323.8063 710.25,324.8844 Q710.9375,325.9469 712.2813,325.9469 Q712.9063,325.9469 713.5,325.6813 Q714.0938,325.4 714.7188,324.8219 L714.7188,327.5406 Z " fill="#000000"/><text fill="#000000" font-family="sans-serif" font-size="14" lengthAdjust="spacing" textLength="84" x="732.25" y="326.7467">Candidature</text><line style="stroke:#181818;stroke-width:0.5;" x1="656" x2="860" y1="337.9" y2="337.9"/><text fill="#000000" font-family="sans-serif" font-size="14" lengthAdjust="spacing" textLength="194" x="661" y="354.8951">date_candidature : datetime</text><line style="stroke:#181818;stroke-width:0.5;" x1="656" x2="860" y1="362.1969" y2="362.1969"/></g><!--class Piece_dossier--><g id="elem_Piece_dossier"><rect codeLine="81" fill="#F1F1F1" height="80.5938" id="Piece_dossier" rx="2.5" ry="2.5" style="stroke:#181818;stroke-width:0.5;" width="128" x="646" y="496.08"/><ellipse cx="661" cy="512.08" fill="#ADD1B2" rx="11" ry="11" style="stroke:#181818;stroke-width:1.0;"/><path d="M663.9688,517.7206 Q663.3906,518.0175 662.75,518.1581 Q662.1094,518.3144 661.4063,518.3144 Q658.9063,518.3144 657.5781,516.6738 Q656.2656,515.0175 656.2656,511.8925 Q656.2656,508.7675 657.5781,507.1113 Q658.9063,505.455 661.4063,505.455 Q662.1094,505.455 662.75,505.6113 Q663.4063,505.7675 663.9688,506.0644 L663.9688,508.7831 Q663.3438,508.205 662.75,507.9394 Q662.1563,507.6581 661.5313,507.6581 Q660.1875,507.6581 659.5,508.7363 Q658.8125,509.7988 658.8125,511.8925 Q658.8125,513.9863 659.5,515.0644 Q660.1875,516.1269 661.5313,516.1269 Q662.1563,516.1269 662.75,515.8613 Q663.3438,515.58 663.9688,515.0019 L663.9688,517.7206 Z " fill="#000000"/><text fill="#000000" font-family="sans-serif" font-size="14" lengthAdjust="spacing" textLength="96" x="675" y="516.9267">Piece_dossier</text><line style="stroke:#181818;stroke-width:0.5;" x1="647" x2="773" y1="528.08" y2="528.08"/><text fill="#000000" font-family="sans-serif" font-size="14" lengthAdjust="spacing" textLength="61" x="652" y="545.0751">type : str</text><text fill="#000000" font-family="sans-serif" font-size="14" lengthAdjust="spacing" textLength="72" x="652" y="561.372">fichier : str</text><line style="stroke:#181818;stroke-width:0.5;" x1="647" x2="773" y1="568.6738" y2="568.6738"/></g><!--class Role--><g id="elem_Role"><rect codeLine="86" fill="#F1F1F1" height="64.2969" id="Role" rx="2.5" ry="2.5" style="stroke:#181818;stroke-width:0.5;" width="147" x="1032.5" y="702.57"/><ellipse cx="1086.25" cy="718.57" fill="#ADD1B2" rx="11" ry="11" style="stroke:#181818;stroke-width:1.0;"/><path d="M1089.2188,724.2106 Q1088.6406,724.5075 1088,724.6481 Q1087.3594,724.8044 1086.6563,724.8044 Q1084.1563,724.8044 1082.8281,723.1638 Q1081.5156,721.5075 1081.5156,718.3825 Q1081.5156,715.2575 1082.8281,713.6013 Q1084.1563,711.945 1086.6563,711.945 Q1087.3594,711.945 1088,712.1013 Q1088.6563,712.2575 1089.2188,712.5544 L1089.2188,715.2731 Q1088.5938,714.695 1088,714.4294 Q1087.4063,714.1481 1086.7813,714.1481 Q1085.4375,714.1481 1084.75,715.2263 Q1084.0625,716.2888 1084.0625,718.3825 Q1084.0625,720.4763 1084.75,721.5544 Q1085.4375,722.6169 1086.7813,722.6169 Q1087.4063,722.6169 1088,722.3513 Q1088.5938,722.07 1089.2188,721.4919 L1089.2188,724.2106 Z " fill="#000000"/><text fill="#000000" font-family="sans-serif" font-size="14" lengthAdjust="spacing" textLength="31" x="1106.75" y="723.4167">Role</text><line style="stroke:#181818;stroke-width:0.5;" x1="1033.5" x2="1178.5" y1="734.57" y2="734.57"/><text fill="#000000" font-family="sans-serif" font-size="14" lengthAdjust="spacing" textLength="135" x="1038.5" y="751.5651">&lt;primary&gt; role : str</text><line style="stroke:#181818;stroke-width:0.5;" x1="1033.5" x2="1178.5" y1="758.8669" y2="758.8669"/></g><!--link Organisation to Type_Organisation--><g id="link_Organisation_Type_Organisation"><path codeLine="90" d="M234.76,229.33 C221.26,239.1 207.17,249.32 194,258.9 C172.98,274.18 149.66,291.2 130.18,305.44 " fill="none" id="Organisation-Type_Organisation" style="stroke:#181818;stroke-width:1.0;"/><text fill="#000000" font-family="sans-serif" font-size="13" lengthAdjust="spacing" textLength="7" x="218.3887" y="248.9825">*</text><text fill="#000000" font-family="sans-serif" font-size="13" lengthAdjust="spacing" textLength="8" x="129.6487" y="294.8739">1</text></g><!--link Organisation to fiche_poste--><g id="link_Organisation_fiche_poste"><path codeLine="91" d="M306.35,229.23 C311.52,267.9 320.82,323.44 336,370.19 C391.06,539.83 488.15,725 545.63,827.75 " fill="none" id="Organisation-fiche_poste" style="stroke:#181818;stroke-width:1.0;"/><polygon fill="#000000" points="446.8561,541.0891,446.2273,531.5994,440.7695,533.7813,446.8561,541.0891" style="stroke:#000000;stroke-width:1.0;"/><text fill="#000000" font-family="sans-serif" font-size="13" lengthAdjust="spacing" textLength="59" x="454" y="540.9469">Poss&#233;der</text><text fill="#000000" font-family="sans-serif" font-size="13" lengthAdjust="spacing" textLength="8" x="298.5314" y="248.8691">1</text><text fill="#000000" font-family="sans-serif" font-size="13" lengthAdjust="spacing" textLength="7" x="534.1885" y="816.9275">*</text></g><!--link Organisation to Etat_demande--><g id="link_Organisation_Etat_demande"><path codeLine="92" d="M345.6,228.98 C368.91,253.82 396.8,283.55 417.43,305.53 " fill="none" id="Organisation-Etat_demande" style="stroke:#181818;stroke-width:1.0;"/><text fill="#000000" font-family="sans-serif" font-size="13" lengthAdjust="spacing" textLength="7" x="344.3797" y="248.9361">*</text><text fill="#000000" font-family="sans-serif" font-size="13" lengthAdjust="spacing" textLength="8" x="402.8209" y="294.7313">1</text></g><!--link Offre_emploi to etat_offre--><g id="link_Offre_emploi_etat_offre"><path codeLine="93" d="M897.57,593.38 C899.18,628.63 901.21,672.83 902.55,702.11 " fill="none" id="Offre_emploi-etat_offre" style="stroke:#181818;stroke-width:1.0;"/><text fill="#000000" font-family="sans-serif" font-size="13" lengthAdjust="spacing" textLength="7" x="890.4625" y="612.912">*</text><text fill="#000000" font-family="sans-serif" font-size="13" lengthAdjust="spacing" textLength="8" x="893.5111" y="691.5439">1</text></g><!--link fiche_poste to statut_poste--><g id="link_fiche_poste_statut_poste"><path codeLine="94" d="M518.12,990.17 C490.55,1020.11 460.86,1052.37 439.74,1075.31 " fill="none" id="fiche_poste-statut_poste" style="stroke:#181818;stroke-width:1.0;"/><text fill="#000000" font-family="sans-serif" font-size="13" lengthAdjust="spacing" textLength="7" x="504.4702" y="1009.8714">*</text><text fill="#000000" font-family="sans-serif" font-size="13" lengthAdjust="spacing" textLength="8" x="436.8426" y="1064.1966">1</text></g><!--link fiche_poste to type_metier--><g id="link_fiche_poste_type_metier"><path codeLine="95" d="M596.08,990.17 C597.6,1020.11 599.25,1052.37 600.41,1075.31 " fill="none" id="fiche_poste-type_metier" style="stroke:#181818;stroke-width:1.0;"/><text fill="#000000" font-family="sans-serif" font-size="13" lengthAdjust="spacing" textLength="7" x="589.1298" y="1009.8714">*</text><text fill="#000000" font-family="sans-serif" font-size="13" lengthAdjust="spacing" textLength="8" x="591.2571" y="1064.1966">1</text></g><!--link fiche_poste to adresse--><g id="link_fiche_poste_adresse"><path codeLine="96" d="M480.51,962.73 C428.84,988.1 367.05,1019.73 313,1050.94 C305.98,1055 298.73,1059.39 291.57,1063.87 " fill="none" id="fiche_poste-adresse" style="stroke:#181818;stroke-width:1.0;"/><text fill="#000000" font-family="sans-serif" font-size="13" lengthAdjust="spacing" textLength="7" x="466.1435" y="962.7692">*</text><text fill="#000000" font-family="sans-serif" font-size="13" lengthAdjust="spacing" textLength="8" x="299.3828" y="1055.0288">1</text></g><!--link Offre_emploi to fiche_poste--><g id="link_Offre_emploi_fiche_poste"><path codeLine="97" d="M830.07,593.34 C817.48,604.09 804.36,615.21 792,625.57 C750.6,660.24 731.98,660.59 698,702.57 C667.58,740.14 642.32,787.84 624.09,827.8 " fill="none" id="Offre_emploi-fiche_poste" style="stroke:#181818;stroke-width:1.0;"/><polygon fill="#000000" points="699.7,738.5427,707.8777,733.6872,703.4619,729.8078,699.7,738.5427" style="stroke:#000000;stroke-width:1.0;"/><text fill="#000000" font-family="sans-serif" font-size="13" lengthAdjust="spacing" textLength="99" x="712" y="739.2869">Correspondre &#224;</text><text fill="#000000" font-family="sans-serif" font-size="13" lengthAdjust="spacing" textLength="7" x="815.1578" y="612.8673">*</text><text fill="#000000" font-family="sans-serif" font-size="13" lengthAdjust="spacing" textLength="8" x="618.6795" y="816.7053">1</text></g><!--link Administrateur to Utilisateur--><g id="link_Administrateur_Utilisateur"><path codeLine="98" d="M986.14,362.34 C1000.7,383.36 1019.6636,410.7376 1041.1636,441.7776 " fill="none" id="Administrateur-to-Utilisateur" style="stroke:#181818;stroke-width:1.0;"/><polygon fill="#181818" points="1044.58,446.71,1042.7436,437.0339,1041.733,442.5997,1036.1671,441.5891,1044.58,446.71" style="stroke:#181818;stroke-width:1.0;"/></g><!--link Recruteur to Candidat--><g id="link_Recruteur_Candidat"><path codeLine="99" d="M585.48,55.37 C623.76,82.9 682.1089,124.8668 720.4589,152.4468 " fill="none" id="Recruteur-to-Candidat" style="stroke:#181818;stroke-width:1.0;"/><polygon fill="#181818" points="725.33,155.95,720.3587,147.4479,721.2707,153.0307,715.6879,153.9427,725.33,155.95" style="stroke:#181818;stroke-width:1.0;"/></g><!--link Candidat to Utilisateur--><g id="link_Candidat_Utilisateur"><path codeLine="100" d="M804.9,187.83 C870.58,199.33 989.05,229.86 1053,305.9 C1085.77,344.86 1098.5405,394.2364 1103.6905,440.8064 " fill="none" id="Candidat-to-Utilisateur" style="stroke:#181818;stroke-width:1.0;"/><polygon fill="#181818" points="1104.35,446.77,1107.3365,437.3849,1103.8004,441.8003,1099.385,438.2642,1104.35,446.77" style="stroke:#181818;stroke-width:1.0;"/></g><!--link Recruteur to fiche_poste--><g id="link_Recruteur_fiche_poste"><path codeLine="101" d="M563.51,55.48 C575.36,84.14 593,134.36 593,179.45 C593,179.45 593,179.45 593,735.72 C593,765.76 592.85,798.75 592.66,827.75 " fill="none" id="Recruteur-fiche_poste" style="stroke:#181818;stroke-width:1.0;"/><polygon fill="#000000" points="598.1886,413.7528,600.7843,404.6033,594.9106,404.8251,598.1886,413.7528" style="stroke:#000000;stroke-width:1.0;"/><text fill="#000000" font-family="sans-serif" font-size="13" lengthAdjust="spacing" textLength="35" x="607" y="413.2569">Creer</text><text fill="#000000" font-family="sans-serif" font-size="13" lengthAdjust="spacing" textLength="8" x="557.0154" y="74.9576">1</text><text fill="#000000" font-family="sans-serif" font-size="13" lengthAdjust="spacing" textLength="7" x="585.4071" y="816.9275">*</text></g><!--link Candidature to Piece_dossier--><g id="link_Candidature_Piece_dossier"><path codeLine="102" d="M750.29,370.59 C741.97,404.63 728.7,458.89 719.68,495.78 " fill="none" id="Candidature-Piece_dossier" style="stroke:#181818;stroke-width:1.0;"/><text fill="#000000" font-family="sans-serif" font-size="13" lengthAdjust="spacing" textLength="8" x="740.0578" y="390.3025">1</text><text fill="#000000" font-family="sans-serif" font-size="13" lengthAdjust="spacing" textLength="7" x="713.7036" y="484.8918">*</text></g><!--link Candidature to Offre_emploi--><g id="link_Candidature_Offre_emploi"><path codeLine="103" d="M780.01,370.59 C800.43,399.86 831.29,444.08 855.9,479.35 " fill="none" id="Candidature-Offre_emploi" style="stroke:#181818;stroke-width:1.0;"/><polygon fill="#000000" points="817.8612,412.8568,815.0954,403.7573,810.2751,407.1208,817.8612,412.8568" style="stroke:#000000;stroke-width:1.0;"/><text fill="#000000" font-family="sans-serif" font-size="13" lengthAdjust="spacing" textLength="63" x="824" y="413.2569">Porter sur</text><text fill="#000000" font-family="sans-serif" font-size="13" lengthAdjust="spacing" textLength="7" x="776.5385" y="390.3025">*</text><text fill="#000000" font-family="sans-serif" font-size="13" lengthAdjust="spacing" textLength="8" x="842.6472" y="468.5599">1</text></g><!--link Candidat to Candidature--><g id="link_Candidat_Candidature"><path codeLine="104" d="M758,204.74 C758,231.53 758,275.65 758,305.5 " fill="none" id="Candidat-Candidature" style="stroke:#181818;stroke-width:1.0;"/><polygon fill="#000000" points="763,272.4664,765.9389,263.4213,760.0611,263.4213,763,272.4664" style="stroke:#000000;stroke-width:1.0;"/><text fill="#000000" font-family="sans-serif" font-size="13" lengthAdjust="spacing" textLength="50" x="772" y="271.9669">Modifier</text><text fill="#000000" font-family="sans-serif" font-size="13" lengthAdjust="spacing" textLength="8" x="749.025" y="224.5719">1</text><text fill="#000000" font-family="sans-serif" font-size="13" lengthAdjust="spacing" textLength="7" x="750.3328" y="294.9453">*</text></g><!--link Recruteur to Organisation--><g id="link_Recruteur_Organisation"><path codeLine="105" d="M502.2,49.18 C496.08,51.18 489.91,53.16 484,55 C438.49,69.21 420.99,59.05 381,85 C362.25,97.17 345.54,115.04 332.29,131.97 " fill="none" id="Recruteur-Organisation" style="stroke:#181818;stroke-width:1.0;"/><polygon fill="#000000" points="381.5052,95.7565,390.9237,94.4365,388.3491,89.1526,381.5052,95.7565" style="stroke:#000000;stroke-width:1.0;"/><text fill="#000000" font-family="sans-serif" font-size="13" lengthAdjust="spacing" textLength="90" x="395" y="98.0669">Travailler pour</text><text fill="#000000" font-family="sans-serif" font-size="13" lengthAdjust="spacing" textLength="7" x="487.5641" y="47.7581">*</text><text fill="#000000" font-family="sans-serif" font-size="13" lengthAdjust="spacing" textLength="8" x="328.2982" y="120.8253">1</text></g><!--link Organisation to adresse--><g id="link_Organisation_adresse"><path codeLine="106" d="M260.97,229.33 C240.57,258.56 220,297.76 220,337.04 C220,337.04 220,337.04 220,909.9 C220,957.39 222.36,1011.28 224.51,1050.62 " fill="none" id="Organisation-adresse" style="stroke:#181818;stroke-width:1.0;"/><polygon fill="#000000" points="224.7783,669.1315,228.1154,660.2256,222.2434,659.965,224.7783,669.1315" style="stroke:#000000;stroke-width:1.0;"/><text fill="#000000" font-family="sans-serif" font-size="13" lengthAdjust="spacing" textLength="57" x="234" y="668.6369">Se situer</text><text fill="#000000" font-family="sans-serif" font-size="13" lengthAdjust="spacing" textLength="7" x="248.1207" y="248.9825">*</text><text fill="#000000" font-family="sans-serif" font-size="13" lengthAdjust="spacing" textLength="8" x="215.5972" y="1039.8446">1</text></g><!--link Recruteur to Etat_demande--><g id="link_Recruteur_Etat_demande"><path codeLine="107" d="M544.86,55.43 C526,109.7 479.31,244.07 457.96,305.49 " fill="none" id="Recruteur-Etat_demande" style="stroke:#181818;stroke-width:1.0;"/><text fill="#000000" font-family="sans-serif" font-size="13" lengthAdjust="spacing" textLength="7" x="535.1683" y="74.8961">*</text><text fill="#000000" font-family="sans-serif" font-size="13" lengthAdjust="spacing" textLength="8" x="451.2868" y="294.9334">1</text></g><!--link Utilisateur to Role--><g id="link_Utilisateur_Role"><path codeLine="108" d="M1106,625.78 C1106,653.06 1106,681.35 1106,702.13 " fill="none" id="Utilisateur-Role" style="stroke:#181818;stroke-width:1.0;"/><text fill="#000000" font-family="sans-serif" font-size="13" lengthAdjust="spacing" textLength="7" x="1098.7211" y="645.5741">*</text><text fill="#000000" font-family="sans-serif" font-size="13" lengthAdjust="spacing" textLength="8" x="1097.2375" y="691.5677">1</text></g><!--SRC=[VLJ1Rjim3BtxAmIVjW4zz5eC0OQWXm5jqhN9sL0ifY4WMvv4Pms6_Skk-ux-s2ZRiMcrwSr-UYGVoIVLZa3b6zS6PI4eJUHnrr9GmTMaLkkDMctlxdAbWwgPccMbrI6ejN_MDGPDwEhVcL9V6u-LzgU5Ua8FjRfHM1FZjQluEv3dR-kUtV3pvvndSsgWk9oirXMa8UlztaC1LMCTgeJULcDbemcAexPea6AE-4zO0HzXRR3igeLHN4Stq3YItB4eaAR2nShpYX5F1Tv6he5ArmOIWMSqYTXZUO2YSO7w0Eu0gRKmglCG6bQhTnQA0uBNlZpWprOGJdIee22lZnejmtlhT1m3WOK9tJbd6GpQQbvJKM4jg2EgNmHg89GUcpWjHWbUIAb9UU1UM-gbprljJz9EAUwxuk62dzFZGKhMXliENLwvMI_wFg8LOogTwSUexO1DoRQ4DdeCsguoBm87ajgkll_OtYPkRTZ6ufS553pBDAApJUb13_CHBkEgLB3dCS77mGpBQ5ZTB-VDaFhJGOV3vqdtDyDRGZuPfKzdZr3wzYsyP8yXLtmVRNiFzyedx5tRFo2KV2rS2CF2n9fKPrl6qxKzEflwtZihjYllkyg_vEhgIkNN-Tl7865UH-PL5o5lp8tA7rZXwp_3MXRvnVJoNcQpLqIGfekUoHg28Ir_YIDiVeaocFiz8JqXQN7fVFyAS9nw_HiRdLk30nVIvTdeZkxalFxi_14BNGhuODHB3_sOXPy6VaUVMMPEcfgVDTtjpnDd3Uqiiqoxd3arltS6zzWB4R951Ma23jZqRw3baCQr7_fas4oCUW8L-2N-eCxCL6AOaXCln7y0]--></g></svg>