<?xml version="1.0" encoding="UTF-8" standalone="no"?><svg xmlns="http://www.w3.org/2000/svg" xmlns:xlink="http://www.w3.org/1999/xlink" contentStyleType="text/css" height="1138px" preserveAspectRatio="none" style="width:989px;height:1138px;background:#FFFFFF;" version="1.1" viewBox="0 0 989 1138" width="989px" zoomAndPan="magnify"><defs/><g><g id="elem_note"><path d="M221,18.5 L221,43.6328 L453,43.6328 L453,28.5 L443,18.5 L221,18.5 " fill="#FEFFDD" style="stroke:#181818;stroke-width:0.5;"/><path d="M443,18.5 L443,28.5 L453,28.5 L443,18.5 " fill="#FEFFDD" style="stroke:#181818;stroke-width:1.0;"/><text fill="#000000" font-family="sans-serif" font-size="13" lengthAdjust="spacing" textLength="211" x="227" y="35.5669">Tous les attributs sont NOT NULL</text></g><!--MD5=[28b7f55834c064dbac0e48afbc220c74]
class Organisation--><g id="elem_Organisation"><rect codeLine="3" fill="#F1F1F1" height="96.8906" id="Organisation" rx="2.5" ry="2.5" style="stroke:#181818;stroke-width:0.5;" width="155" x="115.5" y="132"/><ellipse cx="146.7" cy="148" fill="#ADD1B2" rx="11" ry="11" style="stroke:#181818;stroke-width:1.0;"/><path d="M149.6688,153.6406 Q149.0906,153.9375 148.45,154.0781 Q147.8094,154.2344 147.1063,154.2344 Q144.6063,154.2344 143.2781,152.5938 Q141.9656,150.9375 141.9656,147.8125 Q141.9656,144.6875 143.2781,143.0313 Q144.6063,141.375 147.1063,141.375 Q147.8094,141.375 148.45,141.5313 Q149.1063,141.6875 149.6688,141.9844 L149.6688,144.7031 Q149.0438,144.125 148.45,143.8594 Q147.8563,143.5781 147.2313,143.5781 Q145.8875,143.5781 145.2,144.6563 Q144.5125,145.7188 144.5125,147.8125 Q144.5125,149.9063 145.2,150.9844 Q145.8875,152.0469 147.2313,152.0469 Q147.8563,152.0469 148.45,151.7813 Q149.0438,151.5 149.6688,150.9219 L149.6688,153.6406 Z " fill="#000000"/><text fill="#000000" font-family="sans-serif" font-size="14" lengthAdjust="spacing" textLength="87" x="164.3" y="152.8467">Organisation</text><line style="stroke:#181818;stroke-width:0.5;" x1="116.5" x2="269.5" y1="164" y2="164"/><text fill="#000000" font-family="sans-serif" font-size="14" lengthAdjust="spacing" textLength="143" x="121.5" y="180.9951">&lt;primary&gt; Siren : int</text><text fill="#000000" font-family="sans-serif" font-size="14" lengthAdjust="spacing" textLength="62" x="121.5" y="197.292">nom : str</text><text fill="#000000" font-family="sans-serif" font-size="14" lengthAdjust="spacing" textLength="115" x="121.5" y="213.5889">siege_social : str</text><line style="stroke:#181818;stroke-width:0.5;" x1="116.5" x2="269.5" y1="220.8906" y2="220.8906"/></g><!--MD5=[49a910111a13ee1fa6c3964b381903b6]
class Type_Organisation--><g id="elem_Type_Organisation"><rect codeLine="9" fill="#F1F1F1" height="64.2969" id="Type_Organisation" rx="2.5" ry="2.5" style="stroke:#181818;stroke-width:0.5;" width="160" x="113" y="496"/><ellipse cx="128" cy="512" fill="#ADD1B2" rx="11" ry="11" style="stroke:#181818;stroke-width:1.0;"/><path d="M130.9688,517.6406 Q130.3906,517.9375 129.75,518.0781 Q129.1094,518.2344 128.4063,518.2344 Q125.9063,518.2344 124.5781,516.5938 Q123.2656,514.9375 123.2656,511.8125 Q123.2656,508.6875 124.5781,507.0313 Q125.9063,505.375 128.4063,505.375 Q129.1094,505.375 129.75,505.5313 Q130.4063,505.6875 130.9688,505.9844 L130.9688,508.7031 Q130.3438,508.125 129.75,507.8594 Q129.1563,507.5781 128.5313,507.5781 Q127.1875,507.5781 126.5,508.6563 Q125.8125,509.7188 125.8125,511.8125 Q125.8125,513.9063 126.5,514.9844 Q127.1875,516.0469 128.5313,516.0469 Q129.1563,516.0469 129.75,515.7813 Q130.3438,515.5 130.9688,514.9219 L130.9688,517.6406 Z " fill="#000000"/><text fill="#000000" font-family="sans-serif" font-size="14" lengthAdjust="spacing" textLength="128" x="142" y="516.8467">Type_Organisation</text><line style="stroke:#181818;stroke-width:0.5;" x1="114" x2="272" y1="528" y2="528"/><text fill="#000000" font-family="sans-serif" font-size="14" lengthAdjust="spacing" textLength="148" x="119" y="544.9951">&lt;primary&gt; name : str</text><line style="stroke:#181818;stroke-width:0.5;" x1="114" x2="272" y1="552.2969" y2="552.2969"/></g><!--MD5=[b59f48d66840a82fa4274edef4272b66]
class Offre_emploi--><g id="elem_Offre_emploi"><rect codeLine="13" fill="#F1F1F1" height="96.8906" id="Offre_emploi" rx="2.5" ry="2.5" style="stroke:#181818;stroke-width:0.5;" width="171" x="523.5" y="479.5"/><ellipse cx="562.35" cy="495.5" fill="#ADD1B2" rx="11" ry="11" style="stroke:#181818;stroke-width:1.0;"/><path d="M565.3188,501.1406 Q564.7406,501.4375 564.1,501.5781 Q563.4594,501.7344 562.7563,501.7344 Q560.2563,501.7344 558.9281,500.0938 Q557.6156,498.4375 557.6156,495.3125 Q557.6156,492.1875 558.9281,490.5313 Q560.2563,488.875 562.7563,488.875 Q563.4594,488.875 564.1,489.0313 Q564.7563,489.1875 565.3188,489.4844 L565.3188,492.2031 Q564.6938,491.625 564.1,491.3594 Q563.5063,491.0781 562.8813,491.0781 Q561.5375,491.0781 560.85,492.1563 Q560.1625,493.2188 560.1625,495.3125 Q560.1625,497.4063 560.85,498.4844 Q561.5375,499.5469 562.8813,499.5469 Q563.5063,499.5469 564.1,499.2813 Q564.6938,499 565.3188,498.4219 L565.3188,501.1406 Z " fill="#000000"/><text fill="#000000" font-family="sans-serif" font-size="14" lengthAdjust="spacing" textLength="86" x="581.65" y="500.3467">Offre_emploi</text><line style="stroke:#181818;stroke-width:0.5;" x1="524.5" x2="693.5" y1="511.5" y2="511.5"/><text fill="#000000" font-family="sans-serif" font-size="14" lengthAdjust="spacing" textLength="139" x="529.5" y="528.4951">&lt;primary&gt; num : int</text><text fill="#000000" font-family="sans-serif" font-size="14" lengthAdjust="spacing" textLength="159" x="529.5" y="544.792">date_validite : datetime</text><text fill="#000000" font-family="sans-serif" font-size="14" lengthAdjust="spacing" textLength="113" x="529.5" y="561.0889">indications : text</text><line style="stroke:#181818;stroke-width:0.5;" x1="524.5" x2="693.5" y1="568.3906" y2="568.3906"/></g><!--MD5=[6958dd9192741bd33412db3b3eb9232e]
class etat_offre--><g id="elem_etat_offre"><rect codeLine="19" fill="#F1F1F1" height="64.2969" id="etat_offre" rx="2.5" ry="2.5" style="stroke:#181818;stroke-width:0.5;" width="156" x="518" y="670"/><ellipse cx="559.55" cy="686" fill="#ADD1B2" rx="11" ry="11" style="stroke:#181818;stroke-width:1.0;"/><path d="M562.5188,691.6406 Q561.9406,691.9375 561.3,692.0781 Q560.6594,692.2344 559.9563,692.2344 Q557.4563,692.2344 556.1281,690.5938 Q554.8156,688.9375 554.8156,685.8125 Q554.8156,682.6875 556.1281,681.0313 Q557.4563,679.375 559.9563,679.375 Q560.6594,679.375 561.3,679.5313 Q561.9563,679.6875 562.5188,679.9844 L562.5188,682.7031 Q561.8938,682.125 561.3,681.8594 Q560.7063,681.5781 560.0813,681.5781 Q558.7375,681.5781 558.05,682.6563 Q557.3625,683.7188 557.3625,685.8125 Q557.3625,687.9063 558.05,688.9844 Q558.7375,690.0469 560.0813,690.0469 Q560.7063,690.0469 561.3,689.7813 Q561.8938,689.5 562.5188,688.9219 L562.5188,691.6406 Z " fill="#000000"/><text fill="#000000" font-family="sans-serif" font-size="14" lengthAdjust="spacing" textLength="65" x="579.45" y="690.8467">etat_offre</text><line style="stroke:#181818;stroke-width:0.5;" x1="519" x2="673" y1="702" y2="702"/><text fill="#000000" font-family="sans-serif" font-size="14" lengthAdjust="spacing" textLength="144" x="524" y="718.9951">&lt;primary&gt; etat : text</text><line style="stroke:#181818;stroke-width:0.5;" x1="519" x2="673" y1="726.2969" y2="726.2969"/></g><!--MD5=[f78828278284fccfebe15e7174cf0e80]
class fiche_poste--><g id="elem_fiche_poste"><rect codeLine="24" fill="#F1F1F1" height="162.0781" id="fiche_poste" rx="2.5" ry="2.5" style="stroke:#181818;stroke-width:0.5;" width="222" x="258" y="795"/><ellipse cx="324.75" cy="811" fill="#ADD1B2" rx="11" ry="11" style="stroke:#181818;stroke-width:1.0;"/><path d="M327.7188,816.6406 Q327.1406,816.9375 326.5,817.0781 Q325.8594,817.2344 325.1563,817.2344 Q322.6563,817.2344 321.3281,815.5938 Q320.0156,813.9375 320.0156,810.8125 Q320.0156,807.6875 321.3281,806.0313 Q322.6563,804.375 325.1563,804.375 Q325.8594,804.375 326.5,804.5313 Q327.1563,804.6875 327.7188,804.9844 L327.7188,807.7031 Q327.0938,807.125 326.5,806.8594 Q325.9063,806.5781 325.2813,806.5781 Q323.9375,806.5781 323.25,807.6563 Q322.5625,808.7188 322.5625,810.8125 Q322.5625,812.9063 323.25,813.9844 Q323.9375,815.0469 325.2813,815.0469 Q325.9063,815.0469 326.5,814.7813 Q327.0938,814.5 327.7188,813.9219 L327.7188,816.6406 Z " fill="#000000"/><text fill="#000000" font-family="sans-serif" font-size="14" lengthAdjust="spacing" textLength="80" x="345.25" y="815.8467">fiche_poste</text><line style="stroke:#181818;stroke-width:0.5;" x1="259" x2="479" y1="827" y2="827"/><text fill="#000000" font-family="sans-serif" font-size="14" lengthAdjust="spacing" textLength="77" x="264" y="843.9951">intitule : str</text><text fill="#000000" font-family="sans-serif" font-size="14" lengthAdjust="spacing" textLength="210" x="264" y="860.292">responsable_hierarchique : str</text><text fill="#000000" font-family="sans-serif" font-size="14" lengthAdjust="spacing" textLength="136" x="264" y="876.5889">rythme_travail : float</text><text fill="#000000" font-family="sans-serif" font-size="14" lengthAdjust="spacing" textLength="108" x="264" y="892.8857">teletravail : bool</text><text fill="#000000" font-family="sans-serif" font-size="14" lengthAdjust="spacing" textLength="118" x="264" y="909.1826">salaire_min : float</text><text fill="#000000" font-family="sans-serif" font-size="14" lengthAdjust="spacing" textLength="121" x="264" y="925.4795">salaire_max : float</text><text fill="#000000" font-family="sans-serif" font-size="14" lengthAdjust="spacing" textLength="116" x="264" y="941.7764">descirption : text</text><line style="stroke:#181818;stroke-width:0.5;" x1="259" x2="479" y1="949.0781" y2="949.0781"/></g><!--MD5=[bfb75d388ae634ab3563d4abea04246c]
class statut_poste--><g id="elem_statut_poste"><rect codeLine="35" fill="#F1F1F1" height="64.2969" id="statut_poste" rx="2.5" ry="2.5" style="stroke:#181818;stroke-width:0.5;" width="169" x="89.5" y="1042.5"/><ellipse cx="127" cy="1058.5" fill="#ADD1B2" rx="11" ry="11" style="stroke:#181818;stroke-width:1.0;"/><path d="M129.9688,1064.1406 Q129.3906,1064.4375 128.75,1064.5781 Q128.1094,1064.7344 127.4063,1064.7344 Q124.9063,1064.7344 123.5781,1063.0938 Q122.2656,1061.4375 122.2656,1058.3125 Q122.2656,1055.1875 123.5781,1053.5313 Q124.9063,1051.875 127.4063,1051.875 Q128.1094,1051.875 128.75,1052.0313 Q129.4063,1052.1875 129.9688,1052.4844 L129.9688,1055.2031 Q129.3438,1054.625 128.75,1054.3594 Q128.1563,1054.0781 127.5313,1054.0781 Q126.1875,1054.0781 125.5,1055.1563 Q124.8125,1056.2188 124.8125,1058.3125 Q124.8125,1060.4063 125.5,1061.4844 Q126.1875,1062.5469 127.5313,1062.5469 Q128.1563,1062.5469 128.75,1062.2813 Q129.3438,1062 129.9688,1061.4219 L129.9688,1064.1406 Z " fill="#000000"/><text fill="#000000" font-family="sans-serif" font-size="14" lengthAdjust="spacing" textLength="87" x="146" y="1063.3467">statut_poste</text><line style="stroke:#181818;stroke-width:0.5;" x1="90.5" x2="257.5" y1="1074.5" y2="1074.5"/><text fill="#000000" font-family="sans-serif" font-size="14" lengthAdjust="spacing" textLength="157" x="95.5" y="1091.4951">&lt;primary&gt; statut : text</text><line style="stroke:#181818;stroke-width:0.5;" x1="90.5" x2="257.5" y1="1098.7969" y2="1098.7969"/></g><!--MD5=[9756c227370d5d62dcd6340599966c82]
class type_metier--><g id="elem_type_metier"><rect codeLine="39" fill="#F1F1F1" height="64.2969" id="type_metier" rx="2.5" ry="2.5" style="stroke:#181818;stroke-width:0.5;" width="151" x="293.5" y="1042.5"/><ellipse cx="325.6" cy="1058.5" fill="#ADD1B2" rx="11" ry="11" style="stroke:#181818;stroke-width:1.0;"/><path d="M328.5688,1064.1406 Q327.9906,1064.4375 327.35,1064.5781 Q326.7094,1064.7344 326.0063,1064.7344 Q323.5063,1064.7344 322.1781,1063.0938 Q320.8656,1061.4375 320.8656,1058.3125 Q320.8656,1055.1875 322.1781,1053.5313 Q323.5063,1051.875 326.0063,1051.875 Q326.7094,1051.875 327.35,1052.0313 Q328.0063,1052.1875 328.5688,1052.4844 L328.5688,1055.2031 Q327.9438,1054.625 327.35,1054.3594 Q326.7563,1054.0781 326.1313,1054.0781 Q324.7875,1054.0781 324.1,1055.1563 Q323.4125,1056.2188 323.4125,1058.3125 Q323.4125,1060.4063 324.1,1061.4844 Q324.7875,1062.5469 326.1313,1062.5469 Q326.7563,1062.5469 327.35,1062.2813 Q327.9438,1062 328.5688,1061.4219 L328.5688,1064.1406 Z " fill="#000000"/><text fill="#000000" font-family="sans-serif" font-size="14" lengthAdjust="spacing" textLength="81" x="343.4" y="1063.3467">type_metier</text><line style="stroke:#181818;stroke-width:0.5;" x1="294.5" x2="443.5" y1="1074.5" y2="1074.5"/><text fill="#000000" font-family="sans-serif" font-size="14" lengthAdjust="spacing" textLength="139" x="299.5" y="1091.4951">&lt;primary&gt; type : str</text><line style="stroke:#181818;stroke-width:0.5;" x1="294.5" x2="443.5" y1="1098.7969" y2="1098.7969"/></g><!--MD5=[d47144356330decbcfb6f8efd9f02e76]
class lieu_mission--><g id="elem_lieu_mission"><rect codeLine="43" fill="#F1F1F1" height="113.1875" id="lieu_mission" rx="2.5" ry="2.5" style="stroke:#181818;stroke-width:0.5;" width="127" x="479.5" y="1018"/><ellipse cx="499.45" cy="1034" fill="#ADD1B2" rx="11" ry="11" style="stroke:#181818;stroke-width:1.0;"/><path d="M502.4188,1039.6406 Q501.8406,1039.9375 501.2,1040.0781 Q500.5594,1040.2344 499.8563,1040.2344 Q497.3563,1040.2344 496.0281,1038.5938 Q494.7156,1036.9375 494.7156,1033.8125 Q494.7156,1030.6875 496.0281,1029.0313 Q497.3563,1027.375 499.8563,1027.375 Q500.5594,1027.375 501.2,1027.5313 Q501.8563,1027.6875 502.4188,1027.9844 L502.4188,1030.7031 Q501.7938,1030.125 501.2,1029.8594 Q500.6063,1029.5781 499.9813,1029.5781 Q498.6375,1029.5781 497.95,1030.6563 Q497.2625,1031.7188 497.2625,1033.8125 Q497.2625,1035.9063 497.95,1036.9844 Q498.6375,1038.0469 499.9813,1038.0469 Q500.6063,1038.0469 501.2,1037.7813 Q501.7938,1037.5 502.4188,1036.9219 L502.4188,1039.6406 Z " fill="#000000"/><text fill="#000000" font-family="sans-serif" font-size="14" lengthAdjust="spacing" textLength="84" x="514.55" y="1038.8467">lieu_mission</text><line style="stroke:#181818;stroke-width:0.5;" x1="480.5" x2="605.5" y1="1050" y2="1050"/><text fill="#000000" font-family="sans-serif" font-size="14" lengthAdjust="spacing" textLength="61" x="485.5" y="1066.9951">num : int</text><text fill="#000000" font-family="sans-serif" font-size="14" lengthAdjust="spacing" textLength="54" x="485.5" y="1083.292">rue : str</text><text fill="#000000" font-family="sans-serif" font-size="14" lengthAdjust="spacing" textLength="56" x="485.5" y="1099.5889">ville : str</text><text fill="#000000" font-family="sans-serif" font-size="14" lengthAdjust="spacing" textLength="115" x="485.5" y="1115.8857">code_postal : str</text><line style="stroke:#181818;stroke-width:0.5;" x1="480.5" x2="605.5" y1="1123.1875" y2="1123.1875"/></g><!--MD5=[354e8650cefe639d77b0834953981666]
class Utilisateur--><g id="elem_Utilisateur"><rect codeLine="51" fill="#F1F1F1" height="162.0781" id="Utilisateur" rx="2.5" ry="2.5" style="stroke:#181818;stroke-width:0.5;" width="180" x="308" y="447"/><ellipse cx="359.75" cy="463" fill="#ADD1B2" rx="11" ry="11" style="stroke:#181818;stroke-width:1.0;"/><path d="M362.7188,468.6406 Q362.1406,468.9375 361.5,469.0781 Q360.8594,469.2344 360.1563,469.2344 Q357.6563,469.2344 356.3281,467.5938 Q355.0156,465.9375 355.0156,462.8125 Q355.0156,459.6875 356.3281,458.0313 Q357.6563,456.375 360.1563,456.375 Q360.8594,456.375 361.5,456.5313 Q362.1563,456.6875 362.7188,456.9844 L362.7188,459.7031 Q362.0938,459.125 361.5,458.8594 Q360.9063,458.5781 360.2813,458.5781 Q358.9375,458.5781 358.25,459.6563 Q357.5625,460.7188 357.5625,462.8125 Q357.5625,464.9063 358.25,465.9844 Q358.9375,467.0469 360.2813,467.0469 Q360.9063,467.0469 361.5,466.7813 Q362.0938,466.5 362.7188,465.9219 L362.7188,468.6406 Z " fill="#000000"/><text fill="#000000" font-family="sans-serif" font-size="14" lengthAdjust="spacing" textLength="68" x="380.25" y="467.8467">Utilisateur</text><line style="stroke:#181818;stroke-width:0.5;" x1="309" x2="487" y1="479" y2="479"/><text fill="#000000" font-family="sans-serif" font-size="14" lengthAdjust="spacing" textLength="124" x="314" y="495.9951">email : str UNIQUE</text><text fill="#000000" font-family="sans-serif" font-size="14" lengthAdjust="spacing" textLength="62" x="314" y="512.292">nom : str</text><text fill="#000000" font-family="sans-serif" font-size="14" lengthAdjust="spacing" textLength="85" x="314" y="528.5889">prenom : str</text><text fill="#000000" font-family="sans-serif" font-size="14" lengthAdjust="spacing" textLength="86" x="314" y="544.8857">num_tel : str</text><text fill="#000000" font-family="sans-serif" font-size="14" lengthAdjust="spacing" textLength="168" x="314" y="561.1826">date_creation : datetime</text><text fill="#000000" font-family="sans-serif" font-size="14" lengthAdjust="spacing" textLength="83" x="314" y="577.4795">statut : bool</text><line style="stroke:#181818;stroke-width:0.5;" x1="309" x2="487" y1="584.7813" y2="584.7813"/><text fill="#000000" font-family="sans-serif" font-size="14" lengthAdjust="spacing" textLength="146" x="314" y="601.7764">password : str (hash)</text></g><!--MD5=[60ae0492841f67b63cfeabc6b596b865]
class Administrateur--><g id="elem_Administrateur"><rect codeLine="61" fill="#F1F1F1" height="48" id="Administrateur" rx="2.5" ry="2.5" style="stroke:#181818;stroke-width:0.5;" width="132" x="300" y="314"/><ellipse cx="315" cy="330" fill="#ADD1B2" rx="11" ry="11" style="stroke:#181818;stroke-width:1.0;"/><path d="M317.9688,335.6406 Q317.3906,335.9375 316.75,336.0781 Q316.1094,336.2344 315.4063,336.2344 Q312.9063,336.2344 311.5781,334.5938 Q310.2656,332.9375 310.2656,329.8125 Q310.2656,326.6875 311.5781,325.0313 Q312.9063,323.375 315.4063,323.375 Q316.1094,323.375 316.75,323.5313 Q317.4063,323.6875 317.9688,323.9844 L317.9688,326.7031 Q317.3438,326.125 316.75,325.8594 Q316.1563,325.5781 315.5313,325.5781 Q314.1875,325.5781 313.5,326.6563 Q312.8125,327.7188 312.8125,329.8125 Q312.8125,331.9063 313.5,332.9844 Q314.1875,334.0469 315.5313,334.0469 Q316.1563,334.0469 316.75,333.7813 Q317.3438,333.5 317.9688,332.9219 L317.9688,335.6406 Z " fill="#000000"/><text fill="#000000" font-family="sans-serif" font-size="14" lengthAdjust="spacing" textLength="100" x="329" y="334.8467">Administrateur</text><line style="stroke:#181818;stroke-width:0.5;" x1="301" x2="431" y1="346" y2="346"/><line style="stroke:#181818;stroke-width:0.5;" x1="301" x2="431" y1="354" y2="354"/></g><!--MD5=[c4b5e357207c4af487cf5b939af446bb]
class Recruteur--><g id="elem_Recruteur"><rect codeLine="65" fill="#F1F1F1" height="48" id="Recruteur" rx="2.5" ry="2.5" style="stroke:#181818;stroke-width:0.5;" width="101" x="488.5" y="7"/><ellipse cx="503.5" cy="23" fill="#ADD1B2" rx="11" ry="11" style="stroke:#181818;stroke-width:1.0;"/><path d="M506.4688,28.6406 Q505.8906,28.9375 505.25,29.0781 Q504.6094,29.2344 503.9063,29.2344 Q501.4063,29.2344 500.0781,27.5938 Q498.7656,25.9375 498.7656,22.8125 Q498.7656,19.6875 500.0781,18.0313 Q501.4063,16.375 503.9063,16.375 Q504.6094,16.375 505.25,16.5313 Q505.9063,16.6875 506.4688,16.9844 L506.4688,19.7031 Q505.8438,19.125 505.25,18.8594 Q504.6563,18.5781 504.0313,18.5781 Q502.6875,18.5781 502,19.6563 Q501.3125,20.7188 501.3125,22.8125 Q501.3125,24.9063 502,25.9844 Q502.6875,27.0469 504.0313,27.0469 Q504.6563,27.0469 505.25,26.7813 Q505.8438,26.5 506.4688,25.9219 L506.4688,28.6406 Z " fill="#000000"/><text fill="#000000" font-family="sans-serif" font-size="14" lengthAdjust="spacing" textLength="69" x="517.5" y="27.8467">Recruteur</text><line style="stroke:#181818;stroke-width:0.5;" x1="489.5" x2="588.5" y1="39" y2="39"/><line style="stroke:#181818;stroke-width:0.5;" x1="489.5" x2="588.5" y1="47" y2="47"/></g><!--MD5=[0530db4f5f05820e798c1600d185c71d]
class Candidat--><g id="elem_Candidat"><rect codeLine="69" fill="#F1F1F1" height="48" id="Candidat" rx="2.5" ry="2.5" style="stroke:#181818;stroke-width:0.5;" width="93" x="492.5" y="156.5"/><ellipse cx="507.5" cy="172.5" fill="#ADD1B2" rx="11" ry="11" style="stroke:#181818;stroke-width:1.0;"/><path d="M510.4688,178.1406 Q509.8906,178.4375 509.25,178.5781 Q508.6094,178.7344 507.9063,178.7344 Q505.4063,178.7344 504.0781,177.0938 Q502.7656,175.4375 502.7656,172.3125 Q502.7656,169.1875 504.0781,167.5313 Q505.4063,165.875 507.9063,165.875 Q508.6094,165.875 509.25,166.0313 Q509.9063,166.1875 510.4688,166.4844 L510.4688,169.2031 Q509.8438,168.625 509.25,168.3594 Q508.6563,168.0781 508.0313,168.0781 Q506.6875,168.0781 506,169.1563 Q505.3125,170.2188 505.3125,172.3125 Q505.3125,174.4063 506,175.4844 Q506.6875,176.5469 508.0313,176.5469 Q508.6563,176.5469 509.25,176.2813 Q509.8438,176 510.4688,175.4219 L510.4688,178.1406 Z " fill="#000000"/><text fill="#000000" font-family="sans-serif" font-size="14" lengthAdjust="spacing" textLength="61" x="521.5" y="177.3467">Candidat</text><line style="stroke:#181818;stroke-width:0.5;" x1="493.5" x2="584.5" y1="188.5" y2="188.5"/><line style="stroke:#181818;stroke-width:0.5;" x1="493.5" x2="584.5" y1="196.5" y2="196.5"/></g><!--MD5=[88643a437ec1ecb0d9fffde79b7416ce]
class Candidature--><g id="elem_Candidature"><rect codeLine="73" fill="#F1F1F1" height="64.2969" id="Candidature" rx="2.5" ry="2.5" style="stroke:#181818;stroke-width:0.5;" width="206" x="538" y="306"/><ellipse cx="594.75" cy="322" fill="#ADD1B2" rx="11" ry="11" style="stroke:#181818;stroke-width:1.0;"/><path d="M597.7188,327.6406 Q597.1406,327.9375 596.5,328.0781 Q595.8594,328.2344 595.1563,328.2344 Q592.6563,328.2344 591.3281,326.5938 Q590.0156,324.9375 590.0156,321.8125 Q590.0156,318.6875 591.3281,317.0313 Q592.6563,315.375 595.1563,315.375 Q595.8594,315.375 596.5,315.5313 Q597.1563,315.6875 597.7188,315.9844 L597.7188,318.7031 Q597.0938,318.125 596.5,317.8594 Q595.9063,317.5781 595.2813,317.5781 Q593.9375,317.5781 593.25,318.6563 Q592.5625,319.7188 592.5625,321.8125 Q592.5625,323.9063 593.25,324.9844 Q593.9375,326.0469 595.2813,326.0469 Q595.9063,326.0469 596.5,325.7813 Q597.0938,325.5 597.7188,324.9219 L597.7188,327.6406 Z " fill="#000000"/><text fill="#000000" font-family="sans-serif" font-size="14" lengthAdjust="spacing" textLength="84" x="615.25" y="326.8467">Candidature</text><line style="stroke:#181818;stroke-width:0.5;" x1="539" x2="743" y1="338" y2="338"/><text fill="#000000" font-family="sans-serif" font-size="14" lengthAdjust="spacing" textLength="194" x="544" y="354.9951">date_candidature : datetime</text><line style="stroke:#181818;stroke-width:0.5;" x1="539" x2="743" y1="362.2969" y2="362.2969"/></g><!--MD5=[3042a0786f2692a6fce69f059f237c96]
class Type_piece_dossier--><g id="elem_Type_piece_dossier"><rect codeLine="77" fill="#F1F1F1" height="64.2969" id="Type_piece_dossier" rx="2.5" ry="2.5" style="stroke:#181818;stroke-width:0.5;" width="169" x="709.5" y="670"/><ellipse cx="724.5" cy="686" fill="#ADD1B2" rx="11" ry="11" style="stroke:#181818;stroke-width:1.0;"/><path d="M727.4688,691.6406 Q726.8906,691.9375 726.25,692.0781 Q725.6094,692.2344 724.9063,692.2344 Q722.4063,692.2344 721.0781,690.5938 Q719.7656,688.9375 719.7656,685.8125 Q719.7656,682.6875 721.0781,681.0313 Q722.4063,679.375 724.9063,679.375 Q725.6094,679.375 726.25,679.5313 Q726.9063,679.6875 727.4688,679.9844 L727.4688,682.7031 Q726.8438,682.125 726.25,681.8594 Q725.6563,681.5781 725.0313,681.5781 Q723.6875,681.5781 723,682.6563 Q722.3125,683.7188 722.3125,685.8125 Q722.3125,687.9063 723,688.9844 Q723.6875,690.0469 725.0313,690.0469 Q725.6563,690.0469 726.25,689.7813 Q726.8438,689.5 727.4688,688.9219 L727.4688,691.6406 Z " fill="#000000"/><text fill="#000000" font-family="sans-serif" font-size="14" lengthAdjust="spacing" textLength="137" x="738.5" y="690.8467">Type_piece_dossier</text><line style="stroke:#181818;stroke-width:0.5;" x1="710.5" x2="877.5" y1="702" y2="702"/><text fill="#000000" font-family="sans-serif" font-size="14" lengthAdjust="spacing" textLength="147" x="715.5" y="718.9951">&lt;primary&gt; type : text</text><line style="stroke:#181818;stroke-width:0.5;" x1="710.5" x2="877.5" y1="726.2969" y2="726.2969"/></g><!--MD5=[1a9041460272a21d5fa24258156c1e38]
class Piece_dossier--><g id="elem_Piece_dossier"><rect codeLine="81" fill="#F1F1F1" height="48" id="Piece_dossier" rx="2.5" ry="2.5" style="stroke:#181818;stroke-width:0.5;" width="128" x="730" y="504"/><ellipse cx="745" cy="520" fill="#ADD1B2" rx="11" ry="11" style="stroke:#181818;stroke-width:1.0;"/><path d="M747.9688,525.6406 Q747.3906,525.9375 746.75,526.0781 Q746.1094,526.2344 745.4063,526.2344 Q742.9063,526.2344 741.5781,524.5938 Q740.2656,522.9375 740.2656,519.8125 Q740.2656,516.6875 741.5781,515.0313 Q742.9063,513.375 745.4063,513.375 Q746.1094,513.375 746.75,513.5313 Q747.4063,513.6875 747.9688,513.9844 L747.9688,516.7031 Q747.3438,516.125 746.75,515.8594 Q746.1563,515.5781 745.5313,515.5781 Q744.1875,515.5781 743.5,516.6563 Q742.8125,517.7188 742.8125,519.8125 Q742.8125,521.9063 743.5,522.9844 Q744.1875,524.0469 745.5313,524.0469 Q746.1563,524.0469 746.75,523.7813 Q747.3438,523.5 747.9688,522.9219 L747.9688,525.6406 Z " fill="#000000"/><text fill="#000000" font-family="sans-serif" font-size="14" lengthAdjust="spacing" textLength="96" x="759" y="524.8467">Piece_dossier</text><line style="stroke:#181818;stroke-width:0.5;" x1="731" x2="857" y1="536" y2="536"/><line style="stroke:#181818;stroke-width:0.5;" x1="731" x2="857" y1="544" y2="544"/></g><!--MD5=[6c83c937ba35e4d8780207ef4276e3e5]
link Organisation to Type_Organisation--><g id="link_Organisation_Type_Organisation"><path codeLine="85" d="M193,229.18 C193,301 193,435 193,495.69 " fill="none" id="Organisation-Type_Organisation" style="stroke:#181818;stroke-width:1.0;"/><text fill="#000000" font-family="sans-serif" font-size="13" lengthAdjust="spacing" textLength="7" x="185.5297" y="248.8124">*</text><text fill="#000000" font-family="sans-serif" font-size="13" lengthAdjust="spacing" textLength="8" x="184.2125" y="484.9032">1</text></g><!--MD5=[bd7073a27457ff4134f75f847b4753cd]
link Organisation to fiche_poste--><g id="link_Organisation_fiche_poste"><path codeLine="86" d="M115.32,210.61 C63.94,235.47 6,276.83 6,337 C6,337 6,337 6,703 C6,815.8 150.92,854.72 257.62,868.09 " fill="none" id="Organisation-fiche_poste" style="stroke:#181818;stroke-width:1.0;"/><text fill="#000000" font-family="sans-serif" font-size="13" lengthAdjust="spacing" textLength="70" x="7" y="532.5669">Posséder&gt;</text><text fill="#000000" font-family="sans-serif" font-size="13" lengthAdjust="spacing" textLength="8" x="99.5349" y="209.8435">1</text><text fill="#000000" font-family="sans-serif" font-size="13" lengthAdjust="spacing" textLength="7" x="242.9015" y="864.1234">*</text></g><!--MD5=[f2bec2356d13953eea7bcf66bcdba526]
link Offre_emploi to etat_offre--><g id="link_Offre_emploi_etat_offre"><path codeLine="87" d="M605.38,576.91 C603.13,606.63 600.31,643.96 598.35,669.87 " fill="none" id="Offre_emploi-etat_offre" style="stroke:#181818;stroke-width:1.0;"/><text fill="#000000" font-family="sans-serif" font-size="13" lengthAdjust="spacing" textLength="7" x="597.4232" y="596.5733">*</text><text fill="#000000" font-family="sans-serif" font-size="13" lengthAdjust="spacing" textLength="8" x="590.0097" y="658.7463">1</text></g><!--MD5=[96417fcbde384bddf1592513fa1722c9]
link fiche_poste to statut_poste--><g id="link_fiche_poste_statut_poste"><path codeLine="88" d="M289.4,957.21 C259.71,987.13 227.71,1019.37 204.96,1042.3 " fill="none" id="fiche_poste-statut_poste" style="stroke:#181818;stroke-width:1.0;"/><text fill="#000000" font-family="sans-serif" font-size="13" lengthAdjust="spacing" textLength="7" x="274.9989" y="977.1801">*</text><text fill="#000000" font-family="sans-serif" font-size="13" lengthAdjust="spacing" textLength="8" x="202.2678" y="1031.5348">1</text></g><!--MD5=[618b898ac3224074fb47b1834becafc4]
link fiche_poste to type_metier--><g id="link_fiche_poste_type_metier"><path codeLine="89" d="M369,957.21 C369,987.13 369,1019.37 369,1042.3 " fill="none" id="fiche_poste-type_metier" style="stroke:#181818;stroke-width:1.0;"/><text fill="#000000" font-family="sans-serif" font-size="13" lengthAdjust="spacing" textLength="7" x="361.6883" y="977.1801">*</text><text fill="#000000" font-family="sans-serif" font-size="13" lengthAdjust="spacing" textLength="8" x="360.2125" y="1031.5348">1</text></g><!--MD5=[ac6a0d44f0df6138000ef81f7ed518d4]
link fiche_poste to lieu_mission--><g id="link_fiche_poste_lieu_mission"><path codeLine="90" d="M440.02,957.21 C458.07,977.58 477.06,999.03 493.75,1017.88 " fill="none" id="fiche_poste-lieu_mission" style="stroke:#181818;stroke-width:1.0;"/><text fill="#000000" font-family="sans-serif" font-size="13" lengthAdjust="spacing" textLength="7" x="439.0335" y="977.1801">*</text><text fill="#000000" font-family="sans-serif" font-size="13" lengthAdjust="spacing" textLength="8" x="479.2602" y="1007.1289">1</text></g><!--MD5=[afdb3111f7acc16b29907abcd822299e]
link Offre_emploi to fiche_poste--><g id="link_Offre_emploi_fiche_poste"><path codeLine="91" d="M551.55,576.65 C537.07,587.81 521.28,599.27 506,609 C455.87,640.92 420.18,620.69 387,670 C362.71,706.09 357.46,754.22 358.62,794.77 " fill="none" id="Offre_emploi-fiche_poste" style="stroke:#181818;stroke-width:1.0;"/><polygon fill="#000000" points="388.6873,705.8116,396.8814,700.9836,392.4786,697.0894,388.6873,705.8116" style="stroke:#000000;stroke-width:1.0;"/><text fill="#000000" font-family="sans-serif" font-size="13" lengthAdjust="spacing" textLength="99" x="401" y="706.5669">Correspondre à</text><text fill="#000000" font-family="sans-serif" font-size="13" lengthAdjust="spacing" textLength="7" x="535.9789" y="596.63">*</text><text fill="#000000" font-family="sans-serif" font-size="13" lengthAdjust="spacing" textLength="8" x="349.3393" y="783.9368">1</text></g><!--MD5=[71fd9dfa3f17dc0f28477b13209d3a54]
link Administrateur to Utilisateur--><g id="link_Administrateur_Utilisateur"><path codeLine="92" d="M369.92,362.05 C373.33,382.07 378.49,412.36 383.45,441.54 " fill="none" id="Administrateur-to-Utilisateur" style="stroke:#181818;stroke-width:1.0;"/><polygon fill="#181818" points="384.31,446.59,386.7625,437.0514,383.4811,441.6592,378.8733,438.3777,384.31,446.59" style="stroke:#181818;stroke-width:1.0;"/></g><!--MD5=[cdd581bd78155685686e3c7a6bc41806]
link Recruteur to Candidat--><g id="link_Recruteur_Candidat"><path codeLine="93" d="M539,55.05 C539,80.98 539,123.13 539,151.08 " fill="none" id="Recruteur-to-Candidat" style="stroke:#181818;stroke-width:1.0;"/><polygon fill="#181818" points="539,156.13,543,147.13,539,151.13,535,147.13,539,156.13" style="stroke:#181818;stroke-width:1.0;"/></g><!--MD5=[84303e98ccf88daa24c7d1f8175511af]
link Candidat to Utilisateur--><g id="link_Candidat_Utilisateur"><path codeLine="94" d="M529.53,204.71 C510.04,252.47 464.57,363.88 432.58,442.27 " fill="none" id="Candidat-to-Utilisateur" style="stroke:#181818;stroke-width:1.0;"/><polygon fill="#181818" points="430.68,446.92,437.78,440.0944,432.5665,442.2895,430.3713,437.076,430.68,446.92" style="stroke:#181818;stroke-width:1.0;"/></g><!--MD5=[afd5bc4a7da6ddb0ef248028e0f1ebd0]
link Recruteur to fiche_poste--><g id="link_Recruteur_fiche_poste"><path codeLine="95" d="M589.57,40.03 C695.72,58.33 932,107.17 932,179.5 C932,179.5 932,179.5 932,703 C932,796.52 644.31,844.23 480.23,863.83 " fill="none" id="Recruteur-fiche_poste" style="stroke:#181818;stroke-width:1.0;"/><polygon fill="#000000" points="936.3421,413.5229,940.4456,404.9432,934.6188,404.1698,936.3421,413.5229" style="stroke:#000000;stroke-width:1.0;"/><text fill="#000000" font-family="sans-serif" font-size="13" lengthAdjust="spacing" textLength="35" x="946" y="413.0669">Creer</text><text fill="#000000" font-family="sans-serif" font-size="13" lengthAdjust="spacing" textLength="23" x="597.5227" y="37.3014">1..*</text><text fill="#000000" font-family="sans-serif" font-size="13" lengthAdjust="spacing" textLength="7" x="487.9384" y="859.5772">*</text></g><!--MD5=[6961a686895e87cd5535b3de8ea613b4]
link Candidature to Piece_dossier--><g id="link_Candidature_Piece_dossier"><path codeLine="96" d="M683.47,370.04 C694.39,379.05 705.68,389.35 715,400 C743.73,432.83 768.77,477.26 782.6,503.93 " fill="none" id="Candidature-Piece_dossier" style="stroke:#181818;stroke-width:1.0;"/><text fill="#000000" font-family="sans-serif" font-size="13" lengthAdjust="spacing" textLength="8" x="683.4044" y="390.2451">1</text><text fill="#000000" font-family="sans-serif" font-size="13" lengthAdjust="spacing" textLength="7" x="771.7819" y="492.9241">*</text></g><!--MD5=[8a07cc45ef6f6f81f3b9ce23f12adf62]
link Piece_dossier to Type_piece_dossier--><g id="link_Piece_dossier_Type_piece_dossier"><path codeLine="97" d="M794,552.2 C794,582.55 794,635.85 794,669.74 " fill="none" id="Piece_dossier-Type_piece_dossier" style="stroke:#181818;stroke-width:1.0;"/><text fill="#000000" font-family="sans-serif" font-size="13" lengthAdjust="spacing" textLength="7" x="786.1469" y="572.01">*</text><text fill="#000000" font-family="sans-serif" font-size="13" lengthAdjust="spacing" textLength="8" x="785.2125" y="658.963">1</text></g><!--MD5=[9f64ae86851017d0852d85643eb8012b]
link Candidature to Offre_emploi--><g id="link_Candidature_Offre_emploi"><path codeLine="98" d="M635.72,370.04 C630.66,399.77 622.95,445.03 617.11,479.33 " fill="none" id="Candidature-Offre_emploi" style="stroke:#181818;stroke-width:1.0;"/><polygon fill="#000000" points="633.1607,413.4955,637.5762,405.0721,631.7818,404.0854,633.1607,413.4955" style="stroke:#000000;stroke-width:1.0;"/><text fill="#000000" font-family="sans-serif" font-size="13" lengthAdjust="spacing" textLength="63" x="643" y="413.0669">Porter sur</text><text fill="#000000" font-family="sans-serif" font-size="13" lengthAdjust="spacing" textLength="7" x="626.9091" y="390.2451">*</text><text fill="#000000" font-family="sans-serif" font-size="13" lengthAdjust="spacing" textLength="8" x="609.688" y="468.515">1</text></g><!--MD5=[7d7e1adf8a925c3f4c3f81399c85cb71]
link Candidat to Candidature--><g id="link_Candidat_Candidature"><path codeLine="99" d="M554.27,204.78 C571.89,231.64 600.94,275.92 620.51,305.76 " fill="none" id="Candidat-Candidature" style="stroke:#181818;stroke-width:1.0;"/><polygon fill="#000000" points="606.7425,271.7472,604.2387,262.5721,599.3239,265.7961,606.7425,271.7472" style="stroke:#000000;stroke-width:1.0;"/><text fill="#000000" font-family="sans-serif" font-size="13" lengthAdjust="spacing" textLength="50" x="613" y="272.0669">Modifier</text><text fill="#000000" font-family="sans-serif" font-size="13" lengthAdjust="spacing" textLength="8" x="549.0171" y="224.6095">1</text><text fill="#000000" font-family="sans-serif" font-size="13" lengthAdjust="spacing" textLength="7" x="608.787" y="294.9869">*</text></g><!--MD5=[d15466ffb57fe712804033a972b33c40]
link Recruteur to Organisation--><g id="link_Recruteur_Organisation"><path codeLine="100" d="M488.32,53.61 C431.07,78.01 337.23,118.02 270.71,146.37 " fill="none" id="Recruteur-Organisation" style="stroke:#181818;stroke-width:1.0;"/><polygon fill="#000000" points="408.4004,95.527,417.8736,94.6838,415.5687,89.2767,408.4004,95.527" style="stroke:#000000;stroke-width:1.0;"/><text fill="#000000" font-family="sans-serif" font-size="13" lengthAdjust="spacing" textLength="90" x="422" y="98.0669">Travailler pour</text><text fill="#000000" font-family="sans-serif" font-size="13" lengthAdjust="spacing" textLength="7" x="473.3623" y="52.9059">*</text><text fill="#000000" font-family="sans-serif" font-size="13" lengthAdjust="spacing" textLength="8" x="278.498" y="139.4806">1</text></g><!--MD5=[1259844cecfea7a271733ea6e4ad7b02]
@startuml
note "Tous les attributs sont NOT NULL" as note

class Organisation{
  <primary> Siren : int
  nom : str
  siege_social : str
}

class Type_Organisation{
  <primary> name : str
}

class Offre_emploi {
  <primary> num : int
  date_validite : datetime
  indications : text
}

class etat_offre{
  <primary> etat : text
}


class fiche_poste {
  intitule : str
  responsable_hierarchique : str
  rythme_travail : float
  teletravail : bool
  salaire_min : float
  salaire_max : float
  descirption : text  
  
}

class statut_poste{
  <primary> statut : text
}

class type_metier{
  <primary> type : str
}

class lieu_mission{
  num : int
  rue : str
  ville : str
  code_postal : str

}

class Utilisateur{
  email : str UNIQUE
  nom : str
  prenom : str
  num_tel : str
  date_creation : datetime
  statut : bool
  password : str (hash)
}

class Administrateur{
  
}

class Recruteur{
  
}

class Candidat{
  
}

class Candidature{
  date_candidature : datetime
}

class Type_piece_dossier{
  <primary> type : text
}

class Piece_dossier{
}


Organisation "*" - - - "1" Type_Organisation
Organisation "1" - - - "*" fiche_poste : "Posséder>"
Offre_emploi "*" - - "1" etat_offre
fiche_poste "*" - - "1" statut_poste
fiche_poste "*" - - "1" type_metier
fiche_poste "*" - - "1" lieu_mission
Offre_emploi "*" - - - "1" fiche_poste : "Correspondre à >"
Administrateur - -> Utilisateur
Recruteur - -> Candidat
Candidat - - -> Utilisateur
Recruteur "1..*" - - - "*" fiche_poste : "Creer >"
Candidature "1" - - "*" Piece_dossier
Piece_dossier "*" - - "1" Type_piece_dossier
Candidature "*" - - "1" Offre_emploi : "Porter sur >"
Candidat "1" - - "*" Candidature : "Modifier >"
Recruteur "*" - - "1" Organisation : "Travailler pour >"
@enduml

PlantUML version 1.2022.7(Mon Aug 22 17:01:30 UTC 2022)
(GPL source distribution)
Java Runtime: OpenJDK Runtime Environment
JVM: OpenJDK 64-Bit Server VM
Default Encoding: UTF-8
Language: en
Country: null
--></g></svg>