<?xml version="1.0" encoding="UTF-8" standalone="no"?><svg xmlns="http://www.w3.org/2000/svg" xmlns:xlink="http://www.w3.org/1999/xlink" contentStyleType="text/css" height="2014px" preserveAspectRatio="none" style="width:1247px;height:2014px;background:#FFFFFF;" version="1.1" viewBox="0 0 1247 2014" width="1247px" zoomAndPan="magnify"><defs/><g><!--MD5=[9ccfa5f7817428fa0038984401a79548]
cluster use_case_g_gestion--><g id="cluster_use_case_g_gestion"><rect fill="none" height="334" rx="2.5" ry="2.5" style="stroke:#181818;stroke-width:1.0;" width="246" x="321" y="1674"/><text fill="#000000" font-family="sans-serif" font-size="14" font-weight="bold" lengthAdjust="spacing" textLength="156" x="366" y="1688.9951">use_case_g_gestion</text></g><!--MD5=[4517404fc65a3aca6ac54f0e9771c051]
cluster use_case_gestion_organisations--><g id="cluster_use_case_gestion_organisations"><rect fill="none" height="257" rx="2.5" ry="2.5" style="stroke:#181818;stroke-width:1.0;" width="1033.5" x="207.5" y="473"/><text fill="#000000" font-family="sans-serif" font-size="14" font-weight="bold" lengthAdjust="spacing" textLength="253" x="597.75" y="487.9951">use_case_gestion_organisations</text></g><!--MD5=[68de0b0f0c2f7127d8df845b84dbf105]
cluster use_case_gestion_utilisateurs--><g id="cluster_use_case_gestion_utilisateurs"><rect fill="none" height="442" rx="2.5" ry="2.5" style="stroke:#181818;stroke-width:1.0;" width="973.5" x="161" y="7"/><text fill="#000000" font-family="sans-serif" font-size="14" font-weight="bold" lengthAdjust="spacing" textLength="234" x="530.75" y="21.9951">use_case_gestion_utilisateurs</text></g><!--MD5=[fcb0b97f07f8beb0346c1cca981d9453]
cluster use_case_gestion_offre--><g id="cluster_use_case_gestion_offre"><rect fill="none" height="389" rx="2.5" ry="2.5" style="stroke:#181818;stroke-width:1.0;" width="927" x="186.5" y="1261"/><text fill="#000000" font-family="sans-serif" font-size="14" font-weight="bold" lengthAdjust="spacing" textLength="185" x="557.5" y="1275.9951">use_case_gestion_offre</text></g><!--MD5=[6037961428c8493d672bb61ef5f078ac]
cluster use_case_gestion_candidatures--><g id="cluster_use_case_gestion_candidatures"><rect fill="none" height="483" rx="2.5" ry="2.5" style="stroke:#181818;stroke-width:1.0;" width="949" x="205" y="754"/><text fill="#000000" font-family="sans-serif" font-size="14" font-weight="bold" lengthAdjust="spacing" textLength="249" x="555" y="768.9951">use_case_gestion_candidatures</text></g><g id="elem_f1"><ellipse cx="444.212" cy="1727.9424" fill="#F1F1F1" rx="82.712" ry="18.9424" style="stroke:#181818;stroke-width:0.5;"/><text fill="#000000" font-family="sans-serif" font-size="14" lengthAdjust="spacing" textLength="125" x="381.0208" y="1731.0215">gestion des offres</text></g><g id="elem_f2"><ellipse cx="443.9496" cy="1805.9899" fill="#F1F1F1" rx="105.4496" ry="23.4899" style="stroke:#181818;stroke-width:0.5;"/><text fill="#000000" font-family="sans-serif" font-size="14" lengthAdjust="spacing" textLength="176" x="355.9496" y="1808.8366">gestion des candidatures</text></g><g id="elem_f3"><ellipse cx="444.1147" cy="1887.1229" fill="#F1F1F1" rx="98.6147" ry="22.1229" style="stroke:#181818;stroke-width:0.5;"/><text fill="#000000" font-family="sans-serif" font-size="14" lengthAdjust="spacing" textLength="161" x="363.6147" y="1889.9696">gestion des utilisateurs</text></g><g id="elem_f4"><ellipse cx="443.8276" cy="1967.7655" fill="#F1F1F1" rx="106.8276" ry="23.7655" style="stroke:#181818;stroke-width:0.5;"/><text fill="#000000" font-family="sans-serif" font-size="14" lengthAdjust="spacing" textLength="179" x="354.3276" y="1970.6122">gestion des organisations</text></g><g id="elem_f5"><ellipse cx="443.8527" cy="553.9705" fill="#F1F1F1" rx="220.3527" ry="46.4705" style="stroke:#181818;stroke-width:0.5;"/><text fill="#000000" font-family="sans-serif" font-size="14" lengthAdjust="spacing" textLength="415" x="236.3527" y="556.8172">visualisation des demandes d'enregistrement d'organisation</text></g><g id="elem_f6"><ellipse cx="1024.297" cy="672.0594" fill="#F1F1F1" rx="198.297" ry="42.0594" style="stroke:#181818;stroke-width:0.5;"/><text fill="#000000" font-family="sans-serif" font-size="14" lengthAdjust="spacing" textLength="370" x="839.297" y="674.9061">valider les demandes d'enregistrement d'organisation</text></g><g id="elem_f7"><ellipse cx="1024.7427" cy="552.0485" fill="#F1F1F1" rx="200.7427" ry="42.5485" style="stroke:#181818;stroke-width:0.5;"/><text fill="#000000" font-family="sans-serif" font-size="14" lengthAdjust="spacing" textLength="375" x="837.2427" y="554.8952">refuser les demandes d'enregistrement d'organisation</text></g><g id="elem_f8"><ellipse cx="444.1801" cy="674.936" fill="#F1F1F1" rx="182.6801" ry="38.936" style="stroke:#181818;stroke-width:0.5;"/><text fill="#000000" font-family="sans-serif" font-size="14" lengthAdjust="spacing" textLength="338" x="275.1801" y="677.7827">visualisation des demandes validées ou refusées</text></g><g id="elem_f9"><ellipse cx="443.8679" cy="306.1736" fill="#F1F1F1" rx="106.3679" ry="23.6736" style="stroke:#181818;stroke-width:0.5;"/><text fill="#000000" font-family="sans-serif" font-size="14" lengthAdjust="spacing" textLength="178" x="354.8679" y="309.0203">visualisation des comptes</text></g><g id="elem_f10"><ellipse cx="443.9698" cy="398.894" fill="#F1F1F1" rx="157.4698" ry="33.894" style="stroke:#181818;stroke-width:0.5;"/><text fill="#000000" font-family="sans-serif" font-size="14" lengthAdjust="spacing" textLength="286" x="300.9698" y="401.7406">modification et suppression des comptes</text></g><g id="elem_f11"><ellipse cx="443.9969" cy="71.1994" fill="#F1F1F1" rx="133.9969" ry="29.1994" style="stroke:#181818;stroke-width:0.5;"/><text fill="#000000" font-family="sans-serif" font-size="14" lengthAdjust="spacing" textLength="237" x="325.4969" y="74.0461">attribution du rôle d'administrateur</text></g><g id="elem_f12"><ellipse cx="444.1608" cy="190.8322" fill="#F1F1F1" rx="267.1608" ry="55.8322" style="stroke:#181818;stroke-width:0.5;"/><text fill="#000000" font-family="sans-serif" font-size="14" lengthAdjust="spacing" textLength="510" x="189.1608" y="193.6788">visualiser les demandes de joindre une organisation en tant que recruteur</text></g><g id="elem_f13"><ellipse cx="1024.3872" cy="226.7774" fill="#F1F1F1" rx="91.8872" ry="20.7774" style="stroke:#181818;stroke-width:0.5;"/><text fill="#000000" font-family="sans-serif" font-size="14" lengthAdjust="spacing" textLength="146" x="951.3872" y="229.6241">valider les demandes</text></g><g id="elem_f14"><ellipse cx="1024.6163" cy="150.2233" fill="#F1F1F1" rx="94.1163" ry="21.2233" style="stroke:#181818;stroke-width:0.5;"/><text fill="#000000" font-family="sans-serif" font-size="14" lengthAdjust="spacing" textLength="151" x="949.1163" y="153.0699">refuser les demandes</text></g><g id="elem_f15"><ellipse cx="444.0056" cy="1347.2011" fill="#F1F1F1" rx="241.5056" ry="50.7011" style="stroke:#181818;stroke-width:0.5;"/><text fill="#000000" font-family="sans-serif" font-size="14" lengthAdjust="spacing" textLength="458" x="215.0056" y="1350.0478">visualisation des offres encore valides et expirées de l'organisation</text></g><g id="elem_f16"><ellipse cx="443.9563" cy="1450.7913" fill="#F1F1F1" rx="76.9563" ry="17.7913" style="stroke:#181818;stroke-width:0.5;"/><text fill="#000000" font-family="sans-serif" font-size="14" lengthAdjust="spacing" textLength="111" x="385.5675" y="1454.5101">poster une offre</text></g><g id="elem_f17"><ellipse cx="444.0326" cy="1531.8065" fill="#F1F1F1" rx="124.5326" ry="27.3065" style="stroke:#181818;stroke-width:0.5;"/><text fill="#000000" font-family="sans-serif" font-size="14" lengthAdjust="spacing" textLength="217" x="335.5326" y="1534.6532">modifier ou supprimer une offre</text></g><g id="elem_f18"><ellipse cx="443.8592" cy="1613.8718" fill="#F1F1F1" rx="84.8592" ry="19.3718" style="stroke:#181818;stroke-width:0.5;"/><text fill="#000000" font-family="sans-serif" font-size="14" lengthAdjust="spacing" textLength="130" x="378.8592" y="1616.7185">visualiser les offres</text></g><g id="elem_f19"><ellipse cx="1024.4333" cy="1601.9867" fill="#F1F1F1" rx="70.4333" ry="16.4867" style="stroke:#181818;stroke-width:0.5;"/><text fill="#000000" font-family="sans-serif" font-size="14" lengthAdjust="spacing" textLength="94" x="974.4333" y="1605.7342">trier les offres</text></g><g id="elem_f20"><ellipse cx="1024.5678" cy="1533.0136" fill="#F1F1F1" rx="73.0678" ry="17.0136" style="stroke:#181818;stroke-width:0.5;"/><text fill="#000000" font-family="sans-serif" font-size="14" lengthAdjust="spacing" textLength="101" x="971.0678" y="1536.7611">filtrer les offres</text></g><g id="elem_f21"><ellipse cx="443.9927" cy="820.7985" fill="#F1F1F1" rx="144.4927" ry="31.2985" style="stroke:#181818;stroke-width:0.5;"/><text fill="#000000" font-family="sans-serif" font-size="14" lengthAdjust="spacing" textLength="259" x="314.4927" y="823.6452">visualiser les candidatures à une offre</text></g><g id="elem_f22"><ellipse cx="1024.5673" cy="891.2135" fill="#F1F1F1" rx="99.0673" ry="22.2135" style="stroke:#181818;stroke-width:0.5;"/><text fill="#000000" font-family="sans-serif" font-size="14" lengthAdjust="spacing" textLength="162" x="943.5673" y="894.0601">accepter la candidature</text></g><g id="elem_f23"><ellipse cx="1024.6693" cy="813.1339" fill="#F1F1F1" rx="93.6693" ry="21.1339" style="stroke:#181818;stroke-width:0.5;"/><text fill="#000000" font-family="sans-serif" font-size="14" lengthAdjust="spacing" textLength="150" x="949.6693" y="815.9805">refuser la candidature</text></g><g id="elem_f24"><ellipse cx="444.1693" cy="909.1339" fill="#F1F1F1" rx="93.6693" ry="21.1339" style="stroke:#181818;stroke-width:0.5;"/><text fill="#000000" font-family="sans-serif" font-size="14" lengthAdjust="spacing" textLength="150" x="369.1693" y="911.9805">télécharger le dossier</text></g><g id="elem_f25"><ellipse cx="444.1163" cy="986.2233" fill="#F1F1F1" rx="94.1163" ry="21.2233" style="stroke:#181818;stroke-width:0.5;"/><text fill="#000000" font-family="sans-serif" font-size="14" lengthAdjust="spacing" textLength="151" x="368.6163" y="989.0699">candidater à une offre</text></g><g id="elem_f26"><ellipse cx="444.0557" cy="1066.9111" fill="#F1F1F1" rx="110.0557" ry="24.4111" style="stroke:#181818;stroke-width:0.5;"/><text fill="#000000" font-family="sans-serif" font-size="14" lengthAdjust="spacing" textLength="186" x="351.0557" y="1069.7578">visualiser ses candidatures</text></g><g id="elem_f27"><ellipse cx="1024.3679" cy="1112.1736" fill="#F1F1F1" rx="106.3679" ry="23.6736" style="stroke:#181818;stroke-width:0.5;"/><text fill="#000000" font-family="sans-serif" font-size="14" lengthAdjust="spacing" textLength="178" x="935.3679" y="1115.0203">modifier ses candidatures</text></g><g id="elem_f28"><ellipse cx="1024.3004" cy="1028.0601" fill="#F1F1F1" rx="113.3004" ry="25.0601" style="stroke:#181818;stroke-width:0.5;"/><text fill="#000000" font-family="sans-serif" font-size="14" lengthAdjust="spacing" textLength="193" x="927.8004" y="1030.9068">supprimer ses candidatures</text></g><g id="elem_f29"><ellipse cx="443.8088" cy="1173.9618" fill="#F1F1F1" rx="222.8088" ry="46.9618" style="stroke:#181818;stroke-width:0.5;"/><text fill="#000000" font-family="sans-serif" font-size="14" lengthAdjust="spacing" textLength="420" x="233.8088" y="1176.8084">demander à rejoindre une organisation en tant que recruteur</text></g><!--MD5=[c029411dbffe9182df3250f66e035fda]
entity Recruteur--><g id="elem_Recruteur"><ellipse cx="60" cy="1700.5" fill="#F1F1F1" rx="8" ry="8" style="stroke:#181818;stroke-width:0.5;"/><path d="M60,1708.5 L60,1735.5 M47,1716.5 L73,1716.5 M60,1735.5 L47,1750.5 M60,1735.5 L73,1750.5 " fill="none" style="stroke:#181818;stroke-width:0.5;"/><text fill="#000000" font-family="sans-serif" font-size="14" lengthAdjust="spacing" textLength="69" x="25.5" y="1764.9951">Recruteur</text></g><!--MD5=[8c47227c8d67bae04609736da90d0977]
entity Candidat--><g id="elem_Candidat"><ellipse cx="60" cy="1811.5" fill="#F1F1F1" rx="8" ry="8" style="stroke:#181818;stroke-width:0.5;"/><path d="M60,1819.5 L60,1846.5 M47,1827.5 L73,1827.5 M60,1846.5 L47,1861.5 M60,1846.5 L73,1861.5 " fill="none" style="stroke:#181818;stroke-width:0.5;"/><text fill="#000000" font-family="sans-serif" font-size="14" lengthAdjust="spacing" textLength="61" x="29.5" y="1875.9951">Candidat</text></g><!--MD5=[15e5ddc83016ae037314666173a341e2]
entity Administrateur--><g id="elem_Administrateur"><ellipse cx="60" cy="1923.5" fill="#F1F1F1" rx="8" ry="8" style="stroke:#181818;stroke-width:0.5;"/><path d="M60,1931.5 L60,1958.5 M47,1939.5 L73,1939.5 M60,1958.5 L47,1973.5 M60,1958.5 L73,1973.5 " fill="none" style="stroke:#181818;stroke-width:0.5;"/><text fill="#000000" font-family="sans-serif" font-size="14" lengthAdjust="spacing" textLength="100" x="10" y="1987.9951">Administrateur</text></g><!--MD5=[ce6ba15dc8c2c7067c0301f68d5641c2]
entity Administrateur --><g id="elem_Administrateur "><ellipse cx="60" cy="604.5" fill="#F1F1F1" rx="8" ry="8" style="stroke:#181818;stroke-width:0.5;"/><path d="M60,612.5 L60,639.5 M47,620.5 L73,620.5 M60,639.5 L47,654.5 M60,639.5 L73,654.5 " fill="none" style="stroke:#181818;stroke-width:0.5;"/><text fill="#000000" font-family="sans-serif" font-size="14" lengthAdjust="spacing" textLength="100" x="8" y="668.9951">Administrateur</text></g><!--MD5=[152ce11e725aa3ef5ee02bb8f1e67303]
entity Administrateur  --><g id="elem_Administrateur  "><ellipse cx="60" cy="219.5" fill="#F1F1F1" rx="8" ry="8" style="stroke:#181818;stroke-width:0.5;"/><path d="M60,227.5 L60,254.5 M47,235.5 L73,235.5 M60,254.5 L47,269.5 M60,254.5 L73,269.5 " fill="none" style="stroke:#181818;stroke-width:0.5;"/><text fill="#000000" font-family="sans-serif" font-size="14" lengthAdjust="spacing" textLength="100" x="6" y="283.9951">Administrateur</text></g><!--MD5=[3b85660873f9601c443d141f88dd9eff]
entity Candidat --><g id="elem_Candidat "><ellipse cx="60" cy="1572.5" fill="#F1F1F1" rx="8" ry="8" style="stroke:#181818;stroke-width:0.5;"/><path d="M60,1580.5 L60,1607.5 M47,1588.5 L73,1588.5 M60,1607.5 L47,1622.5 M60,1607.5 L73,1622.5 " fill="none" style="stroke:#181818;stroke-width:0.5;"/><text fill="#000000" font-family="sans-serif" font-size="14" lengthAdjust="spacing" textLength="61" x="27.5" y="1636.9951">Candidat</text></g><!--MD5=[8ef27517fa1081ccf2360648cd14c361]
entity Recruteur --><g id="elem_Recruteur "><ellipse cx="60" cy="1457.5" fill="#F1F1F1" rx="8" ry="8" style="stroke:#181818;stroke-width:0.5;"/><path d="M60,1465.5 L60,1492.5 M47,1473.5 L73,1473.5 M60,1492.5 L47,1507.5 M60,1492.5 L73,1507.5 " fill="none" style="stroke:#181818;stroke-width:0.5;"/><text fill="#000000" font-family="sans-serif" font-size="14" lengthAdjust="spacing" textLength="69" x="23.5" y="1521.9951">Recruteur</text></g><!--MD5=[e4112c0fbc84639cfae239feadeecb6b]
entity Recruteur  --><g id="elem_Recruteur  "><ellipse cx="60" cy="879.5" fill="#F1F1F1" rx="8" ry="8" style="stroke:#181818;stroke-width:0.5;"/><path d="M60,887.5 L60,914.5 M47,895.5 L73,895.5 M60,914.5 L47,929.5 M60,914.5 L73,929.5 " fill="none" style="stroke:#181818;stroke-width:0.5;"/><text fill="#000000" font-family="sans-serif" font-size="14" lengthAdjust="spacing" textLength="69" x="21.5" y="943.9951">Recruteur</text></g><!--MD5=[6e7b07db33a0620a4f74daf9cfc942ad]
entity Candidat  --><g id="elem_Candidat  "><ellipse cx="60" cy="1004.5" fill="#F1F1F1" rx="8" ry="8" style="stroke:#181818;stroke-width:0.5;"/><path d="M60,1012.5 L60,1039.5 M47,1020.5 L73,1020.5 M60,1039.5 L47,1054.5 M60,1039.5 L73,1054.5 " fill="none" style="stroke:#181818;stroke-width:0.5;"/><text fill="#000000" font-family="sans-serif" font-size="14" lengthAdjust="spacing" textLength="61" x="25.5" y="1068.9951">Candidat</text></g><!--MD5=[2bbe2d45ded278942d3c439dc3d522cd]
link f5 to f6--><g id="link_f5_f6"><path d="M603.08,586.24 C688.19,603.61 792.54,624.89 875.98,641.91 " fill="none" id="f5-to-f6" style="stroke:#181818;stroke-width:1.0;stroke-dasharray:7.0,7.0;"/><polygon fill="#181818" points="880.94,642.92,872.9216,637.2011,876.041,641.9202,871.3219,645.0396,880.94,642.92" style="stroke:#181818;stroke-width:1.0;"/><text fill="#000000" font-family="sans-serif" font-size="13" lengthAdjust="spacing" textLength="51" x="742" y="613.0669">extends</text></g><!--MD5=[3f184dcab881f250cc4db91f08705ee2]
link f5 to f7--><g id="link_f5_f7"><path d="M664.53,553.24 C715.06,553.07 768.6,552.88 818.48,552.71 " fill="none" id="f5-to-f7" style="stroke:#181818;stroke-width:1.0;stroke-dasharray:7.0,7.0;"/><polygon fill="#181818" points="823.61,552.69,814.5986,548.7157,818.61,552.7043,814.6215,556.7157,823.61,552.69" style="stroke:#181818;stroke-width:1.0;"/><text fill="#000000" font-family="sans-serif" font-size="13" lengthAdjust="spacing" textLength="51" x="742" y="549.0669">extends</text></g><!--MD5=[47d9c71874f578a4fd1353fb788e5df8]
link f12 to f13--><g id="link_f12_f13"><path d="M683.58,215.89 C702.99,217.45 722.32,218.85 741,220 C802.91,223.79 872.56,225.55 927.22,226.35 " fill="none" id="f12-to-f13" style="stroke:#181818;stroke-width:1.0;stroke-dasharray:7.0,7.0;"/><polygon fill="#181818" points="932.46,226.43,923.5182,222.3015,927.4605,226.3584,923.4036,230.3007,932.46,226.43" style="stroke:#181818;stroke-width:1.0;"/><text fill="#000000" font-family="sans-serif" font-size="13" lengthAdjust="spacing" textLength="51" x="742" y="216.0669">extends</text></g><!--MD5=[b11fad1b181e8c2c8c17392fbbcd9e05]
link f12 to f14--><g id="link_f12_f14"><path d="M697.06,173.14 C779.53,167.29 866.12,161.15 929.37,156.67 " fill="none" id="f12-to-f14" style="stroke:#181818;stroke-width:1.0;stroke-dasharray:7.0,7.0;"/><polygon fill="#181818" points="934.65,156.3,925.3879,152.9514,929.6627,156.6562,925.9579,160.9311,934.65,156.3" style="stroke:#181818;stroke-width:1.0;"/><text fill="#000000" font-family="sans-serif" font-size="13" lengthAdjust="spacing" textLength="51" x="742" y="163.0669">extends</text></g><!--MD5=[29a5cf3d438b85acbefba9a2c0fdf0fb]
link f18 to f19--><g id="link_f18_f19"><path d="M528.81,1612.26 C641.78,1609.92 841.16,1605.78 949.09,1603.54 " fill="none" id="f18-to-f19" style="stroke:#181818;stroke-width:1.0;stroke-dasharray:7.0,7.0;"/><polygon fill="#181818" points="954.16,1603.44,945.0709,1599.6467,949.1613,1603.5543,945.2538,1607.6446,954.16,1603.44" style="stroke:#181818;stroke-width:1.0;"/><text fill="#000000" font-family="sans-serif" font-size="13" lengthAdjust="spacing" textLength="51" x="742" y="1602.0669">extends</text></g><!--MD5=[268f8b93eda26ae5ebcbcf36e8be681d]
link f18 to f20--><g id="link_f18_f20"><path d="M517.26,1603.98 C570.76,1596.56 645.43,1586.18 711,1577 C795.57,1565.16 893.01,1551.43 956.29,1542.5 " fill="none" id="f18-to-f20" style="stroke:#181818;stroke-width:1.0;stroke-dasharray:7.0,7.0;"/><polygon fill="#181818" points="961.54,1541.75,952.0691,1539.0477,956.5891,1542.4491,953.1877,1546.9691,961.54,1541.75" style="stroke:#181818;stroke-width:1.0;"/><text fill="#000000" font-family="sans-serif" font-size="13" lengthAdjust="spacing" textLength="51" x="742" y="1562.0669">extends</text></g><!--MD5=[600cc82ebb55e5a1914791de6d66b022]
link f26 to f27--><g id="link_f26_f27"><path d="M548.09,1075.02 C652.55,1083.14 813.33,1095.65 918.48,1103.83 " fill="none" id="f26-to-f27" style="stroke:#181818;stroke-width:1.0;stroke-dasharray:7.0,7.0;"/><polygon fill="#181818" points="923.75,1104.24,915.0853,1099.5577,918.7649,1103.8543,914.4683,1107.5339,923.75,1104.24" style="stroke:#181818;stroke-width:1.0;"/><text fill="#000000" font-family="sans-serif" font-size="13" lengthAdjust="spacing" textLength="51" x="742" y="1087.0669">extends</text></g><!--MD5=[7eed7e9577e839b5227d81657da6256a]
link f26 to f28--><g id="link_f26_f28"><path d="M549.43,1059.96 C651.2,1053.1 805.51,1042.7 910.21,1035.64 " fill="none" id="f26-to-f28" style="stroke:#181818;stroke-width:1.0;stroke-dasharray:7.0,7.0;"/><polygon fill="#181818" points="915.47,1035.28,906.2174,1031.9051,910.4817,1035.6221,906.7647,1039.8863,915.47,1035.28" style="stroke:#181818;stroke-width:1.0;"/><text fill="#000000" font-family="sans-serif" font-size="13" lengthAdjust="spacing" textLength="51" x="742" y="1041.0669">extends</text></g><!--MD5=[467c5cada9e670da367b9b3c21e61b6b]
link f21 to f22--><g id="link_f21_f22"><path d="M570.88,836.23 C679.78,849.41 834.65,868.15 932.07,879.94 " fill="none" id="f21-to-f22" style="stroke:#181818;stroke-width:1.0;stroke-dasharray:7.0,7.0;"/><polygon fill="#181818" points="937.24,880.56,928.7841,875.5104,932.276,879.9609,927.8256,883.4528,937.24,880.56" style="stroke:#181818;stroke-width:1.0;"/><text fill="#000000" font-family="sans-serif" font-size="13" lengthAdjust="spacing" textLength="51" x="742" y="855.0669">extends</text></g><!--MD5=[81d217fc2c3ca3fd581021c2a66bb5b2]
link f21 to f23--><g id="link_f21_f23"><path d="M588.37,819.02 C693.46,817.56 833.35,815.63 925.8,814.35 " fill="none" id="f21-to-f23" style="stroke:#181818;stroke-width:1.0;stroke-dasharray:7.0,7.0;"/><polygon fill="#181818" points="931,814.28,921.9438,810.409,926.0005,814.3514,922.0581,818.4082,931,814.28" style="stroke:#181818;stroke-width:1.0;"/><text fill="#000000" font-family="sans-serif" font-size="13" lengthAdjust="spacing" textLength="51" x="742" y="813.0669">extends</text></g><!--MD5=[cdd581bd78155685686e3c7a6bc41806]
link Recruteur to Candidat--><g id="link_Recruteur_Candidat"><path d="M60,1768.13 C60,1777.98 60,1787.84 60,1797.69 " fill="none" id="Recruteur-to-Candidat" style="stroke:#181818;stroke-width:1.0;"/><polygon fill="#181818" points="60,1802.84,64,1793.84,60,1797.84,56,1793.84,60,1802.84" style="stroke:#181818;stroke-width:1.0;"/></g><!--MD5=[841d2506f668d4fc24a756baf654798d]
link Candidat to f1--><g id="link_Candidat_f1"><path d="M90.76,1808.97 C107.46,1793.07 129.62,1775.13 153,1765 C217.43,1737.1 296.9,1728.55 356.35,1726.58 " fill="none" id="Candidat-to-f1" style="stroke:#181818;stroke-width:1.0;"/><polygon fill="#181818" points="361.67,1726.42,352.5488,1722.7047,356.6725,1726.5771,352.8001,1730.7007,361.67,1726.42" style="stroke:#181818;stroke-width:1.0;"/></g><!--MD5=[083b5bbc0a36280129812cb584907903]
link Candidat to f2--><g id="link_Candidat_f2"><path d="M90.66,1838.28 C143.63,1833.43 256.8,1823.06 340.66,1815.38 " fill="none" id="Candidat-to-f2" style="stroke:#181818;stroke-width:1.0;"/><polygon fill="#181818" points="345.89,1814.9,336.5624,1811.7385,340.9109,1815.3565,337.2928,1819.7051,345.89,1814.9" style="stroke:#181818;stroke-width:1.0;"/></g><!--MD5=[16ce5ab2986064e16a83ee53ec658d78]
link Recruteur to f1--><g id="link_Recruteur_f1"><path d="M94.57,1729.82 C152.46,1729.52 272.86,1728.89 355.78,1728.46 " fill="none" id="Recruteur-to-f1" style="stroke:#181818;stroke-width:1.0;"/><polygon fill="#181818" points="361.19,1728.43,352.1673,1724.4815,356.1901,1728.4586,352.213,1732.4814,361.19,1728.43" style="stroke:#181818;stroke-width:1.0;"/></g><!--MD5=[3876f6b3d7345a9db350ba842440aaca]
link Recruteur to f2--><g id="link_Recruteur_f2"><path d="M94.92,1744.99 C112.04,1752.01 133.31,1759.93 153,1765 C214.18,1780.75 284.29,1790.87 340.25,1797.12 " fill="none" id="Recruteur-to-f2" style="stroke:#181818;stroke-width:1.0;"/><polygon fill="#181818" points="345.27,1797.67,336.7574,1792.7167,340.2995,1797.1272,335.889,1800.6694,345.27,1797.67" style="stroke:#181818;stroke-width:1.0;"/></g><!--MD5=[1a5b4a256a91fb3e60a8b9bdd46584db]
link Administrateur to f3--><g id="link_Administrateur_f3"><path d="M110.34,1937.7 C124.06,1933.82 139.03,1929.92 153,1927 C217.83,1913.44 291.8,1903.32 348.81,1896.65 " fill="none" id="Administrateur-to-f3" style="stroke:#181818;stroke-width:1.0;"/><polygon fill="#181818" points="353.93,1896.06,344.5321,1893.1139,348.9627,1896.631,345.4456,1901.0616,353.93,1896.06" style="stroke:#181818;stroke-width:1.0;"/></g><!--MD5=[8059af776d16942b052f2431a2de837e]
link Administrateur to f4--><g id="link_Administrateur_f4"><path d="M110.16,1954.93 C166.14,1957.13 259.38,1960.79 332.95,1963.68 " fill="none" id="Administrateur-to-f4" style="stroke:#181818;stroke-width:1.0;"/><polygon fill="#181818" points="338.21,1963.89,329.3647,1959.5587,333.2134,1963.7044,329.0677,1967.5532,338.21,1963.89" style="stroke:#181818;stroke-width:1.0;"/></g><!--MD5=[c15c923a9f84f57c26742080606436c3]
link Administrateur  to f5--><g id="link_Administrateur _f5"><path d="M112.12,623.29 C155.72,614.16 220.86,600.52 281.83,587.75 " fill="none" id="Administrateur -to-f5" style="stroke:#181818;stroke-width:1.0;"/><polygon fill="#181818" points="286.96,586.68,277.3302,584.6142,282.0666,587.7072,278.9737,592.4436,286.96,586.68" style="stroke:#181818;stroke-width:1.0;"/></g><!--MD5=[57956c14fc6656c0d345b6d61917a40c]
link Administrateur  to f8--><g id="link_Administrateur _f8"><path d="M112.12,639.49 C154.24,644.01 216.45,650.68 275.59,657.03 " fill="none" id="Administrateur -to-f8" style="stroke:#181818;stroke-width:1.0;"/><polygon fill="#181818" points="280.57,657.57,272.0433,652.6409,275.598,657.0414,271.1975,660.596,280.57,657.57" style="stroke:#181818;stroke-width:1.0;"/></g><!--MD5=[6e8bb64c16ccb191dcdbdb88795bb248]
link Administrateur   to f9--><g id="link_Administrateur  _f9"><path d="M114,257.81 C126.77,259.88 140.36,262.06 153,264 C218.28,274.05 291.94,284.71 348.68,292.77 " fill="none" id="Administrateur  -to-f9" style="stroke:#181818;stroke-width:1.0;"/><polygon fill="#181818" points="353.77,293.5,345.4177,288.2809,348.8191,292.8009,344.2991,296.2023,353.77,293.5" style="stroke:#181818;stroke-width:1.0;"/></g><!--MD5=[ee40ec3417981d8a1c1787af6e5597f4]
link Administrateur   to f10--><g id="link_Administrateur  _f10"><path d="M87.31,287.31 C103.75,308.25 126.75,332.75 153,347 C193.48,368.96 241.35,381.91 286.41,389.47 " fill="none" id="Administrateur  -to-f10" style="stroke:#181818;stroke-width:1.0;"/><polygon fill="#181818" points="291.61,390.32,283.3799,384.9103,286.6765,389.5073,282.0795,392.8039,291.61,390.32" style="stroke:#181818;stroke-width:1.0;"/></g><!--MD5=[1896852cad7ef2d1dc88a121b1878088]
link Administrateur   to f11--><g id="link_Administrateur  _f11"><path d="M77.15,210.98 C92.18,180.47 117.61,139.17 153,117 C197.79,88.94 253.87,76.06 304.75,70.67 " fill="none" id="Administrateur  -to-f11" style="stroke:#181818;stroke-width:1.0;"/><polygon fill="#181818" points="309.98,70.14,300.6249,67.0607,305.0051,70.6403,301.4255,75.0206,309.98,70.14" style="stroke:#181818;stroke-width:1.0;"/></g><!--MD5=[d509f5d00fd5d55a645cbd7be52053ce]
link Administrateur   to f12--><g id="link_Administrateur  _f12"><path d="M114.12,240.94 C143.25,236.51 181.55,230.7 221.68,224.6 " fill="none" id="Administrateur  -to-f12" style="stroke:#181818;stroke-width:1.0;"/><polygon fill="#181818" points="227.1,223.78,217.6055,221.162,222.1555,224.5231,218.7944,229.0732,227.1,223.78" style="stroke:#181818;stroke-width:1.0;"/></g><!--MD5=[cd45a8ae32152599b0e54e907e211b36]
link Candidat  to f18--><g id="link_Candidat _f18"><path d="M92.59,1602.99 C149.31,1604.77 270.35,1608.58 354.17,1611.21 " fill="none" id="Candidat -to-f18" style="stroke:#181818;stroke-width:1.0;"/><polygon fill="#181818" points="359.39,1611.37,350.5201,1607.0893,354.3925,1611.2129,350.2688,1615.0853,359.39,1611.37" style="stroke:#181818;stroke-width:1.0;"/></g><!--MD5=[ae6866463f884a1583185753fd1b9533]
link Recruteur  to Candidat --><g id="link_Recruteur _Candidat "><path d="M60,1525.11 C60,1536.3 60,1547.49 60,1558.68 " fill="none" id="Recruteur -to-Candidat " style="stroke:#181818;stroke-width:1.0;"/><polygon fill="#181818" points="60,1563.82,64,1554.82,60,1558.82,56,1554.82,60,1563.82" style="stroke:#181818;stroke-width:1.0;"/></g><!--MD5=[f029c064660398938903de3d27b612a3]
link Recruteur  to f15--><g id="link_Recruteur _f15"><path d="M96.66,1453.76 C112.81,1440.28 132.79,1425.65 153,1416 C183.83,1401.28 218.03,1389.57 251.83,1380.29 " fill="none" id="Recruteur -to-f15" style="stroke:#181818;stroke-width:1.0;"/><polygon fill="#181818" points="256.81,1378.93,247.0754,1377.4341,251.9855,1380.2432,249.1765,1385.1533,256.81,1378.93" style="stroke:#181818;stroke-width:1.0;"/></g><!--MD5=[97f171d0154853b78daed1fb6272dbbd]
link Recruteur  to f16--><g id="link_Recruteur _f16"><path d="M96.59,1483.65 C157.94,1477.86 284.89,1465.9 366.89,1458.17 " fill="none" id="Recruteur -to-f16" style="stroke:#181818;stroke-width:1.0;"/><polygon fill="#181818" points="372.22,1457.67,362.8826,1454.5375,367.2423,1458.142,363.6378,1462.5018,372.22,1457.67" style="stroke:#181818;stroke-width:1.0;"/></g><!--MD5=[0f5260587d16b6700c43eff4cae5e1d2]
link Recruteur  to f17--><g id="link_Recruteur _f17"><path d="M96.59,1491.19 C148.97,1497.36 249.17,1509.17 328.38,1518.5 " fill="none" id="Recruteur -to-f17" style="stroke:#181818;stroke-width:1.0;"/><polygon fill="#181818" points="333.57,1519.11,325.1015,1514.0816,328.6045,1518.5233,324.1628,1522.0263,333.57,1519.11" style="stroke:#181818;stroke-width:1.0;"/></g><!--MD5=[390ee0489062c32e93170220d341e704]
link Recruteur   to Candidat  --><g id="link_Recruteur  _Candidat  "><path d="M60,947.02 C60,961.54 60,976.05 60,990.57 " fill="none" id="Recruteur  -to-Candidat  " style="stroke:#181818;stroke-width:1.0;"/><polygon fill="#181818" points="60,995.91,64,986.91,60,990.91,56,986.91,60,995.91" style="stroke:#181818;stroke-width:1.0;"/></g><!--MD5=[e0924d691b8918d58540dc557bfbc96d]
link Candidat   to f25--><g id="link_Candidat  _f25"><path d="M94.57,1029.78 C152.55,1022.5 273.23,1007.33 356.17,996.91 " fill="none" id="Candidat  -to-f25" style="stroke:#181818;stroke-width:1.0;"/><polygon fill="#181818" points="361.57,996.23,352.1464,993.3672,356.608,996.8449,353.1302,1001.3064,361.57,996.23" style="stroke:#181818;stroke-width:1.0;"/></g><!--MD5=[1dc265c76216c5dca54cd5ace4936327]
link Candidat   to f26--><g id="link_Candidat  _f26"><path d="M94.57,1036.9 C147.92,1041.51 254.35,1050.7 335.62,1057.72 " fill="none" id="Candidat  -to-f26" style="stroke:#181818;stroke-width:1.0;"/><polygon fill="#181818" points="340.94,1058.18,332.3156,1053.4239,335.9584,1057.7518,331.6305,1061.3945,340.94,1058.18" style="stroke:#181818;stroke-width:1.0;"/></g><!--MD5=[cc1e79b8ef16600ae08ac798d4bad62f]
link Candidat   to f29--><g id="link_Candidat  _f29"><path d="M94.58,1067.77 C110.95,1082.46 131.68,1098.64 153,1109 C185.07,1124.58 220.96,1136.48 256.26,1145.56 " fill="none" id="Candidat  -to-f29" style="stroke:#181818;stroke-width:1.0;"/><polygon fill="#181818" points="261.47,1146.88,253.7299,1140.7897,256.6235,1145.6505,251.7627,1148.5441,261.47,1146.88" style="stroke:#181818;stroke-width:1.0;"/></g><!--MD5=[793e3d059155f350e906dadb8c69324a]
link Recruteur   to f21--><g id="link_Recruteur  _f21"><path d="M98.77,890.63 C115.12,883.3 134.68,875.35 153,870 C203.82,855.16 261.05,844.3 311.16,836.63 " fill="none" id="Recruteur  -to-f21" style="stroke:#181818;stroke-width:1.0;"/><polygon fill="#181818" points="316.29,835.85,306.7955,833.232,311.3455,836.5931,307.9844,841.1432,316.29,835.85" style="stroke:#181818;stroke-width:1.0;"/></g><!--MD5=[12bc44796876a2d4dedcdd5dd24108f6]
link Recruteur   to f24--><g id="link_Recruteur  _f24"><path d="M98.67,909 C155.4,909 264.65,909 344.94,909 " fill="none" id="Recruteur  -to-f24" style="stroke:#181818;stroke-width:1.0;"/><polygon fill="#181818" points="350.18,909,341.18,905,345.18,909,341.18,913,350.18,909" style="stroke:#181818;stroke-width:1.0;"/></g><!--MD5=[31089b43c763b8a63ebffc01753a04ca]
@startuml
left to right direction
rectangle use_case_g_gestion{
"gestion des offres" as (f1)
"gestion des candidatures" as (f2)
"gestion des utilisateurs" as (f3)
"gestion des organisations" as (f4)
}


rectangle use_case_gestion_organisations{
"visualisation des demandes d'enregistrement d'organisation" as (f5)
"valider les demandes d'enregistrement d'organisation" as (f6)
"refuser les demandes d'enregistrement d'organisation" as (f7)
"visualisation des demandes validées ou refusées" as (f8)
}


rectangle use_case_gestion_utilisateurs{
"visualisation des comptes" as (f9)
"modification et suppression des comptes" as (f10)
"attribution du rôle d'administrateur" as (f11)
"visualiser les demandes de joindre une organisation en tant que recruteur" as (f12)
"valider les demandes" as (f13)
"refuser les demandes" as (f14)
}


rectangle use_case_gestion_offre{
"visualisation des offres encore valides et expirées de l'organisation" as (f15)
"poster une offre" as (f16)
"modifier ou supprimer une offre" as (f17)
"visualiser les offres" as (f18)
"trier les offres" as (f19)
"filtrer les offres" as (f20)
}


rectangle use_case_gestion_candidatures{
"visualiser les candidatures à une offre" as (f21)
"accepter la candidature" as (f22)
"refuser la candidature" as (f23)
"télécharger le dossier" as (f24)
"candidater à une offre" as (f25)
"visualiser ses candidatures" as (f26)
"modifier ses candidatures" as (f27)
"supprimer ses candidatures" as (f28)
"demander à rejoindre une organisation en tant que recruteur" as (f29)
}


(f5) ..> (f6) : extends
(f5) ..> (f7) : extends
(f12) ..> (f13) : extends
(f12) ..> (f14) : extends
(f18) ..> (f19) : extends
(f18) ..> (f20) : extends
(f26) ..> (f27) : extends
(f26) ..> (f28) : extends
(f21) ..> (f22) : extends
(f21) ..> (f23) : extends

:Recruteur: -> :Candidat:
:Candidat: - -> (f1)
:Candidat: - -> (f2)
:Recruteur: - -> (f1)
:Recruteur: - -> (f2)
:Administrateur: - -> (f3)
:Administrateur: - -> (f4)
:Administrateur : - -> (f5)
:Administrateur : - -> (f8)
:Administrateur  : - -> (f9)
:Administrateur  : - -> (f10)
:Administrateur  : - -> (f11)
:Administrateur  : - -> (f12)
:Candidat : - -> (f18)
:Recruteur : -> :Candidat :
:Recruteur : - -> (f15)
:Recruteur : - -> (f16)
:Recruteur : - -> (f17)
:Recruteur  : -> :Candidat  :
:Candidat  : - -> (f25)
:Candidat  : - -> (f26)
:Candidat  : - -> (f29)
:Recruteur  : - -> (f21)
:Recruteur  : - -> (f24)
@enduml

PlantUML version 1.2022.7(Mon Aug 22 17:01:30 UTC 2022)
(GPL source distribution)
Java Runtime: OpenJDK Runtime Environment
JVM: OpenJDK 64-Bit Server VM
Default Encoding: UTF-8
Language: en
Country: null
--></g></svg>