<?xml version="1.0" encoding="UTF-8" standalone="no"?><svg xmlns="http://www.w3.org/2000/svg" xmlns:xlink="http://www.w3.org/1999/xlink" contentStyleType="text/css" height="2014px" preserveAspectRatio="none" style="width:1247px;height:2014px;background:#FFFFFF;" version="1.1" viewBox="0 0 1247 2014" width="1247px" zoomAndPan="magnify"><defs/><g><!--MD5=[9ccfa5f7817428fa0038984401a79548]
cluster use_case_g_gestion--><g id="cluster_use_case_g_gestion"><rect fill="none" height="334" rx="2.5" ry="2.5" style="stroke:#181818;stroke-width:1.0;" width="246" x="321" y="1674"/><text fill="#000000" font-family="sans-serif" font-size="14" font-weight="bold" lengthAdjust="spacing" textLength="156" x="366" y="1688.9951">use_case_g_gestion</text></g><!--MD5=[4517404fc65a3aca6ac54f0e9771c051]
cluster use_case_gestion_organisations--><g id="cluster_use_case_gestion_organisations"><rect fill="none" height="257" rx="2.5" ry="2.5" style="stroke:#181818;stroke-width:1.0;" width="1033.5" x="207.5" y="1393"/><text fill="#000000" font-family="sans-serif" font-size="14" font-weight="bold" lengthAdjust="spacing" textLength="253" x="597.75" y="1407.9951">use_case_gestion_organisations</text></g><!--MD5=[68de0b0f0c2f7127d8df845b84dbf105]
cluster use_case_gestion_utilisateurs--><g id="cluster_use_case_gestion_utilisateurs"><rect fill="none" height="442" rx="2.5" ry="2.5" style="stroke:#181818;stroke-width:1.0;" width="973.5" x="161" y="927"/><text fill="#000000" font-family="sans-serif" font-size="14" font-weight="bold" lengthAdjust="spacing" textLength="234" x="530.75" y="941.9951">use_case_gestion_utilisateurs</text></g><!--MD5=[fcb0b97f07f8beb0346c1cca981d9453]
cluster use_case_gestion_offre--><g id="cluster_use_case_gestion_offre"><rect fill="none" height="389" rx="2.5" ry="2.5" style="stroke:#181818;stroke-width:1.0;" width="927" x="186.5" y="514"/><text fill="#000000" font-family="sans-serif" font-size="14" font-weight="bold" lengthAdjust="spacing" textLength="185" x="557.5" y="528.9951">use_case_gestion_offre</text></g><!--MD5=[6037961428c8493d672bb61ef5f078ac]
cluster use_case_gestion_candidatures--><g id="cluster_use_case_gestion_candidatures"><rect fill="none" height="483" rx="2.5" ry="2.5" style="stroke:#181818;stroke-width:1.0;" width="949" x="205" y="7"/><text fill="#000000" font-family="sans-serif" font-size="14" font-weight="bold" lengthAdjust="spacing" textLength="249" x="555" y="21.9951">use_case_gestion_candidatures</text></g><g id="elem_f1"><ellipse cx="444.212" cy="1727.9424" fill="#F1F1F1" rx="82.712" ry="18.9424" style="stroke:#181818;stroke-width:0.5;"/><text fill="#000000" font-family="sans-serif" font-size="14" lengthAdjust="spacing" textLength="125" x="381.0208" y="1731.0215">gestion des offres</text></g><g id="elem_f2"><ellipse cx="443.9496" cy="1805.9899" fill="#F1F1F1" rx="105.4496" ry="23.4899" style="stroke:#181818;stroke-width:0.5;"/><text fill="#000000" font-family="sans-serif" font-size="14" lengthAdjust="spacing" textLength="176" x="355.9496" y="1808.8366">gestion des candidatures</text></g><g id="elem_f3"><ellipse cx="444.1147" cy="1887.1229" fill="#F1F1F1" rx="98.6147" ry="22.1229" style="stroke:#181818;stroke-width:0.5;"/><text fill="#000000" font-family="sans-serif" font-size="14" lengthAdjust="spacing" textLength="161" x="363.6147" y="1889.9696">gestion des utilisateurs</text></g><g id="elem_f4"><ellipse cx="443.8276" cy="1967.7655" fill="#F1F1F1" rx="106.8276" ry="23.7655" style="stroke:#181818;stroke-width:0.5;"/><text fill="#000000" font-family="sans-serif" font-size="14" lengthAdjust="spacing" textLength="179" x="354.3276" y="1970.6122">gestion des organisations</text></g><g id="elem_f5"><ellipse cx="443.8527" cy="1473.9705" fill="#F1F1F1" rx="220.3527" ry="46.4705" style="stroke:#181818;stroke-width:0.5;"/><text fill="#000000" font-family="sans-serif" font-size="14" lengthAdjust="spacing" textLength="415" x="236.3527" y="1476.8172">visualisation des demandes d'enregistrement d'organisation</text></g><g id="elem_f6"><ellipse cx="1024.297" cy="1592.0594" fill="#F1F1F1" rx="198.297" ry="42.0594" style="stroke:#181818;stroke-width:0.5;"/><text fill="#000000" font-family="sans-serif" font-size="14" lengthAdjust="spacing" textLength="370" x="839.297" y="1594.9061">valider les demandes d'enregistrement d'organisation</text></g><g id="elem_f7"><ellipse cx="1024.7427" cy="1472.0485" fill="#F1F1F1" rx="200.7427" ry="42.5485" style="stroke:#181818;stroke-width:0.5;"/><text fill="#000000" font-family="sans-serif" font-size="14" lengthAdjust="spacing" textLength="375" x="837.2427" y="1474.8952">refuser les demandes d'enregistrement d'organisation</text></g><g id="elem_f8"><ellipse cx="444.1801" cy="1594.936" fill="#F1F1F1" rx="182.6801" ry="38.936" style="stroke:#181818;stroke-width:0.5;"/><text fill="#000000" font-family="sans-serif" font-size="14" lengthAdjust="spacing" textLength="338" x="275.1801" y="1597.7827">visualisation des demandes validées ou refusées</text></g><g id="elem_f9"><ellipse cx="443.8679" cy="1226.1736" fill="#F1F1F1" rx="106.3679" ry="23.6736" style="stroke:#181818;stroke-width:0.5;"/><text fill="#000000" font-family="sans-serif" font-size="14" lengthAdjust="spacing" textLength="178" x="354.8679" y="1229.0203">visualisation des comptes</text></g><g id="elem_f10"><ellipse cx="443.9698" cy="1318.894" fill="#F1F1F1" rx="157.4698" ry="33.894" style="stroke:#181818;stroke-width:0.5;"/><text fill="#000000" font-family="sans-serif" font-size="14" lengthAdjust="spacing" textLength="286" x="300.9698" y="1321.7406">modification et suppression des comptes</text></g><g id="elem_f11"><ellipse cx="443.9969" cy="991.1994" fill="#F1F1F1" rx="133.9969" ry="29.1994" style="stroke:#181818;stroke-width:0.5;"/><text fill="#000000" font-family="sans-serif" font-size="14" lengthAdjust="spacing" textLength="237" x="325.4969" y="994.0461">attribution du rôle d'administrateur</text></g><g id="elem_f12"><ellipse cx="444.1608" cy="1110.8322" fill="#F1F1F1" rx="267.1608" ry="55.8322" style="stroke:#181818;stroke-width:0.5;"/><text fill="#000000" font-family="sans-serif" font-size="14" lengthAdjust="spacing" textLength="510" x="189.1608" y="1113.6788">visualiser les demandes de joindre une organisation en tant que recruteur</text></g><g id="elem_f13"><ellipse cx="1024.3872" cy="1146.7774" fill="#F1F1F1" rx="91.8872" ry="20.7774" style="stroke:#181818;stroke-width:0.5;"/><text fill="#000000" font-family="sans-serif" font-size="14" lengthAdjust="spacing" textLength="146" x="951.3872" y="1149.6241">valider les demandes</text></g><g id="elem_f14"><ellipse cx="1024.6163" cy="1070.2233" fill="#F1F1F1" rx="94.1163" ry="21.2233" style="stroke:#181818;stroke-width:0.5;"/><text fill="#000000" font-family="sans-serif" font-size="14" lengthAdjust="spacing" textLength="151" x="949.1163" y="1073.0699">refuser les demandes</text></g><g id="elem_f15"><ellipse cx="444.0056" cy="674.2011" fill="#F1F1F1" rx="241.5056" ry="50.7011" style="stroke:#181818;stroke-width:0.5;"/><text fill="#000000" font-family="sans-serif" font-size="14" lengthAdjust="spacing" textLength="458" x="215.0056" y="677.0478">visualisation des offres encore valides et expirées de l'organisation</text></g><g id="elem_f16"><ellipse cx="443.9563" cy="777.7913" fill="#F1F1F1" rx="76.9563" ry="17.7913" style="stroke:#181818;stroke-width:0.5;"/><text fill="#000000" font-family="sans-serif" font-size="14" lengthAdjust="spacing" textLength="111" x="385.5675" y="781.5101">poster une offre</text></g><g id="elem_f17"><ellipse cx="444.0326" cy="858.8065" fill="#F1F1F1" rx="124.5326" ry="27.3065" style="stroke:#181818;stroke-width:0.5;"/><text fill="#000000" font-family="sans-serif" font-size="14" lengthAdjust="spacing" textLength="217" x="335.5326" y="861.6532">modifier ou supprimer une offre</text></g><g id="elem_f18"><ellipse cx="443.8592" cy="568.8718" fill="#F1F1F1" rx="84.8592" ry="19.3718" style="stroke:#181818;stroke-width:0.5;"/><text fill="#000000" font-family="sans-serif" font-size="14" lengthAdjust="spacing" textLength="130" x="378.8592" y="571.7185">visualiser les offres</text></g><g id="elem_f19"><ellipse cx="1024.4333" cy="635.9867" fill="#F1F1F1" rx="70.4333" ry="16.4867" style="stroke:#181818;stroke-width:0.5;"/><text fill="#000000" font-family="sans-serif" font-size="14" lengthAdjust="spacing" textLength="94" x="974.4333" y="639.7342">trier les offres</text></g><g id="elem_f20"><ellipse cx="1024.5678" cy="567.0136" fill="#F1F1F1" rx="73.0678" ry="17.0136" style="stroke:#181818;stroke-width:0.5;"/><text fill="#000000" font-family="sans-serif" font-size="14" lengthAdjust="spacing" textLength="101" x="971.0678" y="570.7611">filtrer les offres</text></g><g id="elem_f21"><ellipse cx="443.9927" cy="364.7985" fill="#F1F1F1" rx="144.4927" ry="31.2985" style="stroke:#181818;stroke-width:0.5;"/><text fill="#000000" font-family="sans-serif" font-size="14" lengthAdjust="spacing" textLength="259" x="314.4927" y="367.6452">visualiser les candidatures à une offre</text></g><g id="elem_f22"><ellipse cx="1024.5673" cy="406.2135" fill="#F1F1F1" rx="99.0673" ry="22.2135" style="stroke:#181818;stroke-width:0.5;"/><text fill="#000000" font-family="sans-serif" font-size="14" lengthAdjust="spacing" textLength="162" x="943.5673" y="409.0601">accepter la candidature</text></g><g id="elem_f23"><ellipse cx="1024.6693" cy="328.1339" fill="#F1F1F1" rx="93.6693" ry="21.1339" style="stroke:#181818;stroke-width:0.5;"/><text fill="#000000" font-family="sans-serif" font-size="14" lengthAdjust="spacing" textLength="150" x="949.6693" y="330.9805">refuser la candidature</text></g><g id="elem_f24"><ellipse cx="444.1693" cy="453.1339" fill="#F1F1F1" rx="93.6693" ry="21.1339" style="stroke:#181818;stroke-width:0.5;"/><text fill="#000000" font-family="sans-serif" font-size="14" lengthAdjust="spacing" textLength="150" x="369.1693" y="455.9805">télécharger le dossier</text></g><g id="elem_f25"><ellipse cx="444.1163" cy="63.2233" fill="#F1F1F1" rx="94.1163" ry="21.2233" style="stroke:#181818;stroke-width:0.5;"/><text fill="#000000" font-family="sans-serif" font-size="14" lengthAdjust="spacing" textLength="151" x="368.6163" y="66.0699">candidater à une offre</text></g><g id="elem_f26"><ellipse cx="444.0557" cy="143.9111" fill="#F1F1F1" rx="110.0557" ry="24.4111" style="stroke:#181818;stroke-width:0.5;"/><text fill="#000000" font-family="sans-serif" font-size="14" lengthAdjust="spacing" textLength="186" x="351.0557" y="146.7578">visualiser ses candidatures</text></g><g id="elem_f27"><ellipse cx="1024.3679" cy="183.1736" fill="#F1F1F1" rx="106.3679" ry="23.6736" style="stroke:#181818;stroke-width:0.5;"/><text fill="#000000" font-family="sans-serif" font-size="14" lengthAdjust="spacing" textLength="178" x="935.3679" y="186.0203">modifier ses candidatures</text></g><g id="elem_f28"><ellipse cx="1024.3004" cy="99.0601" fill="#F1F1F1" rx="113.3004" ry="25.0601" style="stroke:#181818;stroke-width:0.5;"/><text fill="#000000" font-family="sans-serif" font-size="14" lengthAdjust="spacing" textLength="193" x="927.8004" y="101.9068">supprimer ses candidatures</text></g><g id="elem_f29"><ellipse cx="443.8088" cy="250.9618" fill="#F1F1F1" rx="222.8088" ry="46.9618" style="stroke:#181818;stroke-width:0.5;"/><text fill="#000000" font-family="sans-serif" font-size="14" lengthAdjust="spacing" textLength="420" x="233.8088" y="253.8084">demander à rejoindre une organisation en tant que recruteur</text></g><!--MD5=[8c47227c8d67bae04609736da90d0977]
entity Candidat--><g id="elem_Candidat"><ellipse cx="60" cy="1694.5" fill="#F1F1F1" rx="8" ry="8" style="stroke:#181818;stroke-width:0.5;"/><path d="M60,1702.5 L60,1729.5 M47,1710.5 L73,1710.5 M60,1729.5 L47,1744.5 M60,1729.5 L73,1744.5 " fill="none" style="stroke:#181818;stroke-width:0.5;"/><text fill="#000000" font-family="sans-serif" font-size="14" lengthAdjust="spacing" textLength="61" x="29.5" y="1758.9951">Candidat</text></g><!--MD5=[c029411dbffe9182df3250f66e035fda]
entity Recruteur--><g id="elem_Recruteur"><ellipse cx="60" cy="1808.5" fill="#F1F1F1" rx="8" ry="8" style="stroke:#181818;stroke-width:0.5;"/><path d="M60,1816.5 L60,1843.5 M47,1824.5 L73,1824.5 M60,1843.5 L47,1858.5 M60,1843.5 L73,1858.5 " fill="none" style="stroke:#181818;stroke-width:0.5;"/><text fill="#000000" font-family="sans-serif" font-size="14" lengthAdjust="spacing" textLength="69" x="25.5" y="1872.9951">Recruteur</text></g><!--MD5=[15e5ddc83016ae037314666173a341e2]
entity Administrateur--><g id="elem_Administrateur"><ellipse cx="60" cy="1920.5" fill="#F1F1F1" rx="8" ry="8" style="stroke:#181818;stroke-width:0.5;"/><path d="M60,1928.5 L60,1955.5 M47,1936.5 L73,1936.5 M60,1955.5 L47,1970.5 M60,1955.5 L73,1970.5 " fill="none" style="stroke:#181818;stroke-width:0.5;"/><text fill="#000000" font-family="sans-serif" font-size="14" lengthAdjust="spacing" textLength="100" x="10" y="1984.9951">Administrateur</text></g><!--MD5=[ce6ba15dc8c2c7067c0301f68d5641c2]
entity Administrateur --><g id="elem_Administrateur "><ellipse cx="60" cy="1524.5" fill="#F1F1F1" rx="8" ry="8" style="stroke:#181818;stroke-width:0.5;"/><path d="M60,1532.5 L60,1559.5 M47,1540.5 L73,1540.5 M60,1559.5 L47,1574.5 M60,1559.5 L73,1574.5 " fill="none" style="stroke:#181818;stroke-width:0.5;"/><text fill="#000000" font-family="sans-serif" font-size="14" lengthAdjust="spacing" textLength="100" x="8" y="1588.9951">Administrateur</text></g><!--MD5=[152ce11e725aa3ef5ee02bb8f1e67303]
entity Administrateur  --><g id="elem_Administrateur  "><ellipse cx="60" cy="1157.5" fill="#F1F1F1" rx="8" ry="8" style="stroke:#181818;stroke-width:0.5;"/><path d="M60,1165.5 L60,1192.5 M47,1173.5 L73,1173.5 M60,1192.5 L47,1207.5 M60,1192.5 L73,1207.5 " fill="none" style="stroke:#181818;stroke-width:0.5;"/><text fill="#000000" font-family="sans-serif" font-size="14" lengthAdjust="spacing" textLength="100" x="6" y="1221.9951">Administrateur</text></g><!--MD5=[3b85660873f9601c443d141f88dd9eff]
entity Candidat --><g id="elem_Candidat "><ellipse cx="60" cy="539.5" fill="#F1F1F1" rx="8" ry="8" style="stroke:#181818;stroke-width:0.5;"/><path d="M60,547.5 L60,574.5 M47,555.5 L73,555.5 M60,574.5 L47,589.5 M60,574.5 L73,589.5 " fill="none" style="stroke:#181818;stroke-width:0.5;"/><text fill="#000000" font-family="sans-serif" font-size="14" lengthAdjust="spacing" textLength="61" x="27.5" y="603.9951">Candidat</text></g><!--MD5=[8ef27517fa1081ccf2360648cd14c361]
entity Recruteur --><g id="elem_Recruteur "><ellipse cx="60" cy="748.5" fill="#F1F1F1" rx="8" ry="8" style="stroke:#181818;stroke-width:0.5;"/><path d="M60,756.5 L60,783.5 M47,764.5 L73,764.5 M60,783.5 L47,798.5 M60,783.5 L73,798.5 " fill="none" style="stroke:#181818;stroke-width:0.5;"/><text fill="#000000" font-family="sans-serif" font-size="14" lengthAdjust="spacing" textLength="69" x="23.5" y="812.9951">Recruteur</text></g><!--MD5=[6e7b07db33a0620a4f74daf9cfc942ad]
entity Candidat  --><g id="elem_Candidat  "><ellipse cx="60" cy="114.5" fill="#F1F1F1" rx="8" ry="8" style="stroke:#181818;stroke-width:0.5;"/><path d="M60,122.5 L60,149.5 M47,130.5 L73,130.5 M60,149.5 L47,164.5 M60,149.5 L73,164.5 " fill="none" style="stroke:#181818;stroke-width:0.5;"/><text fill="#000000" font-family="sans-serif" font-size="14" lengthAdjust="spacing" textLength="61" x="25.5" y="178.9951">Candidat</text></g><!--MD5=[e4112c0fbc84639cfae239feadeecb6b]
entity Recruteur  --><g id="elem_Recruteur  "><ellipse cx="60" cy="390.5" fill="#F1F1F1" rx="8" ry="8" style="stroke:#181818;stroke-width:0.5;"/><path d="M60,398.5 L60,425.5 M47,406.5 L73,406.5 M60,425.5 L47,440.5 M60,425.5 L73,440.5 " fill="none" style="stroke:#181818;stroke-width:0.5;"/><text fill="#000000" font-family="sans-serif" font-size="14" lengthAdjust="spacing" textLength="69" x="21.5" y="454.9951">Recruteur</text></g><!--MD5=[2bbe2d45ded278942d3c439dc3d522cd]
link f5 to f6--><g id="link_f5_f6"><path d="M603.08,1506.24 C688.19,1523.61 792.54,1544.89 875.98,1561.91 " fill="none" id="f5-to-f6" style="stroke:#181818;stroke-width:1.0;stroke-dasharray:7.0,7.0;"/><polygon fill="#181818" points="880.94,1562.92,872.9216,1557.2011,876.041,1561.9202,871.3219,1565.0396,880.94,1562.92" style="stroke:#181818;stroke-width:1.0;"/><text fill="#000000" font-family="sans-serif" font-size="13" lengthAdjust="spacing" textLength="51" x="742" y="1532.0669">extends</text></g><!--MD5=[3f184dcab881f250cc4db91f08705ee2]
link f5 to f7--><g id="link_f5_f7"><path d="M664.53,1473.24 C715.06,1473.07 768.6,1472.88 818.48,1472.71 " fill="none" id="f5-to-f7" style="stroke:#181818;stroke-width:1.0;stroke-dasharray:7.0,7.0;"/><polygon fill="#181818" points="823.61,1472.69,814.5986,1468.7157,818.61,1472.7043,814.6215,1476.7157,823.61,1472.69" style="stroke:#181818;stroke-width:1.0;"/><text fill="#000000" font-family="sans-serif" font-size="13" lengthAdjust="spacing" textLength="51" x="742" y="1468.0669">extends</text></g><!--MD5=[47d9c71874f578a4fd1353fb788e5df8]
link f12 to f13--><g id="link_f12_f13"><path d="M683.58,1135.89 C702.99,1137.45 722.32,1138.85 741,1140 C802.91,1143.79 872.56,1145.55 927.22,1146.35 " fill="none" id="f12-to-f13" style="stroke:#181818;stroke-width:1.0;stroke-dasharray:7.0,7.0;"/><polygon fill="#181818" points="932.46,1146.43,923.5182,1142.3015,927.4605,1146.3584,923.4036,1150.3007,932.46,1146.43" style="stroke:#181818;stroke-width:1.0;"/><text fill="#000000" font-family="sans-serif" font-size="13" lengthAdjust="spacing" textLength="51" x="742" y="1136.0669">extends</text></g><!--MD5=[b11fad1b181e8c2c8c17392fbbcd9e05]
link f12 to f14--><g id="link_f12_f14"><path d="M697.06,1093.14 C779.53,1087.29 866.12,1081.15 929.37,1076.67 " fill="none" id="f12-to-f14" style="stroke:#181818;stroke-width:1.0;stroke-dasharray:7.0,7.0;"/><polygon fill="#181818" points="934.65,1076.3,925.3879,1072.9514,929.6627,1076.6562,925.9579,1080.9311,934.65,1076.3" style="stroke:#181818;stroke-width:1.0;"/><text fill="#000000" font-family="sans-serif" font-size="13" lengthAdjust="spacing" textLength="51" x="742" y="1083.0669">extends</text></g><!--MD5=[29a5cf3d438b85acbefba9a2c0fdf0fb]
link f18 to f19--><g id="link_f18_f19"><path d="M520.33,577.72 C633.89,590.88 847.18,615.58 955.96,628.18 " fill="none" id="f18-to-f19" style="stroke:#181818;stroke-width:1.0;stroke-dasharray:7.0,7.0;"/><polygon fill="#181818" points="961.06,628.77,952.5915,623.7416,956.0945,628.1833,951.6528,631.6863,961.06,628.77" style="stroke:#181818;stroke-width:1.0;"/><text fill="#000000" font-family="sans-serif" font-size="13" lengthAdjust="spacing" textLength="51" x="742" y="601.0669">extends</text></g><!--MD5=[268f8b93eda26ae5ebcbcf36e8be681d]
link f18 to f20--><g id="link_f18_f20"><path d="M529.12,568.71 C641.09,568.32 837.57,567.64 946.06,567.27 " fill="none" id="f18-to-f20" style="stroke:#181818;stroke-width:1.0;stroke-dasharray:7.0,7.0;"/><polygon fill="#181818" points="951.16,567.25,942.1486,563.2757,946.16,567.2643,942.1715,571.2757,951.16,567.25" style="stroke:#181818;stroke-width:1.0;"/><text fill="#000000" font-family="sans-serif" font-size="13" lengthAdjust="spacing" textLength="51" x="742" y="564.0669">extends</text></g><!--MD5=[600cc82ebb55e5a1914791de6d66b022]
link f26 to f27--><g id="link_f26_f27"><path d="M543.22,154.67 C600.79,160.57 674.95,167.59 741,172 C797.81,175.79 861.15,178.4 913.43,180.13 " fill="none" id="f26-to-f27" style="stroke:#181818;stroke-width:1.0;stroke-dasharray:7.0,7.0;"/><polygon fill="#181818" points="918.45,180.29,909.5801,176.0093,913.4525,180.1329,909.3288,184.0053,918.45,180.29" style="stroke:#181818;stroke-width:1.0;"/><text fill="#000000" font-family="sans-serif" font-size="13" lengthAdjust="spacing" textLength="51" x="742" y="168.0669">extends</text></g><!--MD5=[7eed7e9577e839b5227d81657da6256a]
link f26 to f28--><g id="link_f26_f28"><path d="M548.09,135.98 C650.31,128.03 806.47,115.88 911.65,107.7 " fill="none" id="f26-to-f28" style="stroke:#181818;stroke-width:1.0;stroke-dasharray:7.0,7.0;"/><polygon fill="#181818" points="916.93,107.29,907.6483,103.9961,911.9449,107.6757,908.2653,111.9723,916.93,107.29" style="stroke:#181818;stroke-width:1.0;"/><text fill="#000000" font-family="sans-serif" font-size="13" lengthAdjust="spacing" textLength="51" x="742" y="114.0669">extends</text></g><!--MD5=[467c5cada9e670da367b9b3c21e61b6b]
link f21 to f22--><g id="link_f21_f22"><path d="M581.73,374.69 C687.09,382.16 830.25,392.3 924.68,399 " fill="none" id="f21-to-f22" style="stroke:#181818;stroke-width:1.0;stroke-dasharray:7.0,7.0;"/><polygon fill="#181818" points="929.71,399.35,921.0188,394.7172,924.7228,398.9927,920.4472,402.6967,929.71,399.35" style="stroke:#181818;stroke-width:1.0;"/><text fill="#000000" font-family="sans-serif" font-size="13" lengthAdjust="spacing" textLength="51" x="742" y="383.0669">extends</text></g><!--MD5=[81d217fc2c3ca3fd581021c2a66bb5b2]
link f21 to f23--><g id="link_f21_f23"><path d="M582.83,356.18 C689.86,349.34 835.42,340.03 929.42,334.02 " fill="none" id="f21-to-f23" style="stroke:#181818;stroke-width:1.0;stroke-dasharray:7.0,7.0;"/><polygon fill="#181818" points="934.42,333.7,925.1862,330.2741,929.4299,334.0146,925.6895,338.2583,934.42,333.7" style="stroke:#181818;stroke-width:1.0;"/><text fill="#000000" font-family="sans-serif" font-size="13" lengthAdjust="spacing" textLength="51" x="742" y="340.0669">extends</text></g><!--MD5=[841d2506f668d4fc24a756baf654798d]
link Candidat to f1--><g id="link_Candidat_f1"><path d="M90.66,1724.31 C147.03,1724.9 271.6,1726.21 356.45,1727.09 " fill="none" id="Candidat-to-f1" style="stroke:#181818;stroke-width:1.0;"/><polygon fill="#181818" points="361.47,1727.15,352.5163,1723.0474,356.4703,1727.0929,352.4249,1731.0469,361.47,1727.15" style="stroke:#181818;stroke-width:1.0;"/></g><!--MD5=[083b5bbc0a36280129812cb584907903]
link Candidat to f2--><g id="link_Candidat_f2"><path d="M90.87,1739.86 C108.49,1748.57 131.49,1758.82 153,1765 C213.13,1782.28 282.45,1792.42 338.23,1798.29 " fill="none" id="Candidat-to-f2" style="stroke:#181818;stroke-width:1.0;"/><polygon fill="#181818" points="343.24,1798.81,334.6994,1793.9051,338.2665,1798.2955,333.8762,1801.8627,343.24,1798.81" style="stroke:#181818;stroke-width:1.0;"/></g><!--MD5=[16ce5ab2986064e16a83ee53ec658d78]
link Recruteur to f1--><g id="link_Recruteur_f1"><path d="M94.75,1803.87 C110.99,1789.49 131.58,1774.03 153,1765 C217.58,1737.78 296.87,1729.16 356.2,1727 " fill="none" id="Recruteur-to-f1" style="stroke:#181818;stroke-width:1.0;"/><polygon fill="#181818" points="361.52,1726.82,352.3985,1723.1055,356.5225,1726.9775,352.6505,1731.1015,361.52,1726.82" style="stroke:#181818;stroke-width:1.0;"/></g><!--MD5=[3876f6b3d7345a9db350ba842440aaca]
link Recruteur to f2--><g id="link_Recruteur_f2"><path d="M94.57,1835.19 C148.81,1830.64 257.92,1821.5 339.67,1814.66 " fill="none" id="Recruteur-to-f2" style="stroke:#181818;stroke-width:1.0;"/><polygon fill="#181818" points="345.02,1814.21,335.7197,1810.969,340.0372,1814.624,336.3821,1818.9415,345.02,1814.21" style="stroke:#181818;stroke-width:1.0;"/></g><!--MD5=[1a5b4a256a91fb3e60a8b9bdd46584db]
link Administrateur to f3--><g id="link_Administrateur_f3"><path d="M110.32,1935.13 C121.34,1932.15 133.01,1929.25 144,1927 C211.74,1913.15 289.13,1902.95 348.2,1896.31 " fill="none" id="Administrateur-to-f3" style="stroke:#181818;stroke-width:1.0;"/><polygon fill="#181818" points="353.5,1895.72,344.1105,1892.7472,348.5311,1896.2769,345.0015,1900.6975,353.5,1895.72" style="stroke:#181818;stroke-width:1.0;"/></g><!--MD5=[8059af776d16942b052f2431a2de837e]
link Administrateur to f4--><g id="link_Administrateur_f4"><path d="M110.16,1952.32 C166.34,1954.96 260.03,1959.38 333.72,1962.85 " fill="none" id="Administrateur-to-f4" style="stroke:#181818;stroke-width:1.0;"/><polygon fill="#181818" points="338.99,1963.1,330.1826,1958.692,333.9952,1962.871,329.8163,1966.6836,338.99,1963.1" style="stroke:#181818;stroke-width:1.0;"/></g><!--MD5=[c15c923a9f84f57c26742080606436c3]
link Administrateur  to f5--><g id="link_Administrateur _f5"><path d="M112.34,1542.79 C122.81,1540.52 133.76,1538.17 144,1536 C188.19,1526.63 236.1,1516.62 280.34,1507.45 " fill="none" id="Administrateur -to-f5" style="stroke:#181818;stroke-width:1.0;"/><polygon fill="#181818" points="285.44,1506.39,275.816,1504.2973,280.5438,1507.4035,277.4376,1512.1313,285.44,1506.39" style="stroke:#181818;stroke-width:1.0;"/></g><!--MD5=[57956c14fc6656c0d345b6d61917a40c]
link Administrateur  to f8--><g id="link_Administrateur _f8"><path d="M112.12,1559.49 C154.24,1564.01 216.45,1570.68 275.59,1577.03 " fill="none" id="Administrateur -to-f8" style="stroke:#181818;stroke-width:1.0;"/><polygon fill="#181818" points="280.57,1577.57,272.0433,1572.6409,275.598,1577.0414,271.1975,1580.596,280.57,1577.57" style="stroke:#181818;stroke-width:1.0;"/></g><!--MD5=[6e8bb64c16ccb191dcdbdb88795bb248]
link Administrateur   to f9--><g id="link_Administrateur  _f9"><path d="M114.12,1192.42 C172.77,1198.41 268.59,1208.19 341.7,1215.66 " fill="none" id="Administrateur  -to-f9" style="stroke:#181818;stroke-width:1.0;"/><polygon fill="#181818" points="346.93,1216.19,338.3755,1211.3094,341.9551,1215.6897,337.5749,1219.2693,346.93,1216.19" style="stroke:#181818;stroke-width:1.0;"/></g><!--MD5=[ee40ec3417981d8a1c1787af6e5597f4]
link Administrateur   to f10--><g id="link_Administrateur  _f10"><path d="M95.72,1225.16 C111.7,1240.47 131.81,1256.85 153,1267 C195.18,1287.2 244.21,1299.6 289.83,1307.2 " fill="none" id="Administrateur  -to-f10" style="stroke:#181818;stroke-width:1.0;"/><polygon fill="#181818" points="294.8,1308.01,286.5724,1302.5964,289.8669,1307.195,285.2683,1310.4894,294.8,1308.01" style="stroke:#181818;stroke-width:1.0;"/></g><!--MD5=[1896852cad7ef2d1dc88a121b1878088]
link Administrateur   to f11--><g id="link_Administrateur  _f11"><path d="M73.87,1148.67 C87.71,1113.7 113.25,1063.56 153,1037 C197.26,1007.43 253.66,994.33 304.93,989.18 " fill="none" id="Administrateur  -to-f11" style="stroke:#181818;stroke-width:1.0;"/><polygon fill="#181818" points="310.19,988.68,300.8534,985.545,305.2122,989.1507,301.6065,993.5095,310.19,988.68" style="stroke:#181818;stroke-width:1.0;"/></g><!--MD5=[d509f5d00fd5d55a645cbd7be52053ce]
link Administrateur   to f12--><g id="link_Administrateur  _f12"><path d="M114.12,1176.06 C124.05,1174.03 134.34,1171.94 144,1170 C176,1163.56 209.95,1156.8 243.04,1150.25 " fill="none" id="Administrateur  -to-f12" style="stroke:#181818;stroke-width:1.0;"/><polygon fill="#181818" points="248.35,1149.2,238.7452,1147.0212,243.4449,1150.1696,240.2965,1154.8694,248.35,1149.2" style="stroke:#181818;stroke-width:1.0;"/></g><!--MD5=[cd45a8ae32152599b0e54e907e211b36]
link Candidat  to f18--><g id="link_Candidat _f18"><path d="M92.59,569 C149.23,569 269.97,569 353.78,569 " fill="none" id="Candidat -to-f18" style="stroke:#181818;stroke-width:1.0;"/><polygon fill="#181818" points="359,569,350,565,354,569,350,573,359,569" style="stroke:#181818;stroke-width:1.0;"/></g><!--MD5=[f029c064660398938903de3d27b612a3]
link Recruteur  to f15--><g id="link_Recruteur _f15"><path d="M96.84,762.6 C113.69,755.72 134.17,747.86 153,742 C189.62,730.6 229.37,720.1 267.35,710.94 " fill="none" id="Recruteur -to-f15" style="stroke:#181818;stroke-width:1.0;"/><polygon fill="#181818" points="272.46,709.71,262.778,707.9046,267.5961,710.8687,264.632,715.6868,272.46,709.71" style="stroke:#181818;stroke-width:1.0;"/></g><!--MD5=[97f171d0154853b78daed1fb6272dbbd]
link Recruteur  to f16--><g id="link_Recruteur _f16"><path d="M96.59,778 C156.58,778 279.3,778 361.37,778 " fill="none" id="Recruteur -to-f16" style="stroke:#181818;stroke-width:1.0;"/><polygon fill="#181818" points="366.72,778,357.72,774,361.72,778,357.72,782,366.72,778" style="stroke:#181818;stroke-width:1.0;"/></g><!--MD5=[0f5260587d16b6700c43eff4cae5e1d2]
link Recruteur  to f17--><g id="link_Recruteur _f17"><path d="M96.7,793.55 C113.52,800.36 134.01,807.94 153,813 C209.43,828.04 273.42,838.83 326.92,846.16 " fill="none" id="Recruteur -to-f17" style="stroke:#181818;stroke-width:1.0;"/><polygon fill="#181818" points="332.06,846.86,323.6783,841.6882,327.1052,846.1889,322.6046,849.6158,332.06,846.86" style="stroke:#181818;stroke-width:1.0;"/></g><!--MD5=[e0924d691b8918d58540dc557bfbc96d]
link Candidat   to f25--><g id="link_Candidat  _f25"><path d="M94.6,125.77 C111.63,117.28 132.93,107.79 153,102 C216.49,83.68 290.33,73.91 347.61,68.73 " fill="none" id="Candidat  -to-f25" style="stroke:#181818;stroke-width:1.0;"/><polygon fill="#181818" points="352.75,68.27,343.4306,65.0843,347.7697,68.7136,344.1404,73.0528,352.75,68.27" style="stroke:#181818;stroke-width:1.0;"/></g><!--MD5=[1dc265c76216c5dca54cd5ace4936327]
link Candidat   to f26--><g id="link_Candidat  _f26"><path d="M94.57,144 C146.41,144 248.36,144 328.64,144 " fill="none" id="Candidat  -to-f26" style="stroke:#181818;stroke-width:1.0;"/><polygon fill="#181818" points="333.9,144,324.9,140,328.9,144,324.9,148,333.9,144" style="stroke:#181818;stroke-width:1.0;"/></g><!--MD5=[cc1e79b8ef16600ae08ac798d4bad62f]
link Candidat   to f29--><g id="link_Candidat  _f29"><path d="M94.83,161.49 C111.92,169.8 133.2,179.34 153,186 C190.68,198.67 231.94,209.6 271.22,218.69 " fill="none" id="Candidat  -to-f29" style="stroke:#181818;stroke-width:1.0;"/><polygon fill="#181818" points="276.5,219.9,268.635,213.972,271.629,218.7715,266.8294,221.7655,276.5,219.9" style="stroke:#181818;stroke-width:1.0;"/></g><!--MD5=[793e3d059155f350e906dadb8c69324a]
link Recruteur   to f21--><g id="link_Recruteur  _f21"><path d="M98.67,414.58 C149.23,407.3 241.51,394.01 317.82,383.02 " fill="none" id="Recruteur  -to-f21" style="stroke:#181818;stroke-width:1.0;"/><polygon fill="#181818" points="322.82,382.3,313.3415,379.6245,317.8711,383.0131,314.4825,387.5427,322.82,382.3" style="stroke:#181818;stroke-width:1.0;"/></g><!--MD5=[12bc44796876a2d4dedcdd5dd24108f6]
link Recruteur   to f24--><g id="link_Recruteur  _f24"><path d="M98.67,423.25 C156.88,428.28 270.36,438.09 351.13,445.06 " fill="none" id="Recruteur  -to-f24" style="stroke:#181818;stroke-width:1.0;"/><polygon fill="#181818" points="356.4,445.52,347.7768,440.7618,351.4185,445.0906,347.0897,448.7322,356.4,445.52" style="stroke:#181818;stroke-width:1.0;"/></g><!--MD5=[274f1cedfe422f19695fe1565ef6b9ad]
@startuml
left to right direction
rectangle use_case_g_gestion{
"gestion des offres" as (f1)
"gestion des candidatures" as (f2)
"gestion des utilisateurs" as (f3)
"gestion des organisations" as (f4)
}


rectangle use_case_gestion_organisations{
"visualisation des demandes d'enregistrement d'organisation" as (f5)
"valider les demandes d'enregistrement d'organisation" as (f6)
"refuser les demandes d'enregistrement d'organisation" as (f7)
"visualisation des demandes validées ou refusées" as (f8)
}


rectangle use_case_gestion_utilisateurs{
"visualisation des comptes" as (f9)
"modification et suppression des comptes" as (f10)
"attribution du rôle d'administrateur" as (f11)
"visualiser les demandes de joindre une organisation en tant que recruteur" as (f12)
"valider les demandes" as (f13)
"refuser les demandes" as (f14)
}


rectangle use_case_gestion_offre{
"visualisation des offres encore valides et expirées de l'organisation" as (f15)
"poster une offre" as (f16)
"modifier ou supprimer une offre" as (f17)
"visualiser les offres" as (f18)
"trier les offres" as (f19)
"filtrer les offres" as (f20)
}


rectangle use_case_gestion_candidatures{
"visualiser les candidatures à une offre" as (f21)
"accepter la candidature" as (f22)
"refuser la candidature" as (f23)
"télécharger le dossier" as (f24)
"candidater à une offre" as (f25)
"visualiser ses candidatures" as (f26)
"modifier ses candidatures" as (f27)
"supprimer ses candidatures" as (f28)
"demander à rejoindre une organisation en tant que recruteur" as (f29)
}


(f5) ..> (f6) : extends
(f5) ..> (f7) : extends
(f12) ..> (f13) : extends
(f12) ..> (f14) : extends
(f18) ..> (f19) : extends
(f18) ..> (f20) : extends
(f26) ..> (f27) : extends
(f26) ..> (f28) : extends
(f21) ..> (f22) : extends
(f21) ..> (f23) : extends


:Candidat: - -> (f1)
:Candidat: - -> (f2)
:Recruteur: - -> (f1)
:Recruteur: - -> (f2)
:Administrateur: - -> (f3)
:Administrateur: - -> (f4)
:Administrateur : - -> (f5)
:Administrateur : - -> (f8)
:Administrateur  : - -> (f9)
:Administrateur  : - -> (f10)
:Administrateur  : - -> (f11)
:Administrateur  : - -> (f12)
:Candidat : - -> (f18)
:Recruteur : - -> (f15)
:Recruteur : - -> (f16)
:Recruteur : - -> (f17)
:Candidat  : - -> (f25)
:Candidat  : - -> (f26)
:Candidat  : - -> (f29)
:Recruteur  : - -> (f21)
:Recruteur  : - -> (f24)
@enduml

PlantUML version 1.2022.7(Mon Aug 22 17:01:30 UTC 2022)
(GPL source distribution)
Java Runtime: OpenJDK Runtime Environment
JVM: OpenJDK 64-Bit Server VM
Default Encoding: UTF-8
Language: en
Country: null
--></g></svg>