<?xml version="1.0" encoding="UTF-8" standalone="no"?><svg xmlns="http://www.w3.org/2000/svg" xmlns:xlink="http://www.w3.org/1999/xlink" contentStyleType="text/css" height="2160px" preserveAspectRatio="none" style="width:1313px;height:2160px;background:#FFFFFF;" version="1.1" viewBox="0 0 1313 2160" width="1313px" zoomAndPan="magnify"><defs/><g><!--MD5=[9ccfa5f7817428fa0038984401a79548]
cluster use_case_g_gestion--><g id="cluster_use_case_g_gestion"><rect fill="none" height="415" rx="2.5" ry="2.5" style="stroke:#181818;stroke-width:1.0;" width="246" x="386" y="1739"/><text fill="#000000" font-family="sans-serif" font-size="14" font-weight="bold" lengthAdjust="spacing" textLength="156" x="431" y="1753.9951">use_case_g_gestion</text></g><!--MD5=[4517404fc65a3aca6ac54f0e9771c051]
cluster use_case_gestion_organisations--><g id="cluster_use_case_gestion_organisations"><rect fill="none" height="257" rx="2.5" ry="2.5" style="stroke:#181818;stroke-width:1.0;" width="1034.5" x="272.5" y="543"/><text fill="#000000" font-family="sans-serif" font-size="14" font-weight="bold" lengthAdjust="spacing" textLength="253" x="663.25" y="557.9951">use_case_gestion_organisations</text></g><!--MD5=[68de0b0f0c2f7127d8df845b84dbf105]
cluster use_case_gestion_utilisateurs--><g id="cluster_use_case_gestion_utilisateurs"><rect fill="none" height="339" rx="2.5" ry="2.5" style="stroke:#181818;stroke-width:1.0;" width="1038" x="226" y="180"/><text fill="#000000" font-family="sans-serif" font-size="14" font-weight="bold" lengthAdjust="spacing" textLength="234" x="628" y="194.9951">use_case_gestion_utilisateurs</text></g><!--MD5=[fcb0b97f07f8beb0346c1cca981d9453]
cluster use_case_gestion_offre--><g id="cluster_use_case_gestion_offre"><rect fill="none" height="384" rx="2.5" ry="2.5" style="stroke:#181818;stroke-width:1.0;" width="919.5" x="311.5" y="1331"/><text fill="#000000" font-family="sans-serif" font-size="14" font-weight="bold" lengthAdjust="spacing" textLength="185" x="678.75" y="1345.9951">use_case_gestion_offre</text></g><!--MD5=[6037961428c8493d672bb61ef5f078ac]
cluster use_case_gestion_candidatures--><g id="cluster_use_case_gestion_candidatures"><rect fill="none" height="483" rx="2.5" ry="2.5" style="stroke:#181818;stroke-width:1.0;" width="950" x="270" y="824"/><text fill="#000000" font-family="sans-serif" font-size="14" font-weight="bold" lengthAdjust="spacing" textLength="249" x="620.5" y="838.9951">use_case_gestion_candidatures</text></g><!--MD5=[c0d8dd8609224d8cd9e48cfa8064db0a]
cluster use_case_gestion_connexions--><g id="cluster_use_case_gestion_connexions"><rect fill="none" height="149" rx="2.5" ry="2.5" style="stroke:#181818;stroke-width:1.0;" width="841" x="423.5" y="7"/><text fill="#000000" font-family="sans-serif" font-size="14" font-weight="bold" lengthAdjust="spacing" textLength="237" x="725.5" y="21.9951">use_case_gestion_connexions</text></g><g id="elem_f1"><ellipse cx="509.212" cy="1792.9424" fill="#F1F1F1" rx="82.712" ry="18.9424" style="stroke:#181818;stroke-width:0.5;"/><text fill="#000000" font-family="sans-serif" font-size="14" lengthAdjust="spacing" textLength="125" x="446.0208" y="1796.0215">gestion des offres</text></g><g id="elem_f2"><ellipse cx="508.9496" cy="1870.9899" fill="#F1F1F1" rx="105.4496" ry="23.4899" style="stroke:#181818;stroke-width:0.5;"/><text fill="#000000" font-family="sans-serif" font-size="14" lengthAdjust="spacing" textLength="176" x="420.9496" y="1873.8366">gestion des candidatures</text></g><g id="elem_f3"><ellipse cx="509.1147" cy="1952.1229" fill="#F1F1F1" rx="98.6147" ry="22.1229" style="stroke:#181818;stroke-width:0.5;"/><text fill="#000000" font-family="sans-serif" font-size="14" lengthAdjust="spacing" textLength="161" x="428.6147" y="1954.9696">gestion des utilisateurs</text></g><g id="elem_f4"><ellipse cx="508.8276" cy="2032.7655" fill="#F1F1F1" rx="106.8276" ry="23.7655" style="stroke:#181818;stroke-width:0.5;"/><text fill="#000000" font-family="sans-serif" font-size="14" lengthAdjust="spacing" textLength="179" x="419.3276" y="2035.6122">gestion des organisations</text></g><g id="elem_f4.5"><ellipse cx="508.8822" cy="2115.0764" fill="#F1F1F1" rx="100.8822" ry="22.5764" style="stroke:#181818;stroke-width:0.5;"/><text fill="#000000" font-family="sans-serif" font-size="14" lengthAdjust="spacing" textLength="166" x="425.8822" y="2117.9231">gestion des connexions</text></g><g id="elem_f5"><ellipse cx="508.8527" cy="623.9705" fill="#F1F1F1" rx="220.3527" ry="46.4705" style="stroke:#181818;stroke-width:0.5;"/><text fill="#000000" font-family="sans-serif" font-size="14" lengthAdjust="spacing" textLength="415" x="301.3527" y="626.8172">visualisation des demandes d'enregistrement d'organisation</text></g><g id="elem_f6"><ellipse cx="1090.297" cy="742.0594" fill="#F1F1F1" rx="198.297" ry="42.0594" style="stroke:#181818;stroke-width:0.5;"/><text fill="#000000" font-family="sans-serif" font-size="14" lengthAdjust="spacing" textLength="370" x="905.297" y="744.9061">valider les demandes d'enregistrement d'organisation</text></g><g id="elem_f7"><ellipse cx="1090.7427" cy="622.0485" fill="#F1F1F1" rx="200.7427" ry="42.5485" style="stroke:#181818;stroke-width:0.5;"/><text fill="#000000" font-family="sans-serif" font-size="14" lengthAdjust="spacing" textLength="375" x="903.2427" y="624.8952">refuser les demandes d'enregistrement d'organisation</text></g><g id="elem_f8"><ellipse cx="509.1801" cy="744.936" fill="#F1F1F1" rx="182.6801" ry="38.936" style="stroke:#181818;stroke-width:0.5;"/><text fill="#000000" font-family="sans-serif" font-size="14" lengthAdjust="spacing" textLength="338" x="340.1801" y="747.7827">visualisation des demandes validées ou refusées</text></g><g id="elem_f9"><ellipse cx="508.8679" cy="386.1736" fill="#F1F1F1" rx="106.3679" ry="23.6736" style="stroke:#181818;stroke-width:0.5;"/><text fill="#000000" font-family="sans-serif" font-size="14" lengthAdjust="spacing" textLength="178" x="419.8679" y="389.0203">visualisation des comptes</text></g><g id="elem_f10"><ellipse cx="1090.4698" cy="402.894" fill="#F1F1F1" rx="157.4698" ry="33.894" style="stroke:#181818;stroke-width:0.5;"/><text fill="#000000" font-family="sans-serif" font-size="14" lengthAdjust="spacing" textLength="286" x="947.4698" y="405.7406">modification et suppression des comptes</text></g><g id="elem_f11"><ellipse cx="508.9969" cy="474.1994" fill="#F1F1F1" rx="133.9969" ry="29.1994" style="stroke:#181818;stroke-width:0.5;"/><text fill="#000000" font-family="sans-serif" font-size="14" lengthAdjust="spacing" textLength="237" x="390.4969" y="477.0461">attribution du rôle d'administrateur</text></g><g id="elem_f12"><ellipse cx="509.1608" cy="270.8322" fill="#F1F1F1" rx="267.1608" ry="55.8322" style="stroke:#181818;stroke-width:0.5;"/><text fill="#000000" font-family="sans-serif" font-size="14" lengthAdjust="spacing" textLength="510" x="254.1608" y="273.6788">visualiser les demandes de joindre une organisation en tant que recruteur</text></g><g id="elem_f13"><ellipse cx="1090.3872" cy="312.7774" fill="#F1F1F1" rx="91.8872" ry="20.7774" style="stroke:#181818;stroke-width:0.5;"/><text fill="#000000" font-family="sans-serif" font-size="14" lengthAdjust="spacing" textLength="146" x="1017.3872" y="315.6241">valider les demandes</text></g><g id="elem_f14"><ellipse cx="1090.6163" cy="236.2233" fill="#F1F1F1" rx="94.1163" ry="21.2233" style="stroke:#181818;stroke-width:0.5;"/><text fill="#000000" font-family="sans-serif" font-size="14" lengthAdjust="spacing" textLength="151" x="1015.1163" y="239.0699">refuser les demandes</text></g><g id="elem_f15"><ellipse cx="508.8697" cy="1475.0739" fill="#F1F1F1" rx="175.8697" ry="37.5739" style="stroke:#181818;stroke-width:0.5;"/><text fill="#000000" font-family="sans-serif" font-size="14" lengthAdjust="spacing" textLength="324" x="346.8697" y="1477.9206">visualisation des offres valides de l'organisation</text></g><g id="elem_f15.5"><ellipse cx="509.2063" cy="1586.2413" fill="#F1F1F1" rx="181.7063" ry="38.7413" style="stroke:#181818;stroke-width:0.5;"/><text fill="#000000" font-family="sans-serif" font-size="14" lengthAdjust="spacing" textLength="336" x="341.2063" y="1589.0879">visualisation des offres expirées de l'organisation</text></g><g id="elem_f16"><ellipse cx="508.9563" cy="1383.7913" fill="#F1F1F1" rx="76.9563" ry="17.7913" style="stroke:#181818;stroke-width:0.5;"/><text fill="#000000" font-family="sans-serif" font-size="14" lengthAdjust="spacing" textLength="111" x="450.5675" y="1387.5101">poster une offre</text></g><g id="elem_f17"><ellipse cx="1090.5326" cy="1474.8065" fill="#F1F1F1" rx="124.5326" ry="27.3065" style="stroke:#181818;stroke-width:0.5;"/><text fill="#000000" font-family="sans-serif" font-size="14" lengthAdjust="spacing" textLength="217" x="982.0326" y="1477.6532">modifier ou supprimer une offre</text></g><g id="elem_f18"><ellipse cx="508.8592" cy="1678.8718" fill="#F1F1F1" rx="84.8592" ry="19.3718" style="stroke:#181818;stroke-width:0.5;"/><text fill="#000000" font-family="sans-serif" font-size="14" lengthAdjust="spacing" textLength="130" x="443.8592" y="1681.7185">visualiser les offres</text></g><g id="elem_f19"><ellipse cx="1090.4333" cy="1669.9867" fill="#F1F1F1" rx="70.4333" ry="16.4867" style="stroke:#181818;stroke-width:0.5;"/><text fill="#000000" font-family="sans-serif" font-size="14" lengthAdjust="spacing" textLength="94" x="1040.4333" y="1673.7342">trier les offres</text></g><g id="elem_f20"><ellipse cx="1090.5678" cy="1601.0136" fill="#F1F1F1" rx="73.0678" ry="17.0136" style="stroke:#181818;stroke-width:0.5;"/><text fill="#000000" font-family="sans-serif" font-size="14" lengthAdjust="spacing" textLength="101" x="1037.0678" y="1604.7611">filtrer les offres</text></g><g id="elem_f21"><ellipse cx="508.9927" cy="890.7985" fill="#F1F1F1" rx="144.4927" ry="31.2985" style="stroke:#181818;stroke-width:0.5;"/><text fill="#000000" font-family="sans-serif" font-size="14" lengthAdjust="spacing" textLength="259" x="379.4927" y="893.6452">visualiser les candidatures à une offre</text></g><g id="elem_f22"><ellipse cx="1090.5673" cy="961.2135" fill="#F1F1F1" rx="99.0673" ry="22.2135" style="stroke:#181818;stroke-width:0.5;"/><text fill="#000000" font-family="sans-serif" font-size="14" lengthAdjust="spacing" textLength="162" x="1009.5673" y="964.0601">accepter la candidature</text></g><g id="elem_f23"><ellipse cx="1090.6693" cy="883.1339" fill="#F1F1F1" rx="93.6693" ry="21.1339" style="stroke:#181818;stroke-width:0.5;"/><text fill="#000000" font-family="sans-serif" font-size="14" lengthAdjust="spacing" textLength="150" x="1015.6693" y="885.9805">refuser la candidature</text></g><g id="elem_f24"><ellipse cx="509.1693" cy="979.1339" fill="#F1F1F1" rx="93.6693" ry="21.1339" style="stroke:#181818;stroke-width:0.5;"/><text fill="#000000" font-family="sans-serif" font-size="14" lengthAdjust="spacing" textLength="150" x="434.1693" y="981.9805">télécharger le dossier</text></g><g id="elem_f25"><ellipse cx="509.1163" cy="1185.2233" fill="#F1F1F1" rx="94.1163" ry="21.2233" style="stroke:#181818;stroke-width:0.5;"/><text fill="#000000" font-family="sans-serif" font-size="14" lengthAdjust="spacing" textLength="151" x="433.6163" y="1188.0699">candidater à une offre</text></g><g id="elem_f26"><ellipse cx="509.0557" cy="1265.9111" fill="#F1F1F1" rx="110.0557" ry="24.4111" style="stroke:#181818;stroke-width:0.5;"/><text fill="#000000" font-family="sans-serif" font-size="14" lengthAdjust="spacing" textLength="186" x="416.0557" y="1268.7578">visualiser ses candidatures</text></g><g id="elem_f27"><ellipse cx="1090.3679" cy="1261.1736" fill="#F1F1F1" rx="106.3679" ry="23.6736" style="stroke:#181818;stroke-width:0.5;"/><text fill="#000000" font-family="sans-serif" font-size="14" lengthAdjust="spacing" textLength="178" x="1001.3679" y="1264.0203">modifier ses candidatures</text></g><g id="elem_f28"><ellipse cx="1090.3004" cy="1177.0601" fill="#F1F1F1" rx="113.3004" ry="25.0601" style="stroke:#181818;stroke-width:0.5;"/><text fill="#000000" font-family="sans-serif" font-size="14" lengthAdjust="spacing" textLength="193" x="993.8004" y="1179.9068">supprimer ses candidatures</text></g><g id="elem_f29"><ellipse cx="508.8088" cy="1081.9618" fill="#F1F1F1" rx="222.8088" ry="46.9618" style="stroke:#181818;stroke-width:0.5;"/><text fill="#000000" font-family="sans-serif" font-size="14" lengthAdjust="spacing" textLength="420" x="298.8088" y="1084.8084">demander à rejoindre une organisation en tant que recruteur</text></g><g id="elem_f30"><ellipse cx="509.1952" cy="58.839" fill="#F1F1F1" rx="69.6952" ry="16.339" style="stroke:#181818;stroke-width:0.5;"/><text fill="#000000" font-family="sans-serif" font-size="14" lengthAdjust="spacing" textLength="92" x="460.1952" y="62.5866">se connecter</text></g><g id="elem_f31"><ellipse cx="509.0868" cy="125.2397" fill="#F1F1F1" rx="55.5868" ry="14.7397" style="stroke:#181818;stroke-width:0.5;"/><text fill="#000000" font-family="sans-serif" font-size="14" lengthAdjust="spacing" textLength="61" x="475.5868" y="128.9873">s'inscrire</text></g><g id="elem_f32"><ellipse cx="1090.4522" cy="104.9904" fill="#F1F1F1" rx="157.9522" ry="33.9904" style="stroke:#181818;stroke-width:0.5;"/><text fill="#000000" font-family="sans-serif" font-size="14" lengthAdjust="spacing" textLength="287" x="946.9522" y="107.8371">vérifier que le mot de passe est conforme</text></g><!--MD5=[c029411dbffe9182df3250f66e035fda]
entity Recruteur--><g id="elem_Recruteur"><ellipse cx="92.5" cy="1739.5" fill="#F1F1F1" rx="8" ry="8" style="stroke:#181818;stroke-width:0.5;"/><path d="M92.5,1747.5 L92.5,1774.5 M79.5,1755.5 L105.5,1755.5 M92.5,1774.5 L79.5,1789.5 M92.5,1774.5 L105.5,1789.5 " fill="none" style="stroke:#181818;stroke-width:0.5;"/><text fill="#000000" font-family="sans-serif" font-size="14" lengthAdjust="spacing" textLength="69" x="58" y="1803.9951">Recruteur</text></g><!--MD5=[8c47227c8d67bae04609736da90d0977]
entity Candidat--><g id="elem_Candidat"><ellipse cx="92.5" cy="1850.5" fill="#F1F1F1" rx="8" ry="8" style="stroke:#181818;stroke-width:0.5;"/><path d="M92.5,1858.5 L92.5,1885.5 M79.5,1866.5 L105.5,1866.5 M92.5,1885.5 L79.5,1900.5 M92.5,1885.5 L105.5,1900.5 " fill="none" style="stroke:#181818;stroke-width:0.5;"/><text fill="#000000" font-family="sans-serif" font-size="14" lengthAdjust="spacing" textLength="61" x="62" y="1914.9951">Candidat</text></g><!--MD5=[15e5ddc83016ae037314666173a341e2]
entity Administrateur--><g id="elem_Administrateur"><ellipse cx="92.5" cy="1969.5" fill="#F1F1F1" rx="8" ry="8" style="stroke:#181818;stroke-width:0.5;"/><path d="M92.5,1977.5 L92.5,2004.5 M79.5,1985.5 L105.5,1985.5 M92.5,2004.5 L79.5,2019.5 M92.5,2004.5 L105.5,2019.5 " fill="none" style="stroke:#181818;stroke-width:0.5;"/><text fill="#000000" font-family="sans-serif" font-size="14" lengthAdjust="spacing" textLength="100" x="42.5" y="2033.9951">Administrateur</text></g><!--MD5=[4f8da7202bcc98f5d414950c4b1a9a95]
entity Utilisateur non connecté--><g id="elem_Utilisateur non connecté"><ellipse cx="92.5" cy="2085.5" fill="#F1F1F1" rx="8" ry="8" style="stroke:#181818;stroke-width:0.5;"/><path d="M92.5,2093.5 L92.5,2120.5 M79.5,2101.5 L105.5,2101.5 M92.5,2120.5 L79.5,2135.5 M92.5,2120.5 L105.5,2135.5 " fill="none" style="stroke:#181818;stroke-width:0.5;"/><text fill="#000000" font-family="sans-serif" font-size="14" lengthAdjust="spacing" textLength="169" x="8" y="2149.9951">Utilisateur non connecté</text></g><!--MD5=[ce6ba15dc8c2c7067c0301f68d5641c2]
entity Administrateur --><g id="elem_Administrateur "><ellipse cx="92.5" cy="674.5" fill="#F1F1F1" rx="8" ry="8" style="stroke:#181818;stroke-width:0.5;"/><path d="M92.5,682.5 L92.5,709.5 M79.5,690.5 L105.5,690.5 M92.5,709.5 L79.5,724.5 M92.5,709.5 L105.5,724.5 " fill="none" style="stroke:#181818;stroke-width:0.5;"/><text fill="#000000" font-family="sans-serif" font-size="14" lengthAdjust="spacing" textLength="100" x="40.5" y="738.9951">Administrateur</text></g><!--MD5=[152ce11e725aa3ef5ee02bb8f1e67303]
entity Administrateur  --><g id="elem_Administrateur  "><ellipse cx="92.5" cy="356.5" fill="#F1F1F1" rx="8" ry="8" style="stroke:#181818;stroke-width:0.5;"/><path d="M92.5,364.5 L92.5,391.5 M79.5,372.5 L105.5,372.5 M92.5,391.5 L79.5,406.5 M92.5,391.5 L105.5,406.5 " fill="none" style="stroke:#181818;stroke-width:0.5;"/><text fill="#000000" font-family="sans-serif" font-size="14" lengthAdjust="spacing" textLength="100" x="38.5" y="420.9951">Administrateur</text></g><!--MD5=[3b85660873f9601c443d141f88dd9eff]
entity Candidat --><g id="elem_Candidat "><ellipse cx="92.5" cy="1615.5" fill="#F1F1F1" rx="8" ry="8" style="stroke:#181818;stroke-width:0.5;"/><path d="M92.5,1623.5 L92.5,1650.5 M79.5,1631.5 L105.5,1631.5 M92.5,1650.5 L79.5,1665.5 M92.5,1650.5 L105.5,1665.5 " fill="none" style="stroke:#181818;stroke-width:0.5;"/><text fill="#000000" font-family="sans-serif" font-size="14" lengthAdjust="spacing" textLength="61" x="60" y="1679.9951">Candidat</text></g><!--MD5=[8ef27517fa1081ccf2360648cd14c361]
entity Recruteur --><g id="elem_Recruteur "><ellipse cx="92.5" cy="1487.5" fill="#F1F1F1" rx="8" ry="8" style="stroke:#181818;stroke-width:0.5;"/><path d="M92.5,1495.5 L92.5,1522.5 M79.5,1503.5 L105.5,1503.5 M92.5,1522.5 L79.5,1537.5 M92.5,1522.5 L105.5,1537.5 " fill="none" style="stroke:#181818;stroke-width:0.5;"/><text fill="#000000" font-family="sans-serif" font-size="14" lengthAdjust="spacing" textLength="69" x="56" y="1551.9951">Recruteur</text></g><!--MD5=[e4112c0fbc84639cfae239feadeecb6b]
entity Recruteur  --><g id="elem_Recruteur  "><ellipse cx="92.5" cy="949.5" fill="#F1F1F1" rx="8" ry="8" style="stroke:#181818;stroke-width:0.5;"/><path d="M92.5,957.5 L92.5,984.5 M79.5,965.5 L105.5,965.5 M92.5,984.5 L79.5,999.5 M92.5,984.5 L105.5,999.5 " fill="none" style="stroke:#181818;stroke-width:0.5;"/><text fill="#000000" font-family="sans-serif" font-size="14" lengthAdjust="spacing" textLength="69" x="54" y="1013.9951">Recruteur</text></g><!--MD5=[6e7b07db33a0620a4f74daf9cfc942ad]
entity Candidat  --><g id="elem_Candidat  "><ellipse cx="92.5" cy="1104.5" fill="#F1F1F1" rx="8" ry="8" style="stroke:#181818;stroke-width:0.5;"/><path d="M92.5,1112.5 L92.5,1139.5 M79.5,1120.5 L105.5,1120.5 M92.5,1139.5 L79.5,1154.5 M92.5,1139.5 L105.5,1154.5 " fill="none" style="stroke:#181818;stroke-width:0.5;"/><text fill="#000000" font-family="sans-serif" font-size="14" lengthAdjust="spacing" textLength="61" x="58" y="1168.9951">Candidat</text></g><!--MD5=[0edc9c83546e411a0c6a61813f521154]
entity Utilisateur non connecté --><g id="elem_Utilisateur non connecté "><ellipse cx="92.5" cy="62.5" fill="#F1F1F1" rx="8" ry="8" style="stroke:#181818;stroke-width:0.5;"/><path d="M92.5,70.5 L92.5,97.5 M79.5,78.5 L105.5,78.5 M92.5,97.5 L79.5,112.5 M92.5,97.5 L105.5,112.5 " fill="none" style="stroke:#181818;stroke-width:0.5;"/><text fill="#000000" font-family="sans-serif" font-size="14" lengthAdjust="spacing" textLength="169" x="6" y="126.9951">Utilisateur non connecté</text></g><!--MD5=[2bbe2d45ded278942d3c439dc3d522cd]
link f5 to f6--><g id="link_f5_f6"><path d="M668.35,656.24 C753.61,673.61 858.14,694.89 941.72,711.91 " fill="none" id="f5-to-f6" style="stroke:#181818;stroke-width:1.0;stroke-dasharray:7.0,7.0;"/><polygon fill="#181818" points="946.69,712.92,938.6556,707.2236,941.7882,711.9339,937.0779,715.0665,946.69,712.92" style="stroke:#181818;stroke-width:1.0;"/><text fill="#000000" font-family="sans-serif" font-size="13" lengthAdjust="spacing" textLength="51" x="807.5" y="683.0669">extends</text></g><!--MD5=[3f184dcab881f250cc4db91f08705ee2]
link f5 to f7--><g id="link_f5_f7"><path d="M729.5,623.24 C780.45,623.07 834.48,622.88 884.76,622.71 " fill="none" id="f5-to-f7" style="stroke:#181818;stroke-width:1.0;stroke-dasharray:7.0,7.0;"/><polygon fill="#181818" points="889.93,622.69,880.9073,618.7415,884.9301,622.7186,880.953,626.7414,889.93,622.69" style="stroke:#181818;stroke-width:1.0;"/><text fill="#000000" font-family="sans-serif" font-size="13" lengthAdjust="spacing" textLength="51" x="807.5" y="619.0669">extends</text></g><!--MD5=[ecb61c68aca0f331dcc50fd0680e4835]
link f9 to f10--><g id="link_f9_f10"><path d="M614.61,389.07 C702.29,391.64 828.9,395.36 929.34,398.3 " fill="none" id="f9-to-f10" style="stroke:#181818;stroke-width:1.0;stroke-dasharray:7.0,7.0;"/><polygon fill="#181818" points="934.41,398.45,925.5279,394.1946,929.412,398.3072,925.2994,402.1913,934.41,398.45" style="stroke:#181818;stroke-width:1.0;"/><text fill="#000000" font-family="sans-serif" font-size="13" lengthAdjust="spacing" textLength="51" x="807.5" y="392.0669">extends</text></g><!--MD5=[47d9c71874f578a4fd1353fb788e5df8]
link f12 to f13--><g id="link_f12_f13"><path d="M761.65,289.24 C845.43,295.31 933.54,301.7 997.29,306.32 " fill="none" id="f12-to-f13" style="stroke:#181818;stroke-width:1.0;stroke-dasharray:7.0,7.0;"/><polygon fill="#181818" points="1002.61,306.7,993.932,302.0424,997.6238,306.3285,993.3377,310.0203,1002.61,306.7" style="stroke:#181818;stroke-width:1.0;"/><text fill="#000000" font-family="sans-serif" font-size="13" lengthAdjust="spacing" textLength="51" x="807.5" y="290.0669">extends</text></g><!--MD5=[b11fad1b181e8c2c8c17392fbbcd9e05]
link f12 to f14--><g id="link_f12_f14"><path d="M765.86,255.55 C847.11,250.64 931.96,245.51 994.39,241.74 " fill="none" id="f12-to-f14" style="stroke:#181818;stroke-width:1.0;stroke-dasharray:7.0,7.0;"/><polygon fill="#181818" points="999.6,241.43,990.3766,237.9762,994.609,241.7295,990.8557,245.9618,999.6,241.43" style="stroke:#181818;stroke-width:1.0;"/><text fill="#000000" font-family="sans-serif" font-size="13" lengthAdjust="spacing" textLength="51" x="807.5" y="247.0669">extends</text></g><!--MD5=[d97ab57ae5cf3f9bd9cd5c32a3714243]
link f15 to f17--><g id="link_f15_f17"><path d="M685.05,1475 C773.73,1475 879.51,1475 960.64,1475 " fill="none" id="f15-to-f17" style="stroke:#181818;stroke-width:1.0;stroke-dasharray:7.0,7.0;"/><polygon fill="#181818" points="965.95,1475,956.95,1471,960.95,1475,956.95,1479,965.95,1475" style="stroke:#181818;stroke-width:1.0;"/><text fill="#000000" font-family="sans-serif" font-size="13" lengthAdjust="spacing" textLength="51" x="807.5" y="1471.0669">extends</text></g><!--MD5=[29a5cf3d438b85acbefba9a2c0fdf0fb]
link f18 to f19--><g id="link_f18_f19"><path d="M593.95,1677.7 C707.12,1675.94 906.85,1672.84 1014.96,1671.16 " fill="none" id="f18-to-f19" style="stroke:#181818;stroke-width:1.0;stroke-dasharray:7.0,7.0;"/><polygon fill="#181818" points="1020.04,1671.08,1010.9728,1667.2349,1015.0407,1671.1657,1011.1099,1675.2337,1020.04,1671.08" style="stroke:#181818;stroke-width:1.0;"/><text fill="#000000" font-family="sans-serif" font-size="13" lengthAdjust="spacing" textLength="51" x="807.5" y="1669.0669">extends</text></g><!--MD5=[268f8b93eda26ae5ebcbcf36e8be681d]
link f18 to f20--><g id="link_f18_f20"><path d="M582.81,1669.2 C695.77,1654 911.67,1624.94 1021.58,1610.14 " fill="none" id="f18-to-f20" style="stroke:#181818;stroke-width:1.0;stroke-dasharray:7.0,7.0;"/><polygon fill="#181818" points="1026.73,1609.45,1017.2746,1606.6942,1021.7752,1610.1211,1018.3483,1614.6218,1026.73,1609.45" style="stroke:#181818;stroke-width:1.0;"/><text fill="#000000" font-family="sans-serif" font-size="13" lengthAdjust="spacing" textLength="51" x="807.5" y="1629.0669">extends</text></g><!--MD5=[600cc82ebb55e5a1914791de6d66b022]
link f26 to f27--><g id="link_f26_f27"><path d="M619,1265.06 C721.85,1264.17 875.3,1262.85 978.73,1261.96 " fill="none" id="f26-to-f27" style="stroke:#181818;stroke-width:1.0;stroke-dasharray:7.0,7.0;"/><polygon fill="#181818" points="983.92,1261.91,974.886,1257.9873,978.9202,1261.9529,974.9546,1265.987,983.92,1261.91" style="stroke:#181818;stroke-width:1.0;"/><text fill="#000000" font-family="sans-serif" font-size="13" lengthAdjust="spacing" textLength="51" x="807.5" y="1259.0669">extends</text></g><!--MD5=[7eed7e9577e839b5227d81657da6256a]
link f26 to f28--><g id="link_f26_f28"><path d="M599.91,1252.19 C706.16,1235.87 882.29,1208.82 991.82,1192 " fill="none" id="f26-to-f28" style="stroke:#181818;stroke-width:1.0;stroke-dasharray:7.0,7.0;"/><polygon fill="#181818" points="996.98,1191.21,987.4781,1188.6188,992.0376,1191.9671,988.6894,1196.5266,996.98,1191.21" style="stroke:#181818;stroke-width:1.0;"/><text fill="#000000" font-family="sans-serif" font-size="13" lengthAdjust="spacing" textLength="51" x="807.5" y="1210.0669">extends</text></g><!--MD5=[467c5cada9e670da367b9b3c21e61b6b]
link f21 to f22--><g id="link_f21_f22"><path d="M635.74,906.19 C744.81,919.36 900.1,938.12 997.79,949.92 " fill="none" id="f21-to-f22" style="stroke:#181818;stroke-width:1.0;stroke-dasharray:7.0,7.0;"/><polygon fill="#181818" points="1002.98,950.55,994.5241,945.5004,998.016,949.9509,993.5656,953.4428,1002.98,950.55" style="stroke:#181818;stroke-width:1.0;"/><text fill="#000000" font-family="sans-serif" font-size="13" lengthAdjust="spacing" textLength="51" x="807.5" y="925.0669">extends</text></g><!--MD5=[81d217fc2c3ca3fd581021c2a66bb5b2]
link f21 to f23--><g id="link_f21_f23"><path d="M653.25,889.02 C758.68,887.57 899.22,885.63 991.94,884.35 " fill="none" id="f21-to-f23" style="stroke:#181818;stroke-width:1.0;stroke-dasharray:7.0,7.0;"/><polygon fill="#181818" points="997.15,884.27,988.0938,880.399,992.1505,884.3414,988.2081,888.3982,997.15,884.27" style="stroke:#181818;stroke-width:1.0;"/><text fill="#000000" font-family="sans-serif" font-size="13" lengthAdjust="spacing" textLength="51" x="807.5" y="883.0669">extends</text></g><!--MD5=[ac1e37b974a0918b1086b687d02b137f]
link f31 to f32--><g id="link_f31_f32"><path d="M564.26,123.13 C646.82,120.28 807.27,114.74 929.21,110.53 " fill="none" id="f31-to-f32" style="stroke:#181818;stroke-width:1.0;stroke-dasharray:7.0,7.0;"/><polygon fill="#181818" points="934.25,110.36,925.1182,106.6707,929.2529,110.5313,925.3923,114.666,934.25,110.36" style="stroke:#181818;stroke-width:1.0;"/><text fill="#000000" font-family="sans-serif" font-size="13" lengthAdjust="spacing" textLength="52" x="807" y="110.0669">includes</text></g><!--MD5=[cdd581bd78155685686e3c7a6bc41806]
link Recruteur to Candidat--><g id="link_Recruteur_Candidat"><path d="M92.5,1807.13 C92.5,1816.98 92.5,1826.84 92.5,1836.69 " fill="none" id="Recruteur-to-Candidat" style="stroke:#181818;stroke-width:1.0;"/><polygon fill="#181818" points="92.5,1841.84,96.5,1832.84,92.5,1836.84,88.5,1832.84,92.5,1841.84" style="stroke:#181818;stroke-width:1.0;"/></g><!--MD5=[841d2506f668d4fc24a756baf654798d]
link Candidat to f1--><g id="link_Candidat_f1"><path d="M123.46,1865.44 C148.24,1854.03 184.64,1838.68 218,1830 C285.95,1812.33 365.14,1802.95 423.58,1798.07 " fill="none" id="Candidat-to-f1" style="stroke:#181818;stroke-width:1.0;"/><polygon fill="#181818" points="428.81,1797.64,419.5189,1794.3726,423.826,1798.0399,420.1587,1802.3469,428.81,1797.64" style="stroke:#181818;stroke-width:1.0;"/></g><!--MD5=[083b5bbc0a36280129812cb584907903]
link Candidat to f2--><g id="link_Candidat_f2"><path d="M123.31,1879.35 C180.06,1878.12 306.2,1875.38 398.62,1873.37 " fill="none" id="Candidat-to-f2" style="stroke:#181818;stroke-width:1.0;"/><polygon fill="#181818" points="403.83,1873.26,394.7409,1869.4667,398.8313,1873.3743,394.9238,1877.4646,403.83,1873.26" style="stroke:#181818;stroke-width:1.0;"/></g><!--MD5=[16ce5ab2986064e16a83ee53ec658d78]
link Recruteur to f1--><g id="link_Recruteur_f1"><path d="M127.07,1770.94 C191.1,1774.65 332.42,1782.83 423.77,1788.12 " fill="none" id="Recruteur-to-f1" style="stroke:#181818;stroke-width:1.0;"/><polygon fill="#181818" points="428.89,1788.42,420.1329,1783.9131,423.8981,1788.1348,419.6765,1791.9,428.89,1788.42" style="stroke:#181818;stroke-width:1.0;"/></g><!--MD5=[3876f6b3d7345a9db350ba842440aaca]
link Recruteur to f2--><g id="link_Recruteur_f2"><path d="M127.18,1789.13 C151.57,1802.79 185.79,1820.11 218,1830 C277.57,1848.3 346.56,1858.47 402.31,1864.11 " fill="none" id="Recruteur-to-f2" style="stroke:#181818;stroke-width:1.0;"/><polygon fill="#181818" points="407.32,1864.61,398.7655,1859.7294,402.3451,1864.1097,397.9649,1867.6893,407.32,1864.61" style="stroke:#181818;stroke-width:1.0;"/></g><!--MD5=[1a5b4a256a91fb3e60a8b9bdd46584db]
link Administrateur to f3--><g id="link_Administrateur_f3"><path d="M142.68,1993.42 C209.85,1985.81 331.58,1972 415.97,1962.44 " fill="none" id="Administrateur-to-f3" style="stroke:#181818;stroke-width:1.0;"/><polygon fill="#181818" points="420.96,1961.87,411.5705,1958.8972,415.9911,1962.4269,412.4615,1966.8475,420.96,1961.87" style="stroke:#181818;stroke-width:1.0;"/></g><!--MD5=[8059af776d16942b052f2431a2de837e]
link Administrateur to f4--><g id="link_Administrateur_f4"><path d="M142.68,2003.03 C206.47,2008.27 319.45,2017.53 402.93,2024.38 " fill="none" id="Administrateur-to-f4" style="stroke:#181818;stroke-width:1.0;"/><polygon fill="#181818" points="408.39,2024.83,399.7533,2020.0964,403.4073,2024.4148,399.0889,2028.0688,408.39,2024.83" style="stroke:#181818;stroke-width:1.0;"/></g><!--MD5=[16104e30d7d5308085b53ae9f4092056]
link Utilisateur non connecté to f4.5--><g id="link_Utilisateur non connecté_f4.5"><path d="M177.38,2115 C242.28,2115 332.56,2115 402.38,2115 " fill="none" id="Utilisateur non connecté-to-f4.5" style="stroke:#181818;stroke-width:1.0;"/><polygon fill="#181818" points="407.8,2115,398.8,2111,402.8,2115,398.8,2119,407.8,2115" style="stroke:#181818;stroke-width:1.0;"/></g><!--MD5=[c15c923a9f84f57c26742080606436c3]
link Administrateur  to f5--><g id="link_Administrateur _f5"><path d="M144.74,694.11 C193.71,684.66 270.26,669.89 340.48,656.33 " fill="none" id="Administrateur -to-f5" style="stroke:#181818;stroke-width:1.0;"/><polygon fill="#181818" points="345.53,655.36,335.9363,653.1326,340.6201,656.3048,337.4479,660.9885,345.53,655.36" style="stroke:#181818;stroke-width:1.0;"/></g><!--MD5=[57956c14fc6656c0d345b6d61917a40c]
link Administrateur  to f8--><g id="link_Administrateur _f8"><path d="M144.74,709.07 C193.18,713.86 268.61,721.32 338.2,728.2 " fill="none" id="Administrateur -to-f8" style="stroke:#181818;stroke-width:1.0;"/><polygon fill="#181818" points="343.21,728.7,334.6416,723.8438,338.2337,728.2138,333.8637,731.8059,343.21,728.7" style="stroke:#181818;stroke-width:1.0;"/></g><!--MD5=[6e8bb64c16ccb191dcdbdb88795bb248]
link Administrateur   to f9--><g id="link_Administrateur  _f9"><path d="M146.84,386 C209.74,386 315.98,386 396.99,386 " fill="none" id="Administrateur  -to-f9" style="stroke:#181818;stroke-width:1.0;"/><polygon fill="#181818" points="402.29,386,393.29,382,397.29,386,393.29,390,402.29,386" style="stroke:#181818;stroke-width:1.0;"/></g><!--MD5=[1896852cad7ef2d1dc88a121b1878088]
link Administrateur   to f11--><g id="link_Administrateur  _f11"><path d="M146.59,405.53 C168.47,413.04 194.23,421.2 218,427 C273.08,440.44 335.01,451.08 387.45,458.8 " fill="none" id="Administrateur  -to-f11" style="stroke:#181818;stroke-width:1.0;"/><polygon fill="#181818" points="392.49,459.54,384.1673,454.2738,387.5431,458.8129,383.004,462.1888,392.49,459.54" style="stroke:#181818;stroke-width:1.0;"/></g><!--MD5=[d509f5d00fd5d55a645cbd7be52053ce]
link Administrateur   to f12--><g id="link_Administrateur  _f12"><path d="M146.57,367.64 C168.56,360.26 194.41,351.89 218,345 C253.68,334.59 292.07,324.21 328.86,314.67 " fill="none" id="Administrateur  -to-f12" style="stroke:#181818;stroke-width:1.0;"/><polygon fill="#181818" points="333.81,313.39,324.0982,311.7528,328.9669,314.6329,326.0868,319.5017,333.81,313.39" style="stroke:#181818;stroke-width:1.0;"/></g><!--MD5=[cd45a8ae32152599b0e54e907e211b36]
link Candidat  to f18--><g id="link_Candidat _f18"><path d="M125.34,1647.61 C188.41,1652.79 331.1,1664.49 423.3,1672.05 " fill="none" id="Candidat -to-f18" style="stroke:#181818;stroke-width:1.0;"/><polygon fill="#181818" points="428.47,1672.48,419.8321,1667.7485,423.4872,1672.066,419.1697,1675.721,428.47,1672.48" style="stroke:#181818;stroke-width:1.0;"/></g><!--MD5=[ae6866463f884a1583185753fd1b9533]
link Recruteur  to Candidat --><g id="link_Recruteur _Candidat "><path d="M92.5,1555.32 C92.5,1570.8 92.5,1586.27 92.5,1601.75 " fill="none" id="Recruteur -to-Candidat " style="stroke:#181818;stroke-width:1.0;"/><polygon fill="#181818" points="92.5,1607,96.5,1598,92.5,1602,88.5,1598,92.5,1607" style="stroke:#181818;stroke-width:1.0;"/></g><!--MD5=[f029c064660398938903de3d27b612a3]
link Recruteur  to f15--><g id="link_Recruteur _f15"><path d="M129.2,1513.38 C177.04,1508.53 265.14,1499.61 344.34,1491.58 " fill="none" id="Recruteur -to-f15" style="stroke:#181818;stroke-width:1.0;"/><polygon fill="#181818" points="349.54,1491.06,340.1849,1487.9807,344.5651,1491.5603,340.9855,1495.9406,349.54,1491.06" style="stroke:#181818;stroke-width:1.0;"/></g><!--MD5=[836405b4cb45d6a1e9f146e6fb0c6321]
link Recruteur  to f15.5--><g id="link_Recruteur _f15.5"><path d="M129.2,1522.94 C180.32,1531.45 277.38,1547.61 360.44,1561.44 " fill="none" id="Recruteur -to-f15.5" style="stroke:#181818;stroke-width:1.0;"/><polygon fill="#181818" points="365.39,1562.26,357.1751,1556.8271,360.4588,1561.4334,355.8526,1564.717,365.39,1562.26" style="stroke:#181818;stroke-width:1.0;"/></g><!--MD5=[97f171d0154853b78daed1fb6272dbbd]
link Recruteur  to f16--><g id="link_Recruteur _f16"><path d="M129.05,1480.76 C152.29,1459.39 184.46,1433.89 218,1420 C284.77,1392.34 367.03,1384.32 426.86,1382.64 " fill="none" id="Recruteur -to-f16" style="stroke:#181818;stroke-width:1.0;"/><polygon fill="#181818" points="432.21,1382.51,423.1102,1378.7427,427.2117,1382.6385,423.3158,1386.74,432.21,1382.51" style="stroke:#181818;stroke-width:1.0;"/></g><!--MD5=[390ee0489062c32e93170220d341e704]
link Recruteur   to Candidat  --><g id="link_Recruteur  _Candidat  "><path d="M92.5,1017.34 C92.5,1041.78 92.5,1066.21 92.5,1090.64 " fill="none" id="Recruteur  -to-Candidat  " style="stroke:#181818;stroke-width:1.0;"/><polygon fill="#181818" points="92.5,1095.86,96.5,1086.86,92.5,1090.86,88.5,1086.86,92.5,1095.86" style="stroke:#181818;stroke-width:1.0;"/></g><!--MD5=[e0924d691b8918d58540dc557bfbc96d]
link Candidat   to f25--><g id="link_Candidat  _f25"><path d="M127.07,1138.13 C190.44,1145.93 329.5,1163.04 420.92,1174.29 " fill="none" id="Candidat  -to-f25" style="stroke:#181818;stroke-width:1.0;"/><polygon fill="#181818" points="426.05,1174.92,417.6102,1169.8436,421.088,1174.3051,416.6264,1177.7828,426.05,1174.92" style="stroke:#181818;stroke-width:1.0;"/></g><!--MD5=[1dc265c76216c5dca54cd5ace4936327]
link Candidat   to f26--><g id="link_Candidat  _f26"><path d="M127.06,1164.76 C150.72,1184.66 184.13,1209.32 218,1223 C273.78,1245.53 339.86,1256.42 394.85,1261.62 " fill="none" id="Candidat  -to-f26" style="stroke:#181818;stroke-width:1.0;"/><polygon fill="#181818" points="400.14,1262.11,391.5441,1257.3027,395.161,1261.6522,390.8115,1265.2691,400.14,1262.11" style="stroke:#181818;stroke-width:1.0;"/></g><!--MD5=[cc1e79b8ef16600ae08ac798d4bad62f]
link Candidat   to f29--><g id="link_Candidat  _f29"><path d="M127.07,1129.79 C168.1,1124.64 240.87,1115.51 311.89,1106.6 " fill="none" id="Candidat  -to-f29" style="stroke:#181818;stroke-width:1.0;"/><polygon fill="#181818" points="317,1105.96,307.5683,1103.1239,312.0397,1106.589,308.5747,1111.0604,317,1105.96" style="stroke:#181818;stroke-width:1.0;"/></g><!--MD5=[793e3d059155f350e906dadb8c69324a]
link Recruteur   to f21--><g id="link_Recruteur  _f21"><path d="M131.27,965.69 C155.76,957.43 188.49,947.08 218,940 C270.92,927.3 330.05,916.68 381.04,908.61 " fill="none" id="Recruteur  -to-f21" style="stroke:#181818;stroke-width:1.0;"/><polygon fill="#181818" points="386.26,907.79,376.7436,905.2525,381.322,908.5749,377.9996,913.1533,386.26,907.79" style="stroke:#181818;stroke-width:1.0;"/></g><!--MD5=[12bc44796876a2d4dedcdd5dd24108f6]
link Recruteur   to f24--><g id="link_Recruteur  _f24"><path d="M131.02,979 C193.5,979 320.85,979 410.18,979 " fill="none" id="Recruteur  -to-f24" style="stroke:#181818;stroke-width:1.0;"/><polygon fill="#181818" points="415.2,979,406.2,975,410.2,979,406.2,983,415.2,979" style="stroke:#181818;stroke-width:1.0;"/></g><!--MD5=[d1fe8102f0ef057cc6c5c7458e3cda01]
link Utilisateur non connecté  to f30--><g id="link_Utilisateur non connecté _f30"><path d="M179.13,85.18 C255.65,79.09 366.38,70.28 437.78,64.59 " fill="none" id="Utilisateur non connecté -to-f30" style="stroke:#181818;stroke-width:1.0;"/><polygon fill="#181818" points="442.86,64.19,433.5689,60.9226,437.876,64.5899,434.2087,68.8969,442.86,64.19" style="stroke:#181818;stroke-width:1.0;"/></g><!--MD5=[3069ee1bb5664c9604f547d8d4bce269]
link Utilisateur non connecté  to f31--><g id="link_Utilisateur non connecté _f31"><path d="M179.13,98.82 C260.23,105.27 379.77,114.79 450.18,120.4 " fill="none" id="Utilisateur non connecté -to-f31" style="stroke:#181818;stroke-width:1.0;"/><polygon fill="#181818" points="455.58,120.83,446.9164,116.1458,450.595,120.4432,446.2976,124.1218,455.58,120.83" style="stroke:#181818;stroke-width:1.0;"/></g><!--MD5=[6dc3ac277737881a453380061568f7ac]
@startuml
left to right direction
rectangle use_case_g_gestion{
"gestion des offres" as (f1)
"gestion des candidatures" as (f2)
"gestion des utilisateurs" as (f3)
"gestion des organisations" as (f4)
"gestion des connexions" as (f4.5)
}


rectangle use_case_gestion_organisations{
"visualisation des demandes d'enregistrement d'organisation" as (f5)
"valider les demandes d'enregistrement d'organisation" as (f6)
"refuser les demandes d'enregistrement d'organisation" as (f7)
"visualisation des demandes validées ou refusées" as (f8)
}


rectangle use_case_gestion_utilisateurs{
"visualisation des comptes" as (f9)
"modification et suppression des comptes" as (f10)
"attribution du rôle d'administrateur" as (f11)
"visualiser les demandes de joindre une organisation en tant que recruteur" as (f12)
"valider les demandes" as (f13)
"refuser les demandes" as (f14)
}


rectangle use_case_gestion_offre{
"visualisation des offres valides de l'organisation" as (f15)
  "visualisation des offres expirées de l'organisation" as (f15.5)
"poster une offre" as (f16)
"modifier ou supprimer une offre" as (f17)
"visualiser les offres" as (f18)
"trier les offres" as (f19)
"filtrer les offres" as (f20)
}


rectangle use_case_gestion_candidatures{
"visualiser les candidatures à une offre" as (f21)
"accepter la candidature" as (f22)
"refuser la candidature" as (f23)
"télécharger le dossier" as (f24)
"candidater à une offre" as (f25)
"visualiser ses candidatures" as (f26)
"modifier ses candidatures" as (f27)
"supprimer ses candidatures" as (f28)
"demander à rejoindre une organisation en tant que recruteur" as (f29)
}


rectangle use_case_gestion_connexions{
"se connecter" as (f30)
"s'inscrire" as (f31)
"vérifier que le mot de passe est conforme" as (f32)
}


(f5) ..> (f6) : extends
(f5) ..> (f7) : extends
(f9) ..> (f10) : extends
(f12) ..> (f13) : extends
(f12) ..> (f14) : extends
(f15) ..> (f17) : extends
(f18) ..> (f19) : extends
(f18) ..> (f20) : extends
(f26) ..> (f27) : extends
(f26) ..> (f28) : extends
(f21) ..> (f22) : extends
(f21) ..> (f23) : extends
(f31) ..> (f32) : includes

:Recruteur: -> :Candidat:
:Candidat: - -> (f1)
:Candidat: - -> (f2)
:Recruteur: - -> (f1)
:Recruteur: - -> (f2)
:Administrateur: - -> (f3)
:Administrateur: - -> (f4)
:Utilisateur non connecté: - -> (f4.5)
:Administrateur : - -> (f5)
:Administrateur : - -> (f8)
:Administrateur  : - -> (f9)
:Administrateur  : - -> (f11)
:Administrateur  : - -> (f12)
:Candidat : - -> (f18)
:Recruteur : -> :Candidat :
:Recruteur : - -> (f15)
:Recruteur : - -> (f15.5)
:Recruteur : - -> (f16)
:Recruteur  : -> :Candidat  :
:Candidat  : - -> (f25)
:Candidat  : - -> (f26)
:Candidat  : - -> (f29)
:Recruteur  : - -> (f21)
:Recruteur  : - -> (f24)
:Utilisateur non connecté : - -> (f30)
:Utilisateur non connecté : - -> (f31)
@enduml

PlantUML version 1.2022.7(Mon Aug 22 17:01:30 UTC 2022)
(GPL source distribution)
Java Runtime: OpenJDK Runtime Environment
JVM: OpenJDK 64-Bit Server VM
Default Encoding: UTF-8
Language: en
Country: null
--></g></svg>