<svg xmlns="http://www.w3.org/2000/svg" xmlns:xlink="http://www.w3.org/1999/xlink" contentStyleType="text/css" height="1925px" preserveAspectRatio="none" style="width:1137px;height:1925px;background:#FFFFFF;" version="1.1" viewBox="0 0 1137 1925" width="1137px" zoomAndPan="magnify"><defs/><g><!--cluster use_case_g_gestion--><g id="cluster_use_case_g_gestion"><rect fill="none" height="331" rx="2.5" ry="2.5" style="stroke:#181818;stroke-width:1.0;" width="242.9" x="342.36" y="1554"/><text fill="#000000" font-family="sans-serif" font-size="14" font-weight="bold" lengthAdjust="spacing" textLength="156" x="385.81" y="1568.9951">use_case_g_gestion</text></g><!--cluster use_case_gestion_utilisateurs--><g id="cluster_use_case_gestion_utilisateurs"><rect fill="none" height="212" rx="2.5" ry="2.5" style="stroke:#181818;stroke-width:1.0;" width="865.91" x="265.13" y="179"/><text fill="#000000" font-family="sans-serif" font-size="14" font-weight="bold" lengthAdjust="spacing" textLength="234" x="581.085" y="193.9951">use_case_gestion_utilisateurs</text></g><!--cluster use_case_gestion_offre--><g id="cluster_use_case_gestion_offre"><rect fill="none" height="383" rx="2.5" ry="2.5" style="stroke:#181818;stroke-width:1.0;" width="832" x="266.1" y="1101"/><text fill="#000000" font-family="sans-serif" font-size="14" font-weight="bold" lengthAdjust="spacing" textLength="185" x="589.6" y="1115.9951">use_case_gestion_offre</text></g><!--cluster use_case_gestion_candidatures--><g id="cluster_use_case_gestion_candidatures"><rect fill="none" height="575" rx="2.5" ry="2.5" style="stroke:#181818;stroke-width:1.0;" width="861.87" x="225" y="415"/><text fill="#000000" font-family="sans-serif" font-size="14" font-weight="bold" lengthAdjust="spacing" textLength="249" x="531.435" y="429.9951">use_case_gestion_candidatures</text></g><!--cluster use_case_gestion_connexions--><g id="cluster_use_case_gestion_connexions"><rect fill="none" height="148" rx="2.5" ry="2.5" style="stroke:#181818;stroke-width:1.0;" width="753.41" x="378.11" y="7"/><text fill="#000000" font-family="sans-serif" font-size="14" font-weight="bold" lengthAdjust="spacing" textLength="237" x="636.315" y="21.9951">use_case_gestion_connexions</text></g><g id="elem_f1"><ellipse cx="463.812" cy="1608.0024" fill="#F1F1F1" rx="82.712" ry="18.9424" style="stroke:#181818;stroke-width:0.5;"/><text fill="#000000" font-family="sans-serif" font-size="14" lengthAdjust="spacing" textLength="125" x="400.6208" y="1611.0815">gestion des offres</text></g><g id="elem_f2"><ellipse cx="463.8096" cy="1684.9999" fill="#F1F1F1" rx="105.4496" ry="23.4899" style="stroke:#181818;stroke-width:0.5;"/><text fill="#000000" font-family="sans-serif" font-size="14" lengthAdjust="spacing" textLength="176" x="375.8096" y="1687.8466">gestion des candidatures</text></g><g id="elem_f3"><ellipse cx="463.8147" cy="1766.0029" fill="#F1F1F1" rx="98.6147" ry="22.1229" style="stroke:#181818;stroke-width:0.5;"/><text fill="#000000" font-family="sans-serif" font-size="14" lengthAdjust="spacing" textLength="161" x="383.3147" y="1768.8496">gestion des utilisateurs</text></g><g id="elem_f4.5"><ellipse cx="463.8122" cy="1845.9964" fill="#F1F1F1" rx="100.8822" ry="22.5764" style="stroke:#181818;stroke-width:0.5;"/><text fill="#000000" font-family="sans-serif" font-size="14" lengthAdjust="spacing" textLength="166" x="380.8122" y="1848.8431">gestion des connexions</text></g><g id="elem_f8"><ellipse cx="463.8101" cy="252.996" fill="#F1F1F1" rx="182.6801" ry="38.936" style="stroke:#181818;stroke-width:0.5;"/><text fill="#000000" font-family="sans-serif" font-size="14" lengthAdjust="spacing" textLength="338" x="294.8101" y="255.8427">visualisation des demandes valid&#233;es ou refus&#233;es</text></g><g id="elem_f9"><ellipse cx="463.8079" cy="351.0036" fill="#F1F1F1" rx="106.3679" ry="23.6736" style="stroke:#181818;stroke-width:0.5;"/><text fill="#000000" font-family="sans-serif" font-size="14" lengthAdjust="spacing" textLength="178" x="374.8079" y="353.8503">visualisation des comptes</text></g><g id="elem_f10"><ellipse cx="957.5698" cy="341.004" fill="#F1F1F1" rx="157.4698" ry="33.894" style="stroke:#181818;stroke-width:0.5;"/><text fill="#000000" font-family="sans-serif" font-size="14" lengthAdjust="spacing" textLength="286" x="814.5698" y="343.8506">modification et suppression des comptes</text></g><g id="elem_f11"><ellipse cx="957.5669" cy="242.9994" fill="#F1F1F1" rx="133.9969" ry="29.1994" style="stroke:#181818;stroke-width:0.5;"/><text fill="#000000" font-family="sans-serif" font-size="14" lengthAdjust="spacing" textLength="237" x="839.0669" y="245.8461">attribution du r&#244;le d'administrateur</text></g><g id="elem_f15"><ellipse cx="463.8097" cy="1174.0039" fill="#F1F1F1" rx="175.8697" ry="37.5739" style="stroke:#181818;stroke-width:0.5;"/><text fill="#000000" font-family="sans-serif" font-size="14" lengthAdjust="spacing" textLength="324" x="301.8097" y="1176.8506">visualisation des offres valides de l'organisation</text></g><g id="elem_f15.5"><ellipse cx="463.8063" cy="1285.0013" fill="#F1F1F1" rx="181.7063" ry="38.7413" style="stroke:#181818;stroke-width:0.5;"/><text fill="#000000" font-family="sans-serif" font-size="14" lengthAdjust="spacing" textLength="336" x="295.8063" y="1287.8479">visualisation des offres expir&#233;es de l'organisation</text></g><g id="elem_f16"><ellipse cx="463.8063" cy="1377.0013" fill="#F1F1F1" rx="76.9563" ry="17.7913" style="stroke:#181818;stroke-width:0.5;"/><text fill="#000000" font-family="sans-serif" font-size="14" lengthAdjust="spacing" textLength="111" x="405.4175" y="1380.7201">poster une offre</text></g><g id="elem_f17"><ellipse cx="957.5726" cy="1173.9965" fill="#F1F1F1" rx="124.5326" ry="27.3065" style="stroke:#181818;stroke-width:0.5;"/><text fill="#000000" font-family="sans-serif" font-size="14" lengthAdjust="spacing" textLength="217" x="849.0726" y="1176.8432">modifier ou supprimer une offre</text></g><g id="elem_f18"><ellipse cx="463.8092" cy="1449.0018" fill="#F1F1F1" rx="84.8592" ry="19.3718" style="stroke:#181818;stroke-width:0.5;"/><text fill="#000000" font-family="sans-serif" font-size="14" lengthAdjust="spacing" textLength="130" x="398.8092" y="1451.8485">visualiser les offres</text></g><g id="elem_f19"><ellipse cx="957.5733" cy="1438.9967" fill="#F1F1F1" rx="70.4333" ry="16.4867" style="stroke:#181818;stroke-width:0.5;"/><text fill="#000000" font-family="sans-serif" font-size="14" lengthAdjust="spacing" textLength="94" x="907.5733" y="1442.7442">trier les offres</text></g><g id="elem_f20"><ellipse cx="957.5678" cy="1370.0036" fill="#F1F1F1" rx="73.0678" ry="17.0136" style="stroke:#181818;stroke-width:0.5;"/><text fill="#000000" font-family="sans-serif" font-size="14" lengthAdjust="spacing" textLength="101" x="904.0678" y="1373.7511">filtrer les offres</text></g><g id="elem_f6"><ellipse cx="957.5672" cy="945.9974" fill="#F1F1F1" rx="91.8872" ry="20.7774" style="stroke:#181818;stroke-width:0.5;"/><text fill="#000000" font-family="sans-serif" font-size="14" lengthAdjust="spacing" textLength="146" x="884.5672" y="948.8441">valider les demandes</text></g><g id="elem_f7"><ellipse cx="957.5663" cy="869.0033" fill="#F1F1F1" rx="94.1163" ry="21.2233" style="stroke:#181818;stroke-width:0.5;"/><text fill="#000000" font-family="sans-serif" font-size="14" lengthAdjust="spacing" textLength="151" x="882.0663" y="871.8499">refuser les demandes</text></g><g id="elem_f21"><ellipse cx="463.8127" cy="480.9985" fill="#F1F1F1" rx="144.4927" ry="31.2985" style="stroke:#181818;stroke-width:0.5;"/><text fill="#000000" font-family="sans-serif" font-size="14" lengthAdjust="spacing" textLength="259" x="334.3127" y="483.8452">visualiser les candidatures &#224; une offre</text></g><g id="elem_f22"><ellipse cx="957.5673" cy="552.0035" fill="#F1F1F1" rx="99.0673" ry="22.2135" style="stroke:#181818;stroke-width:0.5;"/><text fill="#000000" font-family="sans-serif" font-size="14" lengthAdjust="spacing" textLength="162" x="876.5673" y="554.8501">accepter la candidature</text></g><g id="elem_f23"><ellipse cx="957.5693" cy="474.0039" fill="#F1F1F1" rx="93.6693" ry="21.1339" style="stroke:#181818;stroke-width:0.5;"/><text fill="#000000" font-family="sans-serif" font-size="14" lengthAdjust="spacing" textLength="150" x="882.5693" y="476.8505">refuser la candidature</text></g><g id="elem_f24"><ellipse cx="463.8093" cy="568.0039" fill="#F1F1F1" rx="93.6693" ry="21.1339" style="stroke:#181818;stroke-width:0.5;"/><text fill="#000000" font-family="sans-serif" font-size="14" lengthAdjust="spacing" textLength="150" x="388.8093" y="570.8505">t&#233;l&#233;charger le dossier</text></g><g id="elem_f25"><ellipse cx="463.8063" cy="645.0033" fill="#F1F1F1" rx="94.1163" ry="21.2233" style="stroke:#181818;stroke-width:0.5;"/><text fill="#000000" font-family="sans-serif" font-size="14" lengthAdjust="spacing" textLength="151" x="388.3063" y="647.8499">candidater &#224; une offre</text></g><g id="elem_f26"><ellipse cx="463.8057" cy="726.0011" fill="#F1F1F1" rx="110.0557" ry="24.4111" style="stroke:#181818;stroke-width:0.5;"/><text fill="#000000" font-family="sans-serif" font-size="14" lengthAdjust="spacing" textLength="186" x="370.8057" y="728.8478">visualiser ses candidatures</text></g><g id="elem_f27"><ellipse cx="957.5679" cy="724.0036" fill="#F1F1F1" rx="106.3679" ry="23.6736" style="stroke:#181818;stroke-width:0.5;"/><text fill="#000000" font-family="sans-serif" font-size="14" lengthAdjust="spacing" textLength="178" x="868.5679" y="726.8503">modifier ses candidatures</text></g><g id="elem_f28"><ellipse cx="957.5704" cy="640.0001" fill="#F1F1F1" rx="113.3004" ry="25.0601" style="stroke:#181818;stroke-width:0.5;"/><text fill="#000000" font-family="sans-serif" font-size="14" lengthAdjust="spacing" textLength="193" x="861.0704" y="642.8468">supprimer ses candidatures</text></g><g id="elem_f29"><ellipse cx="463.8088" cy="832.0018" fill="#F1F1F1" rx="222.8088" ry="46.9618" style="stroke:#181818;stroke-width:0.5;"/><text fill="#000000" font-family="sans-serif" font-size="14" lengthAdjust="spacing" textLength="420" x="253.8088" y="834.8484">demander &#224; rejoindre une organisation en tant que recruteur</text></g><g id="elem_f33"><ellipse cx="463.8113" cy="944.0003" fill="#F1F1F1" rx="136.8513" ry="29.7703" style="stroke:#181818;stroke-width:0.5;"/><text fill="#000000" font-family="sans-serif" font-size="14" lengthAdjust="spacing" textLength="243" x="342.3113" y="946.8469">demander &#224; cr&#233;er une organisation</text></g><g id="elem_f30"><ellipse cx="463.8052" cy="57.999" fill="#F1F1F1" rx="69.6952" ry="16.339" style="stroke:#181818;stroke-width:0.5;"/><text fill="#000000" font-family="sans-serif" font-size="14" lengthAdjust="spacing" textLength="92" x="414.8052" y="61.7466">se connecter</text></g><g id="elem_f31"><ellipse cx="463.8068" cy="123.9997" fill="#F1F1F1" rx="55.5868" ry="14.7397" style="stroke:#181818;stroke-width:0.5;"/><text fill="#000000" font-family="sans-serif" font-size="14" lengthAdjust="spacing" textLength="61" x="430.3068" y="127.7473">s'inscrire</text></g><g id="elem_f32"><ellipse cx="957.5722" cy="104.0004" fill="#F1F1F1" rx="157.9522" ry="33.9904" style="stroke:#181818;stroke-width:0.5;"/><text fill="#000000" font-family="sans-serif" font-size="14" lengthAdjust="spacing" textLength="287" x="814.0722" y="106.8471">v&#233;rifier que le mot de passe est conforme</text></g><!--entity Recruteur--><g id="elem_Recruteur"><ellipse cx="92.5" cy="1519.35" fill="#F1F1F1" rx="8" ry="8" style="stroke:#181818;stroke-width:0.5;"/><path d="M92.5,1527.35 L92.5,1554.35 M79.5,1535.35 L105.5,1535.35 M92.5,1554.35 L79.5,1569.35 M92.5,1554.35 L105.5,1569.35 " fill="none" style="stroke:#181818;stroke-width:0.5;"/><text fill="#000000" font-family="sans-serif" font-size="14" lengthAdjust="spacing" textLength="69" x="58" y="1583.8451">Recruteur</text></g><!--entity Candidat--><g id="elem_Candidat"><ellipse cx="92.5" cy="1630.35" fill="#F1F1F1" rx="8" ry="8" style="stroke:#181818;stroke-width:0.5;"/><path d="M92.5,1638.35 L92.5,1665.35 M79.5,1646.35 L105.5,1646.35 M92.5,1665.35 L79.5,1680.35 M92.5,1665.35 L105.5,1680.35 " fill="none" style="stroke:#181818;stroke-width:0.5;"/><text fill="#000000" font-family="sans-serif" font-size="14" lengthAdjust="spacing" textLength="61" x="62" y="1694.8451">Candidat</text></g><!--entity Administrateur--><g id="elem_Administrateur"><ellipse cx="92.5" cy="1741.35" fill="#F1F1F1" rx="8" ry="8" style="stroke:#181818;stroke-width:0.5;"/><path d="M92.5,1749.35 L92.5,1776.35 M79.5,1757.35 L105.5,1757.35 M92.5,1776.35 L79.5,1791.35 M92.5,1776.35 L105.5,1791.35 " fill="none" style="stroke:#181818;stroke-width:0.5;"/><text fill="#000000" font-family="sans-serif" font-size="14" lengthAdjust="spacing" textLength="100" x="42.5" y="1805.8451">Administrateur</text></g><!--entity Utilisateur non connect?--><g id="elem_Utilisateur non connect&#233;"><ellipse cx="92.5" cy="1852.35" fill="#F1F1F1" rx="8" ry="8" style="stroke:#181818;stroke-width:0.5;"/><path d="M92.5,1860.35 L92.5,1887.35 M79.5,1868.35 L105.5,1868.35 M92.5,1887.35 L79.5,1902.35 M92.5,1887.35 L105.5,1902.35 " fill="none" style="stroke:#181818;stroke-width:0.5;"/><text fill="#000000" font-family="sans-serif" font-size="14" lengthAdjust="spacing" textLength="169" x="8" y="1916.8451">Utilisateur non connect&#233;</text></g><!--entity Administrateur --><g id="elem_Administrateur "><ellipse cx="463.81" cy="1017.35" fill="#F1F1F1" rx="8" ry="8" style="stroke:#181818;stroke-width:0.5;"/><path d="M463.81,1025.35 L463.81,1052.35 M450.81,1033.35 L476.81,1033.35 M463.81,1052.35 L450.81,1067.35 M463.81,1052.35 L476.81,1067.35 " fill="none" style="stroke:#181818;stroke-width:0.5;"/><text fill="#000000" font-family="sans-serif" font-size="14" lengthAdjust="spacing" textLength="100" x="411.81" y="1081.8451">Administrateur</text></g><!--entity Administrateur  --><g id="elem_Administrateur  "><ellipse cx="92.5" cy="286.35" fill="#F1F1F1" rx="8" ry="8" style="stroke:#181818;stroke-width:0.5;"/><path d="M92.5,294.35 L92.5,321.35 M79.5,302.35 L105.5,302.35 M92.5,321.35 L79.5,336.35 M92.5,321.35 L105.5,336.35 " fill="none" style="stroke:#181818;stroke-width:0.5;"/><text fill="#000000" font-family="sans-serif" font-size="14" lengthAdjust="spacing" textLength="100" x="38.5" y="350.8451">Administrateur</text></g><!--entity Candidat --><g id="elem_Candidat "><ellipse cx="92.5" cy="1408.35" fill="#F1F1F1" rx="8" ry="8" style="stroke:#181818;stroke-width:0.5;"/><path d="M92.5,1416.35 L92.5,1443.35 M79.5,1424.35 L105.5,1424.35 M92.5,1443.35 L79.5,1458.35 M92.5,1443.35 L105.5,1458.35 " fill="none" style="stroke:#181818;stroke-width:0.5;"/><text fill="#000000" font-family="sans-serif" font-size="14" lengthAdjust="spacing" textLength="61" x="60" y="1472.8451">Candidat</text></g><!--entity Recruteur --><g id="elem_Recruteur "><ellipse cx="92.5" cy="1271.35" fill="#F1F1F1" rx="8" ry="8" style="stroke:#181818;stroke-width:0.5;"/><path d="M92.5,1279.35 L92.5,1306.35 M79.5,1287.35 L105.5,1287.35 M92.5,1306.35 L79.5,1321.35 M92.5,1306.35 L105.5,1321.35 " fill="none" style="stroke:#181818;stroke-width:0.5;"/><text fill="#000000" font-family="sans-serif" font-size="14" lengthAdjust="spacing" textLength="69" x="56" y="1335.8451">Recruteur</text></g><!--entity Recruteur  --><g id="elem_Recruteur  "><ellipse cx="92.5" cy="538.35" fill="#F1F1F1" rx="8" ry="8" style="stroke:#181818;stroke-width:0.5;"/><path d="M92.5,546.35 L92.5,573.35 M79.5,554.35 L105.5,554.35 M92.5,573.35 L79.5,588.35 M92.5,573.35 L105.5,588.35 " fill="none" style="stroke:#181818;stroke-width:0.5;"/><text fill="#000000" font-family="sans-serif" font-size="14" lengthAdjust="spacing" textLength="69" x="54" y="602.8451">Recruteur</text></g><!--entity Candidat  --><g id="elem_Candidat  "><ellipse cx="92.5" cy="696.35" fill="#F1F1F1" rx="8" ry="8" style="stroke:#181818;stroke-width:0.5;"/><path d="M92.5,704.35 L92.5,731.35 M79.5,712.35 L105.5,712.35 M92.5,731.35 L79.5,746.35 M92.5,731.35 L105.5,746.35 " fill="none" style="stroke:#181818;stroke-width:0.5;"/><text fill="#000000" font-family="sans-serif" font-size="14" lengthAdjust="spacing" textLength="61" x="58" y="760.8451">Candidat</text></g><!--entity Utilisateur non connect? --><g id="elem_Utilisateur non connect&#233; "><ellipse cx="92.5" cy="61.35" fill="#F1F1F1" rx="8" ry="8" style="stroke:#181818;stroke-width:0.5;"/><path d="M92.5,69.35 L92.5,96.35 M79.5,77.35 L105.5,77.35 M92.5,96.35 L79.5,111.35 M92.5,96.35 L105.5,111.35 " fill="none" style="stroke:#181818;stroke-width:0.5;"/><text fill="#000000" font-family="sans-serif" font-size="14" lengthAdjust="spacing" textLength="169" x="6" y="125.8451">Utilisateur non connect&#233;</text></g><!--link f29 to f6--><g id="link_f29_f6"><path d="M682.54,841.46 C712.94,848.37 742.88,858.47 769.62,873 C787.62,882.79 782.15,897.3 799.62,908 C822.33,921.92 843.9284,929.4586 869.4984,935.0486 " fill="none" id="f29-to-f6" style="stroke:#181818;stroke-width:1.0;stroke-dasharray:7.0,7.0;"/><polygon fill="#181818" points="875.36,936.33,867.4219,930.5001,870.4754,935.2621,865.7134,938.3156,875.36,936.33" style="stroke:#181818;stroke-width:1.0;"/><text fill="#000000" font-family="sans-serif" font-size="13" lengthAdjust="spacing" textLength="45" x="720.62" y="850.0669">include</text></g><!--link f29 to f7--><g id="link_f29_f7"><path d="M640.66,803.11 C683.05,800.13 728.08,800.29 769.62,807 C820.09,815.15 869.8062,832.6842 907.0662,847.7242 " fill="none" id="f29-to-f7" style="stroke:#181818;stroke-width:1.0;stroke-dasharray:7.0,7.0;"/><polygon fill="#181818" points="912.63,849.97,905.7815,842.892,907.9935,848.0985,902.787,850.3105,912.63,849.97" style="stroke:#181818;stroke-width:1.0;"/><text fill="#000000" font-family="sans-serif" font-size="13" lengthAdjust="spacing" textLength="45" x="720.62" y="798.0669">include</text></g><!--link f9 to f10--><g id="link_f9_f10"><path d="M570,348.86 C637.15,347.5 719.4012,345.822 794.6312,344.292 " fill="none" id="f9-to-f10" style="stroke:#181818;stroke-width:1.0;stroke-dasharray:7.0,7.0;"/><polygon fill="#181818" points="800.63,344.17,791.5505,340.3538,795.631,344.2717,791.7132,348.3522,800.63,344.17" style="stroke:#181818;stroke-width:1.0;"/><text fill="#000000" font-family="sans-serif" font-size="13" lengthAdjust="spacing" textLength="51" x="717.62" y="341.0669">extends</text></g><!--link f33 to f6--><g id="link_f33_f6"><path d="M600.81,944.55 C685.1,944.9 785.07,945.3058 859.35,945.6058 " fill="none" id="f33-to-f6" style="stroke:#181818;stroke-width:1.0;stroke-dasharray:7.0,7.0;"/><polygon fill="#181818" points="865.35,945.63,856.3662,941.5937,860.35,945.6098,856.3339,949.5936,865.35,945.63" style="stroke:#181818;stroke-width:1.0;"/><text fill="#000000" font-family="sans-serif" font-size="13" lengthAdjust="spacing" textLength="45" x="720.62" y="942.0669">include</text></g><!--link f33 to f7--><g id="link_f33_f7"><path d="M577.01,926.89 C669.14,912.84 791.3086,894.2048 872.5986,881.8048 " fill="none" id="f33-to-f7" style="stroke:#181818;stroke-width:1.0;stroke-dasharray:7.0,7.0;"/><polygon fill="#181818" points="878.53,880.9,869.0297,878.3029,873.5872,881.654,870.2361,886.2114,878.53,880.9" style="stroke:#181818;stroke-width:1.0;"/><text fill="#000000" font-family="sans-serif" font-size="13" lengthAdjust="spacing" textLength="45" x="720.62" y="894.0669">include</text></g><!--link f15 to f17--><g id="link_f15_f17"><path d="M639.92,1174 C703.66,1174 768.34,1174 826.73,1174 " fill="none" id="f15-to-f17" style="stroke:#181818;stroke-width:1.0;stroke-dasharray:7.0,7.0;"/><polygon fill="#181818" points="832.73,1174,823.73,1170,827.73,1174,823.73,1178,832.73,1174" style="stroke:#181818;stroke-width:1.0;"/><text fill="#000000" font-family="sans-serif" font-size="13" lengthAdjust="spacing" textLength="51" x="717.62" y="1170.0669">extends</text></g><!--link f18 to f19--><g id="link_f18_f19"><path d="M548.79,1447.29 C644.25,1445.35 792.3312,1442.3421 881.2412,1440.5321 " fill="none" id="f18-to-f19" style="stroke:#181818;stroke-width:1.0;stroke-dasharray:7.0,7.0;"/><polygon fill="#181818" points="887.24,1440.41,878.1605,1436.594,882.241,1440.5118,878.3233,1444.5924,887.24,1440.41" style="stroke:#181818;stroke-width:1.0;"/><text fill="#000000" font-family="sans-serif" font-size="13" lengthAdjust="spacing" textLength="51" x="717.62" y="1439.0669">extends</text></g><!--link f18 to f20--><g id="link_f18_f20"><path d="M534.22,1437.85 C630.99,1422.3 798.906,1395.3318 890.466,1380.6218 " fill="none" id="f18-to-f20" style="stroke:#181818;stroke-width:1.0;stroke-dasharray:7.0,7.0;"/><polygon fill="#181818" points="896.39,1379.67,886.8694,1377.1483,891.4533,1380.4631,888.1385,1385.047,896.39,1379.67" style="stroke:#181818;stroke-width:1.0;"/><text fill="#000000" font-family="sans-serif" font-size="13" lengthAdjust="spacing" textLength="51" x="717.62" y="1397.0669">extends</text></g><!--link f26 to f27--><g id="link_f26_f27"><path d="M574.25,725.56 C656.75,725.22 763.24,724.7843 844.82,724.4543 " fill="none" id="f26-to-f27" style="stroke:#181818;stroke-width:1.0;stroke-dasharray:7.0,7.0;"/><polygon fill="#181818" points="850.82,724.43,841.8039,720.4664,845.82,724.4502,841.8363,728.4664,850.82,724.43" style="stroke:#181818;stroke-width:1.0;"/><text fill="#000000" font-family="sans-serif" font-size="13" lengthAdjust="spacing" textLength="51" x="717.62" y="721.0669">extends</text></g><!--link f26 to f28--><g id="link_f26_f28"><path d="M551.31,710.87 C640.19,695.33 771.9797,672.2839 861.7297,656.5839 " fill="none" id="f26-to-f28" style="stroke:#181818;stroke-width:1.0;stroke-dasharray:7.0,7.0;"/><polygon fill="#181818" points="867.64,655.55,858.0854,653.1607,862.7148,656.4116,859.4639,661.041,867.64,655.55" style="stroke:#181818;stroke-width:1.0;"/><text fill="#000000" font-family="sans-serif" font-size="13" lengthAdjust="spacing" textLength="51" x="717.62" y="669.0669">extends</text></g><!--link f21 to f22--><g id="link_f21_f22"><path d="M585.11,498.37 C674.53,511.28 788.3215,527.7128 867.3715,539.1228 " fill="none" id="f21-to-f22" style="stroke:#181818;stroke-width:1.0;stroke-dasharray:7.0,7.0;"/><polygon fill="#181818" points="873.31,539.98,864.9737,534.7353,868.3613,539.2657,863.8309,542.6532,873.31,539.98" style="stroke:#181818;stroke-width:1.0;"/><text fill="#000000" font-family="sans-serif" font-size="13" lengthAdjust="spacing" textLength="45" x="720.62" y="515.0669">include</text></g><!--link f21 to f23--><g id="link_f21_f23"><path d="M608.37,478.96 C690.72,477.79 785.7206,476.4359 857.6906,475.4059 " fill="none" id="f21-to-f23" style="stroke:#181818;stroke-width:1.0;stroke-dasharray:7.0,7.0;"/><polygon fill="#181818" points="863.69,475.32,854.6337,471.4492,858.6905,475.3916,854.7482,479.4484,863.69,475.32" style="stroke:#181818;stroke-width:1.0;"/><text fill="#000000" font-family="sans-serif" font-size="13" lengthAdjust="spacing" textLength="45" x="720.62" y="473.0669">include</text></g><!--link f31 to f32--><g id="link_f31_f32"><path d="M518.84,121.8 C586.46,119.05 699.135,114.4742 795.865,110.5342 " fill="none" id="f31-to-f32" style="stroke:#181818;stroke-width:1.0;stroke-dasharray:7.0,7.0;"/><polygon fill="#181818" points="801.86,110.29,792.7047,106.6596,796.8641,110.4935,793.0302,114.653,801.86,110.29" style="stroke:#181818;stroke-width:1.0;"/><text fill="#000000" font-family="sans-serif" font-size="13" lengthAdjust="spacing" textLength="45" x="720.62" y="108.0669">include</text></g><!--link f9 to f11--><g id="link_f9_f11"><path d="M548.23,336.28 C589.9,328.65 641.04,318.88 686.62,309 C748.15,295.66 811.283,280.2405 864.093,266.8905 " fill="none" id="f9-to-f11" style="stroke:#181818;stroke-width:1.0;stroke-dasharray:7.0,7.0;"/><polygon fill="#181818" points="869.91,265.42,860.2041,263.7477,865.0625,266.6454,862.1648,271.5038,869.91,265.42" style="stroke:#181818;stroke-width:1.0;"/><text fill="#000000" font-family="sans-serif" font-size="13" lengthAdjust="spacing" textLength="51" x="717.62" y="287.0669">extends</text></g><!--link Recruteur to Candidat--><g id="link_Recruteur_Candidat"><path d="M92.5,1587.44 C92.5,1598.46 92.5,1604.47 92.5,1615.49 " fill="none" id="Recruteur-to-Candidat" style="stroke:#181818;stroke-width:1.0;"/><polygon fill="#181818" points="92.5,1621.49,96.5,1612.49,92.5,1616.49,88.5,1612.49,92.5,1621.49" style="stroke:#181818;stroke-width:1.0;"/></g><!--link Candidat to f1--><g id="link_Candidat_f1"><path d="M123.41,1655.79 C181.54,1647.61 305.2086,1630.1965 386.3886,1618.7665 " fill="none" id="Candidat-to-f1" style="stroke:#181818;stroke-width:1.0;"/><polygon fill="#181818" points="392.33,1617.93,382.8602,1615.2239,387.3788,1618.6271,383.9756,1623.1457,392.33,1617.93" style="stroke:#181818;stroke-width:1.0;"/></g><!--link Candidat to f2--><g id="link_Candidat_f2"><path d="M123.41,1662.03 C174.84,1665.51 276.2537,1672.3751 356.5337,1677.8051 " fill="none" id="Candidat-to-f2" style="stroke:#181818;stroke-width:1.0;"/><polygon fill="#181818" points="362.52,1678.21,353.8105,1673.6118,357.5314,1677.8726,353.2706,1681.5935,362.52,1678.21" style="stroke:#181818;stroke-width:1.0;"/></g><!--link Recruteur to f1--><g id="link_Recruteur_f1"><path d="M127.25,1554.39 C187.79,1564.07 309.9751,1583.5834 389.2151,1596.2434 " fill="none" id="Recruteur-to-f1" style="stroke:#181818;stroke-width:1.0;"/><polygon fill="#181818" points="395.14,1597.19,386.8838,1591.8202,390.2026,1596.4012,385.6216,1599.72,395.14,1597.19" style="stroke:#181818;stroke-width:1.0;"/></g><!--link Recruteur to f2--><g id="link_Recruteur_f2"><path d="M127.26,1568.14 C143.54,1578 162.96,1590.72 179,1604 C197.89,1619.64 195.34,1632.5 217,1644 C260.08,1666.88 306.9328,1676.9333 352.5428,1681.7233 " fill="none" id="Recruteur-to-f2" style="stroke:#181818;stroke-width:1.0;"/><polygon fill="#181818" points="358.51,1682.35,349.977,1677.4319,353.5373,1681.8278,349.1414,1685.3881,358.51,1682.35" style="stroke:#181818;stroke-width:1.0;"/></g><!--link Administrateur to f3--><g id="link_Administrateur_f3"><path d="M142.92,1770.33 C199.53,1769.57 287.6706,1768.3714 359.2006,1767.4014 " fill="none" id="Administrateur-to-f3" style="stroke:#181818;stroke-width:1.0;"/><polygon fill="#181818" points="365.2,1767.32,356.1466,1763.4424,360.2005,1767.3878,356.2551,1771.4417,365.2,1767.32" style="stroke:#181818;stroke-width:1.0;"/></g><!--link Utilisateur non connect? to f4.5--><g id="link_Utilisateur non connect&#233;_f4.5"><path d="M177.3,1873.83 C234.87,1868.22 305.3283,1861.3522 364.6183,1855.5722 " fill="none" id="Utilisateur non connect&#233;-to-f4.5" style="stroke:#181818;stroke-width:1.0;"/><polygon fill="#181818" points="370.59,1854.99,361.2444,1851.8821,365.6136,1855.4751,362.0206,1859.8444,370.59,1854.99" style="stroke:#181818;stroke-width:1.0;"/></g><!--link Administrateur  to f6--><g id="link_Administrateur _f6"><path d="M516.06,1049.5 C577.3,1051.23 682.44,1050.19 769.62,1029 C825.69,1015.37 880.6433,988.4743 917.1433,968.5543 " fill="none" id="Administrateur -to-f6" style="stroke:#181818;stroke-width:1.0;"/><polygon fill="#181818" points="922.41,965.68,912.5937,966.4803,918.0211,968.0753,916.4261,973.5026,922.41,965.68" style="stroke:#181818;stroke-width:1.0;"/></g><!--link Administrateur  to f7--><g id="link_Administrateur _f7"><path d="M516.24,1043.57 C582.01,1036.69 696.16,1016.01 769.62,954 C788.27,938.26 779.73,922.15 799.62,908 C820.67,893.03 841.0111,885.1178 865.9311,879.4178 " fill="none" id="Administrateur -to-f7" style="stroke:#181818;stroke-width:1.0;"/><polygon fill="#181818" points="871.78,878.08,862.1147,876.1875,866.9059,879.1949,863.8985,883.9861,871.78,878.08" style="stroke:#181818;stroke-width:1.0;"/></g><!--link Administrateur   to f8--><g id="link_Administrateur  _f8"><path d="M146.81,306.91 C192.15,299.17 253.4854,288.7085 314.3054,278.3385 " fill="none" id="Administrateur  -to-f8" style="stroke:#181818;stroke-width:1.0;"/><polygon fill="#181818" points="320.22,277.33,310.6757,274.8996,315.2911,278.1704,312.0203,282.7858,320.22,277.33" style="stroke:#181818;stroke-width:1.0;"/></g><!--link Administrateur   to f9--><g id="link_Administrateur  _f9"><path d="M146.81,321.05 C203.74,326.45 289.2267,334.5544 359.1367,341.1744 " fill="none" id="Administrateur  -to-f9" style="stroke:#181818;stroke-width:1.0;"/><polygon fill="#181818" points="365.11,341.74,356.5272,336.9094,360.1323,341.2686,355.773,344.8737,365.11,341.74" style="stroke:#181818;stroke-width:1.0;"/></g><!--link Candidat  to f18--><g id="link_Candidat _f18"><path d="M125.31,1438.95 C181.21,1440.61 292.7726,1443.9419 373.2626,1446.3319 " fill="none" id="Candidat -to-f18" style="stroke:#181818;stroke-width:1.0;"/><polygon fill="#181818" points="379.26,1446.51,370.3827,1442.2446,374.2622,1446.3616,370.1452,1450.2411,379.26,1446.51" style="stroke:#181818;stroke-width:1.0;"/></g><!--link Recruteur  to Candidat --><g id="link_Recruteur _Candidat "><path d="M92.5,1339.24 C92.5,1358.04 92.5,1374.64 92.5,1393.47 " fill="none" id="Recruteur -to-Candidat " style="stroke:#181818;stroke-width:1.0;"/><polygon fill="#181818" points="92.5,1399.47,96.5,1390.47,92.5,1394.47,88.5,1390.47,92.5,1399.47" style="stroke:#181818;stroke-width:1.0;"/></g><!--link Recruteur  to f15--><g id="link_Recruteur _f15"><path d="M129.29,1276.16 C153.17,1260.59 185.81,1241.24 217,1229 C250.89,1215.7 282.8781,1206.565 318.5181,1198.495 " fill="none" id="Recruteur -to-f15" style="stroke:#181818;stroke-width:1.0;"/><polygon fill="#181818" points="324.37,1197.17,314.7088,1195.2563,319.4935,1198.2742,316.4756,1203.0588,324.37,1197.17" style="stroke:#181818;stroke-width:1.0;"/></g><!--link Recruteur  to f15.5--><g id="link_Recruteur _f15.5"><path d="M129.25,1299.45 C166.08,1297.86 220.3356,1295.5101 279.5656,1292.9401 " fill="none" id="Recruteur -to-f15.5" style="stroke:#181818;stroke-width:1.0;"/><polygon fill="#181818" points="285.56,1292.68,276.3951,1289.0739,280.5647,1292.8967,276.7419,1297.0664,285.56,1292.68" style="stroke:#181818;stroke-width:1.0;"/></g><!--link Recruteur  to f16--><g id="link_Recruteur _f16"><path d="M129.26,1314.35 C153.68,1323.02 186.93,1333.98 217,1341 C275.49,1354.65 337.1205,1363.4138 386.6005,1369.1938 " fill="none" id="Recruteur -to-f16" style="stroke:#181818;stroke-width:1.0;"/><polygon fill="#181818" points="392.56,1369.89,384.0849,1364.8728,387.5938,1369.3099,383.1567,1372.8188,392.56,1369.89" style="stroke:#181818;stroke-width:1.0;"/></g><!--link Recruteur   to Candidat  --><g id="link_Recruteur  _Candidat  "><path d="M92.5,606.44 C92.5,631.14 92.5,657.1 92.5,681.75 " fill="none" id="Recruteur  -to-Candidat  " style="stroke:#181818;stroke-width:1.0;"/><polygon fill="#181818" points="92.5,687.75,96.5,678.75,92.5,682.75,88.5,678.75,92.5,687.75" style="stroke:#181818;stroke-width:1.0;"/></g><!--link Candidat   to f25--><g id="link_Candidat  _f25"><path d="M127.37,712.74 C151.93,703.55 186.11,691.64 217,684 C270.37,670.79 325.4733,661.8783 373.3733,655.4483 " fill="none" id="Candidat  -to-f25" style="stroke:#181818;stroke-width:1.0;"/><polygon fill="#181818" points="379.32,654.65,369.8678,651.883,374.3644,655.3152,370.9322,659.8118,379.32,654.65" style="stroke:#181818;stroke-width:1.0;"/></g><!--link Candidat   to f26--><g id="link_Candidat  _f26"><path d="M127.25,726 C178,726 270.22,726 347.34,726 " fill="none" id="Candidat  -to-f26" style="stroke:#181818;stroke-width:1.0;"/><polygon fill="#181818" points="353.34,726,344.34,722,348.34,726,344.34,730,353.34,726" style="stroke:#181818;stroke-width:1.0;"/></g><!--link Candidat   to f29--><g id="link_Candidat  _f29"><path d="M127.36,738.26 C152.05,747.02 186.41,758.83 217,768 C249.53,777.75 278.9172,785.9044 312.2372,794.6644 " fill="none" id="Candidat  -to-f29" style="stroke:#181818;stroke-width:1.0;"/><polygon fill="#181818" points="318.04,796.19,310.3528,790.0331,313.2043,794.9187,308.3187,797.7702,318.04,796.19" style="stroke:#181818;stroke-width:1.0;"/></g><!--link Candidat   to f33--><g id="link_Candidat  _f33"><path d="M110.7,764.35 C130.51,803.85 166.86,864.03 217,896 C250.73,917.51 286.051,928.7188 325.041,935.5888 " fill="none" id="Candidat  -to-f33" style="stroke:#181818;stroke-width:1.0;"/><polygon fill="#181818" points="330.95,936.63,322.7806,931.1289,326.0259,935.7624,321.3924,939.0076,330.95,936.63" style="stroke:#181818;stroke-width:1.0;"/></g><!--link Recruteur   to f21--><g id="link_Recruteur  _f21"><path d="M131.29,554.85 C155.58,546.7 187.91,536.41 217,529 C259.87,518.08 301.6035,509.3696 343.4235,501.4996 " fill="none" id="Recruteur  -to-f21" style="stroke:#181818;stroke-width:1.0;"/><polygon fill="#181818" points="349.32,500.39,339.7355,498.1235,344.4063,501.3147,341.215,505.9855,349.32,500.39" style="stroke:#181818;stroke-width:1.0;"/></g><!--link Recruteur   to f24--><g id="link_Recruteur  _f24"><path d="M131.29,568 C186.9,568 286.52,568 363.65,568 " fill="none" id="Recruteur  -to-f24" style="stroke:#181818;stroke-width:1.0;"/><polygon fill="#181818" points="369.65,568,360.65,564,364.65,568,360.65,572,369.65,568" style="stroke:#181818;stroke-width:1.0;"/></g><!--link Utilisateur non connect?  to f30--><g id="link_Utilisateur non connect&#233; _f30"><path d="M179.16,83.35 C245.96,77.38 331.3238,69.7539 392.1038,64.3239 " fill="none" id="Utilisateur non connect&#233; -to-f30" style="stroke:#181818;stroke-width:1.0;"/><polygon fill="#181818" points="398.08,63.79,388.7598,60.6067,393.0998,64.2349,389.4716,68.575,398.08,63.79" style="stroke:#181818;stroke-width:1.0;"/></g><!--link Utilisateur non connect?  to f31--><g id="link_Utilisateur non connect&#233; _f31"><path d="M179.16,98.66 C250.75,105.05 344.5638,113.4364 404.7038,118.8064 " fill="none" id="Utilisateur non connect&#233; -to-f31" style="stroke:#181818;stroke-width:1.0;"/><polygon fill="#181818" points="410.68,119.34,402.0714,114.5554,405.6998,118.8953,401.3599,122.5237,410.68,119.34" style="stroke:#181818;stroke-width:1.0;"/></g><!--SRC=[ZLLBRjim4Dth58DiKYzYH79inre4A7g30bq7h4WvB2HAvIS8KFGktNhV6-XY7PAYVgQIRcnftfl7-N5KiLA3Ra3oyui6oYKhD6z4Ol-9E5SCZ6BF1S6Vy_EPAGl-Icxw9w1CGLEMagaR80e-bUbc3XP4K4w9DYCbMr2CvXLNH3CZ0sMtL6c4O6_u5WWFs_qc-PqaqJYzu_DK5qD-vSeGPmYgbDKO7Jwyefrs5vkB0SbAe-nBVzJZ9kPRD7Mh1yu9ENL3USaBJs4Qb6bRJ5h5FT9xT25QI_xTU54ykVkBUT1RGcikkDBInHuSqWyJTes8PkfRvFDqYKDrsyWp4JqfdB7VlEFDtbekNPNM_MrRRjf6QIR12EPT0teOgeGeLjfLYDSnwd4I2EBLrPZPhc3nefZjHiahBMDeTlzX7QSpQylfgkQbmiZqOZOZDoznE9B5L1kwFrUPP_O2aQ9WhIrXHQOEWP9DJuqoxFtHtQNgBiKBaMTtDj06Xv65USeUa1DSaH2BPJ-FNwtSvrbVrqYs5cF3rrYshNqHNKYI_MYue9Bvu2OZ1qm0Db33JyEGLaWpkIpPQQ5JsC6LLo9XtUm-debX0-54AEOtKg67SkxiVLQtNAX2yg62EzlDr-uYVMrig2XUDzfUePOe549zArOsiXwyCX-EomEssoStQP035qLbA9i1npams7718C3UD1DK9Ix7kDG8BAHm6mIjurmBRrz0Jcj8jZWVfoGWnrNaSO6a0v8jyX-HtIAT0TbbQwL9fySa-TSmFJdSFK7-fP_BF1aVuUxkoN_ThcpOh9d2GBmoMkRdsMuF2CvV_ctyN870-UudhBi4allcBGGWW8Trw7WD3TZZEzXfaknWj8jtp0pc5ODyWNcN_IPktgu0XvbvUGPC-Z86QtTLp7o8cqzHizq3YvCzFLsnFxpNjr7s_lzewUOV]--></g></svg>