<?xml version="1.0" encoding="us-ascii" standalone="no"?><svg xmlns="http://www.w3.org/2000/svg" xmlns:xlink="http://www.w3.org/1999/xlink" contentStyleType="text/css" height="1073px" preserveAspectRatio="none" style="width:1037px;height:1073px;background:#FFFFFF;" version="1.1" viewBox="0 0 1037 1073" width="1037px" zoomAndPan="magnify"><defs/><g><g id="elem_note"><path d="M18.6681,18.5 L18.6681,43.6328 L249.6681,43.6328 L249.6681,28.5 L239.6681,18.5 L18.6681,18.5 " fill="#FEFFDD" style="stroke:#181818;stroke-width:0.5;"/><path d="M239.6681,18.5 L239.6681,28.5 L249.6681,28.5 L239.6681,18.5 " fill="#FEFFDD" style="stroke:#181818;stroke-width:1.0;"/><text fill="#000000" font-family="sans-serif" font-size="13" lengthAdjust="spacing" textLength="210" x="24.6681" y="35.5669">Tous les attributs sont NOT NULL</text></g><!--class Organisation--><g id="elem_Organisation"><rect codeLine="3" fill="#F1F1F1" height="80.5938" id="Organisation" rx="2.5" ry="2.5" style="stroke:#181818;stroke-width:0.5;" width="164" x="80.1681" y="422.5"/><ellipse cx="113.6181" cy="438.5" fill="#ADD1B2" rx="11" ry="11" style="stroke:#181818;stroke-width:1.0;"/><path d="M115.9618,434.1719 C115.0243,433.7344 114.4306,433.5938 113.5556,433.5938 C110.9306,433.5938 108.9306,435.6719 108.9306,438.3906 L108.9306,439.5156 C108.9306,442.0938 111.0399,443.9844 113.9306,443.9844 C115.1493,443.9844 116.3056,443.6875 117.0556,443.1406 C117.6337,442.7344 117.9618,442.2813 117.9618,441.8906 C117.9618,441.4375 117.5712,441.0469 117.1024,441.0469 C116.8837,441.0469 116.6806,441.125 116.4931,441.3125 C116.0399,441.7969 116.0399,441.7969 115.8524,441.8906 C115.4306,442.1563 114.7431,442.2813 113.9774,442.2813 C111.9306,442.2813 110.6337,441.1875 110.6337,439.4844 L110.6337,438.3906 C110.6337,436.6094 111.8837,435.2969 113.6181,435.2969 C114.1962,435.2969 114.8056,435.4531 115.2743,435.7031 C115.7587,435.9844 115.9306,436.2031 116.0243,436.6094 C116.0868,437.0156 116.1181,437.1406 116.2587,437.2656 C116.3993,437.4063 116.6337,437.5156 116.8524,437.5156 C117.1181,437.5156 117.3837,437.375 117.5556,437.1563 C117.6649,437 117.6962,436.8125 117.6962,436.3906 L117.6962,434.9688 C117.6962,434.5313 117.6806,434.4063 117.5868,434.25 C117.4306,433.9844 117.1493,433.8438 116.8524,433.8438 C116.5556,433.8438 116.3524,433.9375 116.1337,434.25 L115.9618,434.1719 Z " fill="#000000"/><text fill="#000000" font-family="sans-serif" font-size="14" lengthAdjust="spacing" textLength="91" x="131.7181" y="443.3467">Organisation</text><line style="stroke:#181818;stroke-width:0.5;" x1="81.1681" x2="243.1681" y1="454.5" y2="454.5"/><text fill="#000000" font-family="sans-serif" font-size="14" lengthAdjust="spacing" textLength="152" x="86.1681" y="471.4951">&lt;primary&gt; Siren : int</text><text fill="#000000" font-family="sans-serif" font-size="14" lengthAdjust="spacing" textLength="65" x="86.1681" y="487.792">nom : str</text><line style="stroke:#181818;stroke-width:0.5;" x1="81.1681" x2="243.1681" y1="495.0938" y2="495.0938"/></g><!--class Type_Organisation--><g id="elem_Type_Organisation"><rect codeLine="8" fill="#F1F1F1" height="64.2969" id="Type_Organisation" rx="2.5" ry="2.5" style="stroke:#181818;stroke-width:0.5;" width="167" x="40.6681" y="779"/><ellipse cx="56.1181" cy="795" fill="#ADD1B2" rx="11" ry="11" style="stroke:#181818;stroke-width:1.0;"/><path d="M58.4618,790.6719 C57.5243,790.2344 56.9306,790.0938 56.0556,790.0938 C53.4306,790.0938 51.4306,792.1719 51.4306,794.8906 L51.4306,796.0156 C51.4306,798.5938 53.5399,800.4844 56.4306,800.4844 C57.6493,800.4844 58.8056,800.1875 59.5556,799.6406 C60.1337,799.2344 60.4618,798.7813 60.4618,798.3906 C60.4618,797.9375 60.0712,797.5469 59.6024,797.5469 C59.3837,797.5469 59.1806,797.625 58.9931,797.8125 C58.5399,798.2969 58.5399,798.2969 58.3524,798.3906 C57.9306,798.6563 57.2431,798.7813 56.4774,798.7813 C54.4306,798.7813 53.1337,797.6875 53.1337,795.9844 L53.1337,794.8906 C53.1337,793.1094 54.3837,791.7969 56.1181,791.7969 C56.6962,791.7969 57.3056,791.9531 57.7743,792.2031 C58.2587,792.4844 58.4306,792.7031 58.5243,793.1094 C58.5868,793.5156 58.6181,793.6406 58.7587,793.7656 C58.8993,793.9063 59.1337,794.0156 59.3524,794.0156 C59.6181,794.0156 59.8837,793.875 60.0556,793.6563 C60.1649,793.5 60.1962,793.3125 60.1962,792.8906 L60.1962,791.4688 C60.1962,791.0313 60.1806,790.9063 60.0868,790.75 C59.9306,790.4844 59.6493,790.3438 59.3524,790.3438 C59.0556,790.3438 58.8524,790.4375 58.6337,790.75 L58.4618,790.6719 Z " fill="#000000"/><text fill="#000000" font-family="sans-serif" font-size="14" lengthAdjust="spacing" textLength="134" x="70.2181" y="799.8467">Type_Organisation</text><line style="stroke:#181818;stroke-width:0.5;" x1="41.6681" x2="206.6681" y1="811" y2="811"/><text fill="#000000" font-family="sans-serif" font-size="14" lengthAdjust="spacing" textLength="155" x="46.6681" y="827.9951">&lt;primary&gt; name : str</text><line style="stroke:#181818;stroke-width:0.5;" x1="41.6681" x2="206.6681" y1="835.2969" y2="835.2969"/></g><!--class Offre_emploi--><g id="elem_Offre_emploi"><rect codeLine="12" fill="#F1F1F1" height="96.8906" id="Offre_emploi" rx="2.5" ry="2.5" style="stroke:#181818;stroke-width:0.5;" width="185" x="780.6681" y="414.5"/><ellipse cx="821.7681" cy="430.5" fill="#ADD1B2" rx="11" ry="11" style="stroke:#181818;stroke-width:1.0;"/><path d="M824.1118,426.1719 C823.1743,425.7344 822.5806,425.5938 821.7056,425.5938 C819.0806,425.5938 817.0806,427.6719 817.0806,430.3906 L817.0806,431.5156 C817.0806,434.0938 819.1899,435.9844 822.0806,435.9844 C823.2993,435.9844 824.4556,435.6875 825.2056,435.1406 C825.7837,434.7344 826.1118,434.2813 826.1118,433.8906 C826.1118,433.4375 825.7212,433.0469 825.2524,433.0469 C825.0337,433.0469 824.8306,433.125 824.6431,433.3125 C824.1899,433.7969 824.1899,433.7969 824.0024,433.8906 C823.5806,434.1563 822.8931,434.2813 822.1274,434.2813 C820.0806,434.2813 818.7837,433.1875 818.7837,431.4844 L818.7837,430.3906 C818.7837,428.6094 820.0337,427.2969 821.7681,427.2969 C822.3462,427.2969 822.9556,427.4531 823.4243,427.7031 C823.9087,427.9844 824.0806,428.2031 824.1743,428.6094 C824.2368,429.0156 824.2681,429.1406 824.4087,429.2656 C824.5493,429.4063 824.7837,429.5156 825.0024,429.5156 C825.2681,429.5156 825.5337,429.375 825.7056,429.1563 C825.8149,429 825.8462,428.8125 825.8462,428.3906 L825.8462,426.9688 C825.8462,426.5313 825.8306,426.4063 825.7368,426.25 C825.5806,425.9844 825.2993,425.8438 825.0024,425.8438 C824.7056,425.8438 824.5024,425.9375 824.2837,426.25 L824.1118,426.1719 Z " fill="#000000"/><text fill="#000000" font-family="sans-serif" font-size="14" lengthAdjust="spacing" textLength="95" x="841.5681" y="435.3467">Offre_emploi</text><line style="stroke:#181818;stroke-width:0.5;" x1="781.6681" x2="964.6681" y1="446.5" y2="446.5"/><text fill="#000000" font-family="sans-serif" font-size="14" lengthAdjust="spacing" textLength="146" x="786.6681" y="463.4951">&lt;primary&gt; num : int</text><text fill="#000000" font-family="sans-serif" font-size="14" lengthAdjust="spacing" textLength="173" x="786.6681" y="479.792">date_validite : datetime</text><text fill="#000000" font-family="sans-serif" font-size="14" lengthAdjust="spacing" textLength="122" x="786.6681" y="496.0889">indications : text</text><line style="stroke:#181818;stroke-width:0.5;" x1="781.6681" x2="964.6681" y1="503.3906" y2="503.3906"/></g><!--class etat_offre--><g id="elem_etat_offre"><rect codeLine="18" fill="#F1F1F1" height="64.2969" id="etat_offre" rx="2.5" ry="2.5" style="stroke:#181818;stroke-width:0.5;" width="169" x="710.6681" y="605"/><ellipse cx="754.0181" cy="621" fill="#ADD1B2" rx="11" ry="11" style="stroke:#181818;stroke-width:1.0;"/><path d="M756.3618,616.6719 C755.4243,616.2344 754.8306,616.0938 753.9556,616.0938 C751.3306,616.0938 749.3306,618.1719 749.3306,620.8906 L749.3306,622.0156 C749.3306,624.5938 751.4399,626.4844 754.3306,626.4844 C755.5493,626.4844 756.7056,626.1875 757.4556,625.6406 C758.0337,625.2344 758.3618,624.7813 758.3618,624.3906 C758.3618,623.9375 757.9712,623.5469 757.5024,623.5469 C757.2837,623.5469 757.0806,623.625 756.8931,623.8125 C756.4399,624.2969 756.4399,624.2969 756.2524,624.3906 C755.8306,624.6563 755.1431,624.7813 754.3774,624.7813 C752.3306,624.7813 751.0337,623.6875 751.0337,621.9844 L751.0337,620.8906 C751.0337,619.1094 752.2837,617.7969 754.0181,617.7969 C754.5962,617.7969 755.2056,617.9531 755.6743,618.2031 C756.1587,618.4844 756.3306,618.7031 756.4243,619.1094 C756.4868,619.5156 756.5181,619.6406 756.6587,619.7656 C756.7993,619.9063 757.0337,620.0156 757.2524,620.0156 C757.5181,620.0156 757.7837,619.875 757.9556,619.6563 C758.0649,619.5 758.0962,619.3125 758.0962,618.8906 L758.0962,617.4688 C758.0962,617.0313 758.0806,616.9063 757.9868,616.75 C757.8306,616.4844 757.5493,616.3438 757.2524,616.3438 C756.9556,616.3438 756.7524,616.4375 756.5337,616.75 L756.3618,616.6719 Z " fill="#000000"/><text fill="#000000" font-family="sans-serif" font-size="14" lengthAdjust="spacing" textLength="74" x="774.3181" y="625.8467">etat_offre</text><line style="stroke:#181818;stroke-width:0.5;" x1="711.6681" x2="878.6681" y1="637" y2="637"/><text fill="#000000" font-family="sans-serif" font-size="14" lengthAdjust="spacing" textLength="157" x="716.6681" y="653.9951">&lt;primary&gt; etat : text</text><line style="stroke:#181818;stroke-width:0.5;" x1="711.6681" x2="878.6681" y1="661.2969" y2="661.2969"/></g><!--class fiche_poste--><g id="elem_fiche_poste"><rect codeLine="23" fill="#F1F1F1" height="162.0781" id="fiche_poste" rx="2.5" ry="2.5" style="stroke:#181818;stroke-width:0.5;" width="229" x="242.6681" y="730"/><ellipse cx="310.4181" cy="746" fill="#ADD1B2" rx="11" ry="11" style="stroke:#181818;stroke-width:1.0;"/><path d="M312.7618,741.6719 C311.8243,741.2344 311.2306,741.0938 310.3556,741.0938 C307.7306,741.0938 305.7306,743.1719 305.7306,745.8906 L305.7306,747.0156 C305.7306,749.5938 307.8399,751.4844 310.7306,751.4844 C311.9493,751.4844 313.1056,751.1875 313.8556,750.6406 C314.4337,750.2344 314.7618,749.7813 314.7618,749.3906 C314.7618,748.9375 314.3712,748.5469 313.9024,748.5469 C313.6837,748.5469 313.4806,748.625 313.2931,748.8125 C312.8399,749.2969 312.8399,749.2969 312.6524,749.3906 C312.2306,749.6563 311.5431,749.7813 310.7774,749.7813 C308.7306,749.7813 307.4337,748.6875 307.4337,746.9844 L307.4337,745.8906 C307.4337,744.1094 308.6837,742.7969 310.4181,742.7969 C310.9962,742.7969 311.6056,742.9531 312.0743,743.2031 C312.5587,743.4844 312.7306,743.7031 312.8243,744.1094 C312.8868,744.5156 312.9181,744.6406 313.0587,744.7656 C313.1993,744.9063 313.4337,745.0156 313.6524,745.0156 C313.9181,745.0156 314.1837,744.875 314.3556,744.6563 C314.4649,744.5 314.4962,744.3125 314.4962,743.8906 L314.4962,742.4688 C314.4962,742.0313 314.4806,741.9063 314.3868,741.75 C314.2306,741.4844 313.9493,741.3438 313.6524,741.3438 C313.3556,741.3438 313.1524,741.4375 312.9337,741.75 L312.7618,741.6719 Z " fill="#000000"/><text fill="#000000" font-family="sans-serif" font-size="14" lengthAdjust="spacing" textLength="85" x="330.9181" y="750.8467">fiche_poste</text><line style="stroke:#181818;stroke-width:0.5;" x1="243.6681" x2="470.6681" y1="762" y2="762"/><text fill="#000000" font-family="sans-serif" font-size="14" lengthAdjust="spacing" textLength="85" x="248.6681" y="778.9951">intitule : str</text><text fill="#000000" font-family="sans-serif" font-size="14" lengthAdjust="spacing" textLength="217" x="248.6681" y="795.292">responsable_hierarchique : str</text><text fill="#000000" font-family="sans-serif" font-size="14" lengthAdjust="spacing" textLength="152" x="248.6681" y="811.5889">rythme_travail : float</text><text fill="#000000" font-family="sans-serif" font-size="14" lengthAdjust="spacing" textLength="119" x="248.6681" y="827.8857">teletravail : bool</text><text fill="#000000" font-family="sans-serif" font-size="14" lengthAdjust="spacing" textLength="127" x="248.6681" y="844.1826">salaire_min : float</text><text fill="#000000" font-family="sans-serif" font-size="14" lengthAdjust="spacing" textLength="130" x="248.6681" y="860.4795">salaire_max : float</text><text fill="#000000" font-family="sans-serif" font-size="14" lengthAdjust="spacing" textLength="126" x="248.6681" y="876.7764">descirption : text</text><line style="stroke:#181818;stroke-width:0.5;" x1="243.6681" x2="470.6681" y1="884.0781" y2="884.0781"/></g><!--class statut_poste--><g id="elem_statut_poste"><rect codeLine="34" fill="#F1F1F1" height="64.2969" id="statut_poste" rx="2.5" ry="2.5" style="stroke:#181818;stroke-width:0.5;" width="182" x="221.1681" y="977.5"/><ellipse cx="261.8181" cy="993.5" fill="#ADD1B2" rx="11" ry="11" style="stroke:#181818;stroke-width:1.0;"/><path d="M264.1618,989.1719 C263.2243,988.7344 262.6306,988.5938 261.7556,988.5938 C259.1306,988.5938 257.1306,990.6719 257.1306,993.3906 L257.1306,994.5156 C257.1306,997.0938 259.2399,998.9844 262.1306,998.9844 C263.3493,998.9844 264.5056,998.6875 265.2556,998.1406 C265.8337,997.7344 266.1618,997.2813 266.1618,996.8906 C266.1618,996.4375 265.7712,996.0469 265.3024,996.0469 C265.0837,996.0469 264.8806,996.125 264.6931,996.3125 C264.2399,996.7969 264.2399,996.7969 264.0524,996.8906 C263.6306,997.1563 262.9431,997.2813 262.1774,997.2813 C260.1306,997.2813 258.8337,996.1875 258.8337,994.4844 L258.8337,993.3906 C258.8337,991.6094 260.0837,990.2969 261.8181,990.2969 C262.3962,990.2969 263.0056,990.4531 263.4743,990.7031 C263.9587,990.9844 264.1306,991.2031 264.2243,991.6094 C264.2868,992.0156 264.3181,992.1406 264.4587,992.2656 C264.5993,992.4063 264.8337,992.5156 265.0524,992.5156 C265.3181,992.5156 265.5837,992.375 265.7556,992.1563 C265.8649,992 265.8962,991.8125 265.8962,991.3906 L265.8962,989.9688 C265.8962,989.5313 265.8806,989.4063 265.7868,989.25 C265.6306,988.9844 265.3493,988.8438 265.0524,988.8438 C264.7556,988.8438 264.5524,988.9375 264.3337,989.25 L264.1618,989.1719 Z " fill="#000000"/><text fill="#000000" font-family="sans-serif" font-size="14" lengthAdjust="spacing" textLength="93" x="281.5181" y="998.3467">statut_poste</text><line style="stroke:#181818;stroke-width:0.5;" x1="222.1681" x2="402.1681" y1="1009.5" y2="1009.5"/><text fill="#000000" font-family="sans-serif" font-size="14" lengthAdjust="spacing" textLength="170" x="227.1681" y="1026.4951">&lt;primary&gt; statut : text</text><line style="stroke:#181818;stroke-width:0.5;" x1="222.1681" x2="402.1681" y1="1033.7969" y2="1033.7969"/></g><!--class type_metier--><g id="elem_type_metier"><rect codeLine="38" fill="#F1F1F1" height="64.2969" id="type_metier" rx="2.5" ry="2.5" style="stroke:#181818;stroke-width:0.5;" width="161" x="438.6681" y="977.5"/><ellipse cx="471.2181" cy="993.5" fill="#ADD1B2" rx="11" ry="11" style="stroke:#181818;stroke-width:1.0;"/><path d="M473.5618,989.1719 C472.6243,988.7344 472.0306,988.5938 471.1556,988.5938 C468.5306,988.5938 466.5306,990.6719 466.5306,993.3906 L466.5306,994.5156 C466.5306,997.0938 468.6399,998.9844 471.5306,998.9844 C472.7493,998.9844 473.9056,998.6875 474.6556,998.1406 C475.2337,997.7344 475.5618,997.2813 475.5618,996.8906 C475.5618,996.4375 475.1712,996.0469 474.7024,996.0469 C474.4837,996.0469 474.2806,996.125 474.0931,996.3125 C473.6399,996.7969 473.6399,996.7969 473.4524,996.8906 C473.0306,997.1563 472.3431,997.2813 471.5774,997.2813 C469.5306,997.2813 468.2337,996.1875 468.2337,994.4844 L468.2337,993.3906 C468.2337,991.6094 469.4837,990.2969 471.2181,990.2969 C471.7962,990.2969 472.4056,990.4531 472.8743,990.7031 C473.3587,990.9844 473.5306,991.2031 473.6243,991.6094 C473.6868,992.0156 473.7181,992.1406 473.8587,992.2656 C473.9993,992.4063 474.2337,992.5156 474.4524,992.5156 C474.7181,992.5156 474.9837,992.375 475.1556,992.1563 C475.2649,992 475.2962,991.8125 475.2962,991.3906 L475.2962,989.9688 C475.2962,989.5313 475.2806,989.4063 475.1868,989.25 C475.0306,988.9844 474.7493,988.8438 474.4524,988.8438 C474.1556,988.8438 473.9524,988.9375 473.7337,989.25 L473.5618,989.1719 Z " fill="#000000"/><text fill="#000000" font-family="sans-serif" font-size="14" lengthAdjust="spacing" textLength="90" x="489.1181" y="998.3467">type_metier</text><line style="stroke:#181818;stroke-width:0.5;" x1="439.6681" x2="598.6681" y1="1009.5" y2="1009.5"/><text fill="#000000" font-family="sans-serif" font-size="14" lengthAdjust="spacing" textLength="149" x="444.6681" y="1026.4951">&lt;primary&gt; type : str</text><line style="stroke:#181818;stroke-width:0.5;" x1="439.6681" x2="598.6681" y1="1033.7969" y2="1033.7969"/></g><!--class adresse--><g id="elem_adresse"><rect codeLine="42" fill="#F1F1F1" height="113.1875" id="adresse" rx="2.5" ry="2.5" style="stroke:#181818;stroke-width:0.5;" width="132" x="10.1681" y="953"/><ellipse cx="45.4181" cy="969" fill="#ADD1B2" rx="11" ry="11" style="stroke:#181818;stroke-width:1.0;"/><path d="M47.7618,964.6719 C46.8243,964.2344 46.2306,964.0938 45.3556,964.0938 C42.7306,964.0938 40.7306,966.1719 40.7306,968.8906 L40.7306,970.0156 C40.7306,972.5938 42.8399,974.4844 45.7306,974.4844 C46.9493,974.4844 48.1056,974.1875 48.8556,973.6406 C49.4337,973.2344 49.7618,972.7813 49.7618,972.3906 C49.7618,971.9375 49.3712,971.5469 48.9024,971.5469 C48.6837,971.5469 48.4806,971.625 48.2931,971.8125 C47.8399,972.2969 47.8399,972.2969 47.6524,972.3906 C47.2306,972.6563 46.5431,972.7813 45.7774,972.7813 C43.7306,972.7813 42.4337,971.6875 42.4337,969.9844 L42.4337,968.8906 C42.4337,967.1094 43.6837,965.7969 45.4181,965.7969 C45.9962,965.7969 46.6056,965.9531 47.0743,966.2031 C47.5587,966.4844 47.7306,966.7031 47.8243,967.1094 C47.8868,967.5156 47.9181,967.6406 48.0587,967.7656 C48.1993,967.9063 48.4337,968.0156 48.6524,968.0156 C48.9181,968.0156 49.1837,967.875 49.3556,967.6563 C49.4649,967.5 49.4962,967.3125 49.4962,966.8906 L49.4962,965.4688 C49.4962,965.0313 49.4806,964.9063 49.3868,964.75 C49.2306,964.4844 48.9493,964.3438 48.6524,964.3438 C48.3556,964.3438 48.1524,964.4375 47.9337,964.75 L47.7618,964.6719 Z " fill="#000000"/><text fill="#000000" font-family="sans-serif" font-size="14" lengthAdjust="spacing" textLength="55" x="63.9181" y="973.8467">adresse</text><line style="stroke:#181818;stroke-width:0.5;" x1="11.1681" x2="141.1681" y1="985" y2="985"/><text fill="#000000" font-family="sans-serif" font-size="14" lengthAdjust="spacing" textLength="64" x="16.1681" y="1001.9951">num : int</text><text fill="#000000" font-family="sans-serif" font-size="14" lengthAdjust="spacing" textLength="56" x="16.1681" y="1018.292">rue : str</text><text fill="#000000" font-family="sans-serif" font-size="14" lengthAdjust="spacing" textLength="62" x="16.1681" y="1034.5889">ville : str</text><text fill="#000000" font-family="sans-serif" font-size="14" lengthAdjust="spacing" textLength="120" x="16.1681" y="1050.8857">code_postal : str</text><line style="stroke:#181818;stroke-width:0.5;" x1="11.1681" x2="141.1681" y1="1058.1875" y2="1058.1875"/></g><!--class Utilisateur--><g id="elem_Utilisateur"><rect codeLine="50" fill="#F1F1F1" height="162.0781" id="Utilisateur" rx="2.5" ry="2.5" style="stroke:#181818;stroke-width:0.5;" width="192" x="389.1681" y="382"/><ellipse cx="444.4181" cy="398" fill="#ADD1B2" rx="11" ry="11" style="stroke:#181818;stroke-width:1.0;"/><path d="M446.7618,393.6719 C445.8243,393.2344 445.2306,393.0938 444.3556,393.0938 C441.7306,393.0938 439.7306,395.1719 439.7306,397.8906 L439.7306,399.0156 C439.7306,401.5938 441.8399,403.4844 444.7306,403.4844 C445.9493,403.4844 447.1056,403.1875 447.8556,402.6406 C448.4337,402.2344 448.7618,401.7813 448.7618,401.3906 C448.7618,400.9375 448.3712,400.5469 447.9024,400.5469 C447.6837,400.5469 447.4806,400.625 447.2931,400.8125 C446.8399,401.2969 446.8399,401.2969 446.6524,401.3906 C446.2306,401.6563 445.5431,401.7813 444.7774,401.7813 C442.7306,401.7813 441.4337,400.6875 441.4337,398.9844 L441.4337,397.8906 C441.4337,396.1094 442.6837,394.7969 444.4181,394.7969 C444.9962,394.7969 445.6056,394.9531 446.0743,395.2031 C446.5587,395.4844 446.7306,395.7031 446.8243,396.1094 C446.8868,396.5156 446.9181,396.6406 447.0587,396.7656 C447.1993,396.9063 447.4337,397.0156 447.6524,397.0156 C447.9181,397.0156 448.1837,396.875 448.3556,396.6563 C448.4649,396.5 448.4962,396.3125 448.4962,395.8906 L448.4962,394.4688 C448.4962,394.0313 448.4806,393.9063 448.3868,393.75 C448.2306,393.4844 447.9493,393.3438 447.6524,393.3438 C447.3556,393.3438 447.1524,393.4375 446.9337,393.75 L446.7618,393.6719 Z " fill="#000000"/><text fill="#000000" font-family="sans-serif" font-size="14" lengthAdjust="spacing" textLength="73" x="464.9181" y="402.8467">Utilisateur</text><line style="stroke:#181818;stroke-width:0.5;" x1="390.1681" x2="580.1681" y1="414" y2="414"/><text fill="#000000" font-family="sans-serif" font-size="14" lengthAdjust="spacing" textLength="128" x="395.1681" y="430.9951">email : str UNIQUE</text><text fill="#000000" font-family="sans-serif" font-size="14" lengthAdjust="spacing" textLength="65" x="395.1681" y="447.292">nom : str</text><text fill="#000000" font-family="sans-serif" font-size="14" lengthAdjust="spacing" textLength="90" x="395.1681" y="463.5889">prenom : str</text><text fill="#000000" font-family="sans-serif" font-size="14" lengthAdjust="spacing" textLength="91" x="395.1681" y="479.8857">num_tel : str</text><text fill="#000000" font-family="sans-serif" font-size="14" lengthAdjust="spacing" textLength="180" x="395.1681" y="496.1826">date_creation : datetime</text><text fill="#000000" font-family="sans-serif" font-size="14" lengthAdjust="spacing" textLength="89" x="395.1681" y="512.4795">statut : bool</text><line style="stroke:#181818;stroke-width:0.5;" x1="390.1681" x2="580.1681" y1="519.7813" y2="519.7813"/><text fill="#000000" font-family="sans-serif" font-size="14" lengthAdjust="spacing" textLength="147" x="395.1681" y="536.7764">password : str (hash)</text></g><!--class Administrateur--><g id="elem_Administrateur"><rect codeLine="60" fill="#F1F1F1" height="48" id="Administrateur" rx="2.5" ry="2.5" style="stroke:#181818;stroke-width:0.5;" width="140" x="476.1681" y="249"/><ellipse cx="491.1681" cy="265" fill="#ADD1B2" rx="11" ry="11" style="stroke:#181818;stroke-width:1.0;"/><path d="M493.5118,260.6719 C492.5743,260.2344 491.9806,260.0938 491.1056,260.0938 C488.4806,260.0938 486.4806,262.1719 486.4806,264.8906 L486.4806,266.0156 C486.4806,268.5938 488.5899,270.4844 491.4806,270.4844 C492.6993,270.4844 493.8556,270.1875 494.6056,269.6406 C495.1837,269.2344 495.5118,268.7813 495.5118,268.3906 C495.5118,267.9375 495.1212,267.5469 494.6524,267.5469 C494.4337,267.5469 494.2306,267.625 494.0431,267.8125 C493.5899,268.2969 493.5899,268.2969 493.4024,268.3906 C492.9806,268.6563 492.2931,268.7813 491.5274,268.7813 C489.4806,268.7813 488.1837,267.6875 488.1837,265.9844 L488.1837,264.8906 C488.1837,263.1094 489.4337,261.7969 491.1681,261.7969 C491.7462,261.7969 492.3556,261.9531 492.8243,262.2031 C493.3087,262.4844 493.4806,262.7031 493.5743,263.1094 C493.6368,263.5156 493.6681,263.6406 493.8087,263.7656 C493.9493,263.9063 494.1837,264.0156 494.4024,264.0156 C494.6681,264.0156 494.9337,263.875 495.1056,263.6563 C495.2149,263.5 495.2462,263.3125 495.2462,262.8906 L495.2462,261.4688 C495.2462,261.0313 495.2306,260.9063 495.1368,260.75 C494.9806,260.4844 494.6993,260.3438 494.4024,260.3438 C494.1056,260.3438 493.9024,260.4375 493.6837,260.75 L493.5118,260.6719 Z " fill="#000000"/><text fill="#000000" font-family="sans-serif" font-size="14" lengthAdjust="spacing" textLength="108" x="505.1681" y="269.8467">Administrateur</text><line style="stroke:#181818;stroke-width:0.5;" x1="477.1681" x2="615.1681" y1="281" y2="281"/><line style="stroke:#181818;stroke-width:0.5;" x1="477.1681" x2="615.1681" y1="289" y2="289"/></g><!--class Recruteur--><g id="elem_Recruteur"><rect codeLine="64" fill="#F1F1F1" height="48" id="Recruteur" rx="2.5" ry="2.5" style="stroke:#181818;stroke-width:0.5;" width="103" x="284.6681" y="7"/><ellipse cx="299.6681" cy="23" fill="#ADD1B2" rx="11" ry="11" style="stroke:#181818;stroke-width:1.0;"/><path d="M302.0118,18.6719 C301.0743,18.2344 300.4806,18.0938 299.6056,18.0938 C296.9806,18.0938 294.9806,20.1719 294.9806,22.8906 L294.9806,24.0156 C294.9806,26.5938 297.0899,28.4844 299.9806,28.4844 C301.1993,28.4844 302.3556,28.1875 303.1056,27.6406 C303.6837,27.2344 304.0118,26.7813 304.0118,26.3906 C304.0118,25.9375 303.6212,25.5469 303.1524,25.5469 C302.9337,25.5469 302.7306,25.625 302.5431,25.8125 C302.0899,26.2969 302.0899,26.2969 301.9024,26.3906 C301.4806,26.6563 300.7931,26.7813 300.0274,26.7813 C297.9806,26.7813 296.6837,25.6875 296.6837,23.9844 L296.6837,22.8906 C296.6837,21.1094 297.9337,19.7969 299.6681,19.7969 C300.2462,19.7969 300.8556,19.9531 301.3243,20.2031 C301.8087,20.4844 301.9806,20.7031 302.0743,21.1094 C302.1368,21.5156 302.1681,21.6406 302.3087,21.7656 C302.4493,21.9063 302.6837,22.0156 302.9024,22.0156 C303.1681,22.0156 303.4337,21.875 303.6056,21.6563 C303.7149,21.5 303.7462,21.3125 303.7462,20.8906 L303.7462,19.4688 C303.7462,19.0313 303.7306,18.9063 303.6368,18.75 C303.4806,18.4844 303.1993,18.3438 302.9024,18.3438 C302.6056,18.3438 302.4024,18.4375 302.1837,18.75 L302.0118,18.6719 Z " fill="#000000"/><text fill="#000000" font-family="sans-serif" font-size="14" lengthAdjust="spacing" textLength="71" x="313.6681" y="27.8467">Recruteur</text><line style="stroke:#181818;stroke-width:0.5;" x1="285.6681" x2="386.6681" y1="39" y2="39"/><line style="stroke:#181818;stroke-width:0.5;" x1="285.6681" x2="386.6681" y1="47" y2="47"/></g><!--class Candidat--><g id="elem_Candidat"><rect codeLine="68" fill="#F1F1F1" height="48" id="Candidat" rx="2.5" ry="2.5" style="stroke:#181818;stroke-width:0.5;" width="96" x="389.1681" y="116"/><ellipse cx="404.1681" cy="132" fill="#ADD1B2" rx="11" ry="11" style="stroke:#181818;stroke-width:1.0;"/><path d="M406.5118,127.6719 C405.5743,127.2344 404.9806,127.0938 404.1056,127.0938 C401.4806,127.0938 399.4806,129.1719 399.4806,131.8906 L399.4806,133.0156 C399.4806,135.5938 401.5899,137.4844 404.4806,137.4844 C405.6993,137.4844 406.8556,137.1875 407.6056,136.6406 C408.1837,136.2344 408.5118,135.7813 408.5118,135.3906 C408.5118,134.9375 408.1212,134.5469 407.6524,134.5469 C407.4337,134.5469 407.2306,134.625 407.0431,134.8125 C406.5899,135.2969 406.5899,135.2969 406.4024,135.3906 C405.9806,135.6563 405.2931,135.7813 404.5274,135.7813 C402.4806,135.7813 401.1837,134.6875 401.1837,132.9844 L401.1837,131.8906 C401.1837,130.1094 402.4337,128.7969 404.1681,128.7969 C404.7462,128.7969 405.3556,128.9531 405.8243,129.2031 C406.3087,129.4844 406.4806,129.7031 406.5743,130.1094 C406.6368,130.5156 406.6681,130.6406 406.8087,130.7656 C406.9493,130.9063 407.1837,131.0156 407.4024,131.0156 C407.6681,131.0156 407.9337,130.875 408.1056,130.6563 C408.2149,130.5 408.2462,130.3125 408.2462,129.8906 L408.2462,128.4688 C408.2462,128.0313 408.2306,127.9063 408.1368,127.75 C407.9806,127.4844 407.6993,127.3438 407.4024,127.3438 C407.1056,127.3438 406.9024,127.4375 406.6837,127.75 L406.5118,127.6719 Z " fill="#000000"/><text fill="#000000" font-family="sans-serif" font-size="14" lengthAdjust="spacing" textLength="64" x="418.1681" y="136.8467">Candidat</text><line style="stroke:#181818;stroke-width:0.5;" x1="390.1681" x2="484.1681" y1="148" y2="148"/><line style="stroke:#181818;stroke-width:0.5;" x1="390.1681" x2="484.1681" y1="156" y2="156"/></g><!--class Candidature--><g id="elem_Candidature"><rect codeLine="72" fill="#F1F1F1" height="64.2969" id="Candidature" rx="2.5" ry="2.5" style="stroke:#181818;stroke-width:0.5;" width="217" x="651.6681" y="241"/><ellipse cx="712.4181" cy="257" fill="#ADD1B2" rx="11" ry="11" style="stroke:#181818;stroke-width:1.0;"/><path d="M714.7618,252.6719 C713.8243,252.2344 713.2306,252.0938 712.3556,252.0938 C709.7306,252.0938 707.7306,254.1719 707.7306,256.8906 L707.7306,258.0156 C707.7306,260.5938 709.8399,262.4844 712.7306,262.4844 C713.9493,262.4844 715.1056,262.1875 715.8556,261.6406 C716.4337,261.2344 716.7618,260.7813 716.7618,260.3906 C716.7618,259.9375 716.3712,259.5469 715.9024,259.5469 C715.6837,259.5469 715.4806,259.625 715.2931,259.8125 C714.8399,260.2969 714.8399,260.2969 714.6524,260.3906 C714.2306,260.6563 713.5431,260.7813 712.7774,260.7813 C710.7306,260.7813 709.4337,259.6875 709.4337,257.9844 L709.4337,256.8906 C709.4337,255.1094 710.6837,253.7969 712.4181,253.7969 C712.9962,253.7969 713.6056,253.9531 714.0743,254.2031 C714.5587,254.4844 714.7306,254.7031 714.8243,255.1094 C714.8868,255.5156 714.9181,255.6406 715.0587,255.7656 C715.1993,255.9063 715.4337,256.0156 715.6524,256.0156 C715.9181,256.0156 716.1837,255.875 716.3556,255.6563 C716.4649,255.5 716.4962,255.3125 716.4962,254.8906 L716.4962,253.4688 C716.4962,253.0313 716.4806,252.9063 716.3868,252.75 C716.2306,252.4844 715.9493,252.3438 715.6524,252.3438 C715.3556,252.3438 715.1524,252.4375 714.9337,252.75 L714.7618,252.6719 Z " fill="#000000"/><text fill="#000000" font-family="sans-serif" font-size="14" lengthAdjust="spacing" textLength="87" x="732.9181" y="261.8467">Candidature</text><line style="stroke:#181818;stroke-width:0.5;" x1="652.6681" x2="867.6681" y1="273" y2="273"/><text fill="#000000" font-family="sans-serif" font-size="14" lengthAdjust="spacing" textLength="205" x="657.6681" y="289.9951">date_candidature : datetime</text><line style="stroke:#181818;stroke-width:0.5;" x1="652.6681" x2="867.6681" y1="297.2969" y2="297.2969"/></g><!--class Type_piece_dossier--><g id="elem_Type_piece_dossier"><rect codeLine="76" fill="#F1F1F1" height="64.2969" id="Type_piece_dossier" rx="2.5" ry="2.5" style="stroke:#181818;stroke-width:0.5;" width="173" x="502.6681" y="605"/><ellipse cx="517.6681" cy="621" fill="#ADD1B2" rx="11" ry="11" style="stroke:#181818;stroke-width:1.0;"/><path d="M520.0118,616.6719 C519.0743,616.2344 518.4806,616.0938 517.6056,616.0938 C514.9806,616.0938 512.9806,618.1719 512.9806,620.8906 L512.9806,622.0156 C512.9806,624.5938 515.0899,626.4844 517.9806,626.4844 C519.1993,626.4844 520.3556,626.1875 521.1056,625.6406 C521.6837,625.2344 522.0118,624.7813 522.0118,624.3906 C522.0118,623.9375 521.6212,623.5469 521.1524,623.5469 C520.9337,623.5469 520.7306,623.625 520.5431,623.8125 C520.0899,624.2969 520.0899,624.2969 519.9024,624.3906 C519.4806,624.6563 518.7931,624.7813 518.0274,624.7813 C515.9806,624.7813 514.6837,623.6875 514.6837,621.9844 L514.6837,620.8906 C514.6837,619.1094 515.9337,617.7969 517.6681,617.7969 C518.2462,617.7969 518.8556,617.9531 519.3243,618.2031 C519.8087,618.4844 519.9806,618.7031 520.0743,619.1094 C520.1368,619.5156 520.1681,619.6406 520.3087,619.7656 C520.4493,619.9063 520.6837,620.0156 520.9024,620.0156 C521.1681,620.0156 521.4337,619.875 521.6056,619.6563 C521.7149,619.5 521.7462,619.3125 521.7462,618.8906 L521.7462,617.4688 C521.7462,617.0313 521.7306,616.9063 521.6368,616.75 C521.4806,616.4844 521.1993,616.3438 520.9024,616.3438 C520.6056,616.3438 520.4024,616.4375 520.1837,616.75 L520.0118,616.6719 Z " fill="#000000"/><text fill="#000000" font-family="sans-serif" font-size="14" lengthAdjust="spacing" textLength="141" x="531.6681" y="625.8467">Type_piece_dossier</text><line style="stroke:#181818;stroke-width:0.5;" x1="503.6681" x2="674.6681" y1="637" y2="637"/><text fill="#000000" font-family="sans-serif" font-size="14" lengthAdjust="spacing" textLength="160" x="508.6681" y="653.9951">&lt;primary&gt; type : text</text><line style="stroke:#181818;stroke-width:0.5;" x1="503.6681" x2="674.6681" y1="661.2969" y2="661.2969"/></g><!--class Piece_dossier--><g id="elem_Piece_dossier"><rect codeLine="80" fill="#F1F1F1" height="48" id="Piece_dossier" rx="2.5" ry="2.5" style="stroke:#181818;stroke-width:0.5;" width="129" x="616.6681" y="439"/><ellipse cx="631.6681" cy="455" fill="#ADD1B2" rx="11" ry="11" style="stroke:#181818;stroke-width:1.0;"/><path d="M634.0118,450.6719 C633.0743,450.2344 632.4806,450.0938 631.6056,450.0938 C628.9806,450.0938 626.9806,452.1719 626.9806,454.8906 L626.9806,456.0156 C626.9806,458.5938 629.0899,460.4844 631.9806,460.4844 C633.1993,460.4844 634.3556,460.1875 635.1056,459.6406 C635.6837,459.2344 636.0118,458.7813 636.0118,458.3906 C636.0118,457.9375 635.6212,457.5469 635.1524,457.5469 C634.9337,457.5469 634.7306,457.625 634.5431,457.8125 C634.0899,458.2969 634.0899,458.2969 633.9024,458.3906 C633.4806,458.6563 632.7931,458.7813 632.0274,458.7813 C629.9806,458.7813 628.6837,457.6875 628.6837,455.9844 L628.6837,454.8906 C628.6837,453.1094 629.9337,451.7969 631.6681,451.7969 C632.2462,451.7969 632.8556,451.9531 633.3243,452.2031 C633.8087,452.4844 633.9806,452.7031 634.0743,453.1094 C634.1368,453.5156 634.1681,453.6406 634.3087,453.7656 C634.4493,453.9063 634.6837,454.0156 634.9024,454.0156 C635.1681,454.0156 635.4337,453.875 635.6056,453.6563 C635.7149,453.5 635.7462,453.3125 635.7462,452.8906 L635.7462,451.4688 C635.7462,451.0313 635.7306,450.9063 635.6368,450.75 C635.4806,450.4844 635.1993,450.3438 634.9024,450.3438 C634.6056,450.3438 634.4024,450.4375 634.1837,450.75 L634.0118,450.6719 Z " fill="#000000"/><text fill="#000000" font-family="sans-serif" font-size="14" lengthAdjust="spacing" textLength="97" x="645.6681" y="459.8467">Piece_dossier</text><line style="stroke:#181818;stroke-width:0.5;" x1="617.6681" x2="744.6681" y1="471" y2="471"/><line style="stroke:#181818;stroke-width:0.5;" x1="617.6681" x2="744.6681" y1="479" y2="479"/></g><!--link Organisation to Type_Organisation--><g id="link_Organisation_Type_Organisation"><path codeLine="84" d="M157.8091,503.691 C150.1671,573.273 134.5071,715.86 127.5861,778.876 " fill="none" id="Organisation-Type_Organisation" style="stroke:#181818;stroke-width:1.0;"/><text fill="#000000" font-family="sans-serif" font-size="13" lengthAdjust="spacing" textLength="7" x="149.6057" y="523.1784">*</text><text fill="#000000" font-family="sans-serif" font-size="13" lengthAdjust="spacing" textLength="8" x="119.466" y="767.7535">1</text></g><!--link Organisation to fiche_poste--><g id="link_Organisation_fiche_poste"><path codeLine="85" d="M172.6821,503.531 C184.9871,546.159 207.7521,615.143 239.1681,669 C251.3911,689.955 266.7571,710.895 282.3221,729.982 " fill="none" id="Organisation-fiche_poste" style="stroke:#181818;stroke-width:1.0;"/><text fill="#000000" font-family="sans-serif" font-size="13" lengthAdjust="spacing" textLength="69" x="240.1681" y="641.5669">Poss&#233;der&gt;</text><text fill="#000000" font-family="sans-serif" font-size="13" lengthAdjust="spacing" textLength="8" x="165.7202" y="523.2958">1</text><text fill="#000000" font-family="sans-serif" font-size="13" lengthAdjust="spacing" textLength="7" x="268.0995" y="718.8912">*</text></g><!--link Offre_emploi to etat_offre--><g id="link_Offre_emploi_etat_offre"><path codeLine="86" d="M851.4411,511.912 C837.9631,541.633 821.0351,578.959 809.2841,604.872 " fill="none" id="Offre_emploi-etat_offre" style="stroke:#181818;stroke-width:1.0;"/><text fill="#000000" font-family="sans-serif" font-size="13" lengthAdjust="spacing" textLength="7" x="841.0512" y="531.5755">*</text><text fill="#000000" font-family="sans-serif" font-size="13" lengthAdjust="spacing" textLength="8" x="803.3705" y="593.7487">1</text></g><!--link fiche_poste to statut_poste--><g id="link_fiche_poste_statut_poste"><path codeLine="87" d="M338.8001,892.207 C331.9471,922.134 324.5641,954.373 319.3131,977.2987 " fill="none" id="fiche_poste-statut_poste" style="stroke:#181818;stroke-width:1.0;"/><text fill="#000000" font-family="sans-serif" font-size="13" lengthAdjust="spacing" textLength="7" x="329.8525" y="912.1768">*</text><text fill="#000000" font-family="sans-serif" font-size="13" lengthAdjust="spacing" textLength="8" x="311.9322" y="966.5336">1</text></g><!--link fiche_poste to type_metier--><g id="link_fiche_poste_type_metier"><path codeLine="88" d="M423.2931,892.207 C447.9651,922.134 474.5441,954.373 493.4451,977.2987 " fill="none" id="fiche_poste-type_metier" style="stroke:#181818;stroke-width:1.0;"/><text fill="#000000" font-family="sans-serif" font-size="13" lengthAdjust="spacing" textLength="7" x="421.8706" y="912.1768">*</text><text fill="#000000" font-family="sans-serif" font-size="13" lengthAdjust="spacing" textLength="8" x="479.5934" y="966.5336">1</text></g><!--link fiche_poste to adresse--><g id="link_fiche_poste_adresse"><path codeLine="89" d="M242.4691,892.207 C208.4761,915.979 172.3951,941.209 142.5611,962.072 " fill="none" id="fiche_poste-adresse" style="stroke:#181818;stroke-width:1.0;"/><text fill="#000000" font-family="sans-serif" font-size="13" lengthAdjust="spacing" textLength="7" x="227.5276" y="894.2279">*</text><text fill="#000000" font-family="sans-serif" font-size="13" lengthAdjust="spacing" textLength="8" x="150.2603" y="953.1282">1</text></g><!--link Offre_emploi to fiche_poste--><g id="link_Offre_emploi_fiche_poste"><path codeLine="90" d="M896.4161,511.856 C914.6321,557.034 931.6681,624.335 897.1681,669 C845.6011,735.761 614.3581,776.936 471.7191,796.444 " fill="none" id="Offre_emploi-fiche_poste" style="stroke:#181818;stroke-width:1.0;"/><polygon fill="#000000" points="917.0144,639.8498,926.1645,637.2561,922.8924,632.3732,917.0144,639.8498" style="stroke:#000000;stroke-width:1.0;"/><text fill="#000000" font-family="sans-serif" font-size="13" lengthAdjust="spacing" textLength="99" x="930.1681" y="641.5669">Correspondre &#224;</text><text fill="#000000" font-family="sans-serif" font-size="13" lengthAdjust="spacing" textLength="7" x="892.0697" y="531.512">*</text><text fill="#000000" font-family="sans-serif" font-size="13" lengthAdjust="spacing" textLength="8" x="479.6842" y="792.0308">1</text></g><!--link Administrateur to Utilisateur--><g id="link_Administrateur_Utilisateur"><path codeLine="91" d="M538.6881,297.052 C531.8161,318.231 523.0688,345.1909 513.1108,375.8819 " fill="none" id="Administrateur-to-Utilisateur" style="stroke:#181818;stroke-width:1.0;"/><polygon fill="#181818" points="511.2591,381.589,517.8414,374.2628,512.8022,376.8331,510.2319,371.7938,511.2591,381.589" style="stroke:#181818;stroke-width:1.0;"/></g><!--link Recruteur to Candidat--><g id="link_Recruteur_Candidat"><path codeLine="92" d="M358.0831,55.22 C375.0251,73.165 394.2466,93.5288 411.1766,111.4648 " fill="none" id="Recruteur-to-Candidat" style="stroke:#181818;stroke-width:1.0;"/><polygon fill="#181818" points="415.2951,115.828,412.0261,106.5375,411.863,112.192,406.2085,112.0288,415.2951,115.828" style="stroke:#181818;stroke-width:1.0;"/></g><!--link Candidat to Utilisateur--><g id="link_Candidat_Utilisateur"><path codeLine="93" d="M440.0411,164.117 C444.0441,195.899 451.6541,254.856 459.1681,305 C462.9141,330.001 466.3194,351.2683 470.4144,375.8833 " fill="none" id="Candidat-to-Utilisateur" style="stroke:#181818;stroke-width:1.0;"/><polygon fill="#181818" points="471.3991,381.802,473.8679,372.2676,470.5785,376.8698,465.9763,373.5804,471.3991,381.802" style="stroke:#181818;stroke-width:1.0;"/></g><!--link Recruteur to fiche_poste--><g id="link_Recruteur_fiche_poste"><path codeLine="94" d="M336.1681,55.38 C336.1681,77.055 336.1681,110.207 336.1681,139 C336.1681,139 336.1681,139 336.1681,638 C336.1681,668.083 339.3721,700.909 343.2781,729.744 " fill="none" id="Recruteur-fiche_poste" style="stroke:#181818;stroke-width:1.0;"/><polygon fill="#000000" points="341.2208,348.5661,344.0642,339.4906,338.1867,339.5525,341.2208,348.5661" style="stroke:#000000;stroke-width:1.0;"/><text fill="#000000" font-family="sans-serif" font-size="13" lengthAdjust="spacing" textLength="35" x="350.1681" y="348.0669">Creer</text><text fill="#000000" font-family="sans-serif" font-size="13" lengthAdjust="spacing" textLength="23" x="310.3649" y="75.2338">1..*</text><text fill="#000000" font-family="sans-serif" font-size="13" lengthAdjust="spacing" textLength="7" x="334.7293" y="718.9085">*</text></g><!--link Candidature to Piece_dossier--><g id="link_Candidature_Piece_dossier"><path codeLine="95" d="M747.1231,305.044 C731.3021,342.694 705.0031,405.28 690.8661,438.921 " fill="none" id="Candidature-Piece_dossier" style="stroke:#181818;stroke-width:1.0;"/><text fill="#000000" font-family="sans-serif" font-size="13" lengthAdjust="spacing" textLength="8" x="735.6075" y="325.2499">1</text><text fill="#000000" font-family="sans-serif" font-size="13" lengthAdjust="spacing" textLength="7" x="685.4543" y="427.9128">*</text></g><!--link Piece_dossier to Type_piece_dossier--><g id="link_Piece_dossier_Type_piece_dossier"><path codeLine="96" d="M668.7601,487.197 C652.5261,517.548 624.0171,570.847 605.8891,604.738 " fill="none" id="Piece_dossier-Type_piece_dossier" style="stroke:#181818;stroke-width:1.0;"/><text fill="#000000" font-family="sans-serif" font-size="13" lengthAdjust="spacing" textLength="7" x="657.8825" y="507.0062">*</text><text fill="#000000" font-family="sans-serif" font-size="13" lengthAdjust="spacing" textLength="8" x="600.3935" y="593.9606">1</text></g><!--link Candidature to Offre_emploi--><g id="link_Candidature_Offre_emploi"><path codeLine="97" d="M778.8281,305.044 C796.6931,334.767 823.9011,380.033 844.5141,414.328 " fill="none" id="Candidature-Offre_emploi" style="stroke:#181818;stroke-width:1.0;"/><polygon fill="#000000" points="813.7439,347.8519,811.6031,338.5854,806.5653,341.6134,813.7439,347.8519" style="stroke:#000000;stroke-width:1.0;"/><text fill="#000000" font-family="sans-serif" font-size="13" lengthAdjust="spacing" textLength="63" x="820.1681" y="348.0669">Porter sur</text><text fill="#000000" font-family="sans-serif" font-size="13" lengthAdjust="spacing" textLength="7" x="774.9548" y="325.2499">*</text><text fill="#000000" font-family="sans-serif" font-size="13" lengthAdjust="spacing" textLength="8" x="831.9221" y="403.5127">1</text></g><!--link Candidat to Candidature--><g id="link_Candidat_Candidature"><path codeLine="98" d="M485.1761,160.471 C537.5451,181.71 622.1101,216.007 683.6521,240.967 " fill="none" id="Candidat-Candidature" style="stroke:#181818;stroke-width:1.0;"/><polygon fill="#000000" points="617.8015,204.4456,610.5241,198.3227,608.315,203.7696,617.8015,204.4456" style="stroke:#000000;stroke-width:1.0;"/><text fill="#000000" font-family="sans-serif" font-size="13" lengthAdjust="spacing" textLength="50" x="622.1681" y="207.0669">Modifier</text><text fill="#000000" font-family="sans-serif" font-size="13" lengthAdjust="spacing" textLength="8" x="493.1398" y="159.5342">1</text><text fill="#000000" font-family="sans-serif" font-size="13" lengthAdjust="spacing" textLength="7" x="660.1488" y="229.8633">*</text></g><!--link Recruteur to Organisation--><g id="link_Recruteur_Organisation"><path codeLine="99" d="M310.0301,55.18 C279.0481,84.293 228.4451,137.339 203.1681,194 C169.3221,269.87 162.6571,368.515 161.7821,422.466 " fill="none" id="Recruteur-Organisation" style="stroke:#181818;stroke-width:1.0;"/><polygon fill="#000000" points="206.2966,207.203,212.4074,199.9154,206.9568,197.7153,206.2966,207.203" style="stroke:#000000;stroke-width:1.0;"/><text fill="#000000" font-family="sans-serif" font-size="13" lengthAdjust="spacing" textLength="92" x="217.1681" y="207.0669">Travailler pour</text><text fill="#000000" font-family="sans-serif" font-size="13" lengthAdjust="spacing" textLength="7" x="295.8058" y="74.9851">*</text><text fill="#000000" font-family="sans-serif" font-size="13" lengthAdjust="spacing" textLength="8" x="153.0282" y="411.3234">1</text></g><!--link Organisation to adresse--><g id="link_Organisation_adresse"><path codeLine="100" d="M133.3991,503.883 C99.2959,553.854 44.4137,643.469 23.1681,730 C6,799.923 7.9143,821.634 23.1681,892 C27.6638,912.739 36.181,934.217 45.0936,952.997 " fill="none" id="Organisation-adresse" style="stroke:#181818;stroke-width:1.0;"/><text fill="#000000" font-family="sans-serif" font-size="13" lengthAdjust="spacing" textLength="7" x="121.6596" y="523.0957">*</text><text fill="#000000" font-family="sans-serif" font-size="13" lengthAdjust="spacing" textLength="8" x="32.5996" y="941.86">1</text></g><!--SRC=[TLJ1Rjim3BtxAmYVjW8ja6in11Y27GfqIRSbPqEncPc0R7aIdJKezY-xxZlwOwDinvQI-6QHZ-GZ-UZQC4AwDQq3ZGuKiwLzomwSgHdMcosiTy_FAIW7jK2J9DVAETZOdwecfvXC_PO0V6eiLSgUbl23BDRm25Ips6jJoRTZc_mvXsvF3MRpyRMgy39aSpXOpB1gj26uWBVLMAnGZDbHQIg8VGx_PgfGN5GNb7VLd3WONtdAZgmuCxv4dDhR0_20Fb1UOjOO9oNUkinCtEepPm2Bhf4oQgynAmcjidb9lze0SEAomeojEYhIOZveepn_HesJTM-C5gDJMib8iuhg03fQrMjWBT3bP1lVva0SGCnJgqvQQhbd7pVRUwvcmtvPbKmHROptZiirgK9wTrtYS2qswFr8EXXLRef-b4eFjYdPZabxWM3RLSQgdug0OBT- -hRx4gaBe17P1KyXaCayntUdZToY6eOJQ6DiVPXu8-L_6riCrJwKofKV9sAV2ra5YMVaDlc-OsxRQ_DAYVoaucrhsmklPpZPGfBnyJI4EMQ5SMvkBV4INsAyrt9uVv3UfN1_Vm_f8hs-pWleOe1AI7W9Zv2-IFxtVmNQPPf41zkdxqAdKql2w00HAdGE4uXo3Z98yHQH7d11VcLiVxSI1-z_GNg8zoo1or2JoRZgpdFUPNB-y8Nc0jB5myFTx1nN5j5w0e4-Xhbty6YRIVGA9t2jb3ZXX8ncr2tIikHoRSGYfB2AL9f-DGKTg2STT1bK22Ka0Tl-9wSbf35zcHk231Vv7m00]--></g></svg>